# BOATRACE REALISM boat v3 (sleek)
mtllib boat.mtl
v 0.0000 0.1520 -1.9000
v 0.1582 0.1427 -1.9000
v 0.3069 0.1389 -1.9000
v 0.4048 0.1300 -1.9000
v 0.4379 0.0550 -1.9000
v 0.4405 -0.0238 -1.9000
v 0.4092 -0.0850 -1.9000
v 0.2912 -0.0982 -1.9000
v 0.1408 -0.1053 -1.9000
v -0.0000 -0.1140 -1.9000
v -0.1408 -0.1053 -1.9000
v -0.2912 -0.0982 -1.9000
v -0.4092 -0.0850 -1.9000
v -0.4405 -0.0238 -1.9000
v -0.4379 0.0550 -1.9000
v -0.4048 0.1300 -1.9000
v -0.3069 0.1389 -1.9000
v -0.1582 0.1427 -1.9000
v 0.0000 0.1528 -1.7857
v 0.1618 0.1435 -1.7857
v 0.3137 0.1397 -1.7857
v 0.4138 0.1308 -1.7857
v 0.4477 0.0553 -1.7857
v 0.4503 -0.0240 -1.7857
v 0.4183 -0.0857 -1.7857
v 0.2977 -0.0990 -1.7857
v 0.1439 -0.1061 -1.7857
v 0.0000 -0.1148 -1.7857
v -0.1439 -0.1061 -1.7857
v -0.2977 -0.0990 -1.7857
v -0.4183 -0.0857 -1.7857
v -0.4503 -0.0240 -1.7857
v -0.4477 0.0553 -1.7857
v -0.4138 0.1308 -1.7857
v -0.3137 0.1397 -1.7857
v -0.1618 0.1435 -1.7857
v 0.0000 0.1538 -1.6714
v 0.1669 0.1446 -1.6714
v 0.3236 0.1408 -1.6714
v 0.4268 0.1318 -1.6714
v 0.4617 0.0556 -1.6714
v 0.4645 -0.0244 -1.6714
v 0.4315 -0.0867 -1.6714
v 0.3071 -0.1001 -1.6714
v 0.1485 -0.1072 -1.6714
v 0.0000 -0.1159 -1.6714
v -0.1485 -0.1072 -1.6714
v -0.3071 -0.1001 -1.6714
v -0.4315 -0.0867 -1.6714
v -0.4645 -0.0244 -1.6714
v -0.4617 0.0556 -1.6714
v -0.4268 0.1318 -1.6714
v -0.3236 0.1408 -1.6714
v -0.1669 0.1446 -1.6714
v 0.0000 0.1551 -1.5571
v 0.1726 0.1459 -1.5571
v 0.3347 0.1421 -1.5571
v 0.4415 0.1331 -1.5571
v 0.4775 0.0561 -1.5571
v 0.4804 -0.0248 -1.5571
v 0.4463 -0.0878 -1.5571
v 0.3176 -0.1014 -1.5571
v 0.1536 -0.1086 -1.5571
v -0.0000 -0.1173 -1.5571
v -0.1536 -0.1086 -1.5571
v -0.3176 -0.1014 -1.5571
v -0.4463 -0.0878 -1.5571
v -0.4804 -0.0248 -1.5571
v -0.4775 0.0561 -1.5571
v -0.4415 0.1331 -1.5571
v -0.3347 0.1421 -1.5571
v -0.1726 0.1459 -1.5571
v 0.0000 0.1565 -1.4429
v 0.1780 0.1472 -1.4429
v 0.3452 0.1436 -1.4429
v 0.4554 0.1345 -1.4429
v 0.4926 0.0566 -1.4429
v 0.4956 -0.0252 -1.4429
v 0.4604 -0.0889 -1.4429
v 0.3276 -0.1027 -1.4429
v 0.1584 -0.1099 -1.4429
v 0.0000 -0.1186 -1.4429
v -0.1584 -0.1099 -1.4429
v -0.3276 -0.1027 -1.4429
v -0.4604 -0.0889 -1.4429
v -0.4956 -0.0252 -1.4429
v -0.4926 0.0566 -1.4429
v -0.4554 0.1345 -1.4429
v -0.3452 0.1436 -1.4429
v -0.1780 0.1472 -1.4429
v 0.0000 0.1579 -1.3286
v 0.1826 0.1486 -1.3286
v 0.3541 0.1450 -1.3286
v 0.4671 0.1359 -1.3286
v 0.5052 0.0572 -1.3286
v 0.5082 -0.0256 -1.3286
v 0.4721 -0.0899 -1.3286
v 0.3360 -0.1038 -1.3286
v 0.1625 -0.1111 -1.3286
v 0.0000 -0.1197 -1.3286
v -0.1625 -0.1111 -1.3286
v -0.3360 -0.1038 -1.3286
v -0.4721 -0.0899 -1.3286
v -0.5082 -0.0256 -1.3286
v -0.5052 0.0572 -1.3286
v -0.4671 0.1359 -1.3286
v -0.3541 0.1450 -1.3286
v -0.1826 0.1486 -1.3286
v 0.0000 0.1593 -1.2143
v 0.1868 0.1501 -1.2143
v 0.3622 0.1465 -1.2143
v 0.4778 0.1373 -1.2143
v 0.5168 0.0577 -1.2143
v 0.5199 -0.0259 -1.2143
v 0.4830 -0.0909 -1.2143
v 0.3437 -0.1051 -1.2143
v 0.1662 -0.1123 -1.2143
v 0.0000 -0.1210 -1.2143
v -0.1662 -0.1123 -1.2143
v -0.3437 -0.1051 -1.2143
v -0.4830 -0.0909 -1.2143
v -0.5199 -0.0259 -1.2143
v -0.5168 0.0577 -1.2143
v -0.4778 0.1373 -1.2143
v -0.3622 0.1465 -1.2143
v -0.1868 0.1501 -1.2143
v 0.0000 0.1609 -1.1000
v 0.1908 0.1516 -1.1000
v 0.3700 0.1481 -1.1000
v 0.4880 0.1389 -1.1000
v 0.5279 0.0584 -1.1000
v 0.5311 -0.0262 -1.1000
v 0.4933 -0.0920 -1.1000
v 0.3511 -0.1063 -1.1000
v 0.1698 -0.1136 -1.1000
v 0.0000 -0.1222 -1.1000
v -0.1698 -0.1136 -1.1000
v -0.3511 -0.1063 -1.1000
v -0.4933 -0.0920 -1.1000
v -0.5311 -0.0262 -1.1000
v -0.5279 0.0584 -1.1000
v -0.4880 0.1389 -1.1000
v -0.3700 0.1481 -1.1000
v -0.1908 0.1516 -1.1000
v 0.0000 0.1626 -0.9857
v 0.1948 0.1533 -0.9857
v 0.3777 0.1499 -0.9857
v 0.4982 0.1406 -0.9857
v 0.5389 0.0592 -0.9857
v 0.5422 -0.0264 -0.9857
v 0.5036 -0.0929 -0.9857
v 0.3584 -0.1074 -0.9857
v 0.1733 -0.1147 -0.9857
v -0.0000 -0.1233 -0.9857
v -0.1733 -0.1147 -0.9857
v -0.3584 -0.1074 -0.9857
v -0.5036 -0.0929 -0.9857
v -0.5422 -0.0264 -0.9857
v -0.5389 0.0592 -0.9857
v -0.4982 0.1406 -0.9857
v -0.3777 0.1499 -0.9857
v -0.1948 0.1533 -0.9857
v 0.0000 0.1645 -0.8714
v 0.1988 0.1552 -0.8714
v 0.3856 0.1518 -0.8714
v 0.5087 0.1425 -0.8714
v 0.5502 0.0602 -0.8714
v 0.5535 -0.0264 -0.8714
v 0.5142 -0.0937 -0.8714
v 0.3659 -0.1083 -0.8714
v 0.1769 -0.1156 -0.8714
v 0.0000 -0.1242 -0.8714
v -0.1769 -0.1156 -0.8714
v -0.3659 -0.1083 -0.8714
v -0.5142 -0.0937 -0.8714
v -0.5535 -0.0264 -0.8714
v -0.5502 0.0602 -0.8714
v -0.5087 0.1425 -0.8714
v -0.3856 0.1518 -0.8714
v -0.1988 0.1552 -0.8714
v 0.0000 0.1666 -0.7571
v 0.2032 0.1573 -0.7571
v 0.3941 0.1539 -0.7571
v 0.5199 0.1446 -0.7571
v 0.5624 0.0613 -0.7571
v 0.5658 -0.0262 -0.7571
v 0.5256 -0.0943 -0.7571
v 0.3741 -0.1090 -0.7571
v 0.1809 -0.1163 -0.7571
v 0.0000 -0.1249 -0.7571
v -0.1809 -0.1163 -0.7571
v -0.3741 -0.1090 -0.7571
v -0.5256 -0.0943 -0.7571
v -0.5658 -0.0262 -0.7571
v -0.5624 0.0613 -0.7571
v -0.5199 0.1446 -0.7571
v -0.3941 0.1539 -0.7571
v -0.2032 0.1573 -0.7571
v 0.0000 0.1688 -0.6429
v 0.2077 0.1595 -0.6429
v 0.4029 0.1562 -0.6429
v 0.5314 0.1468 -0.6429
v 0.5749 0.0626 -0.6429
v 0.5783 -0.0260 -0.6429
v 0.5372 -0.0947 -0.6429
v 0.3823 -0.1096 -0.6429
v 0.1848 -0.1169 -0.6429
v -0.0000 -0.1255 -0.6429
v -0.1848 -0.1169 -0.6429
v -0.3823 -0.1096 -0.6429
v -0.5372 -0.0947 -0.6429
v -0.5783 -0.0260 -0.6429
v -0.5749 0.0626 -0.6429
v -0.5314 0.1468 -0.6429
v -0.4029 0.1562 -0.6429
v -0.2077 0.1595 -0.6429
v 0.0000 0.1711 -0.5286
v 0.2119 0.1619 -0.5286
v 0.4110 0.1586 -0.5286
v 0.5421 0.1491 -0.5286
v 0.5864 0.0640 -0.5286
v 0.5899 -0.0255 -0.5286
v 0.5480 -0.0951 -0.5286
v 0.3900 -0.1100 -0.5286
v 0.1886 -0.1172 -0.5286
v 0.0000 -0.1258 -0.5286
v -0.1886 -0.1172 -0.5286
v -0.3900 -0.1100 -0.5286
v -0.5480 -0.0951 -0.5286
v -0.5899 -0.0255 -0.5286
v -0.5864 0.0640 -0.5286
v -0.5421 0.1491 -0.5286
v -0.4110 0.1586 -0.5286
v -0.2119 0.1619 -0.5286
v 0.0000 0.1737 -0.4143
v 0.2154 0.1644 -0.4143
v 0.4177 0.1612 -0.4143
v 0.5511 0.1517 -0.4143
v 0.5961 0.0656 -0.4143
v 0.5996 -0.0249 -0.4143
v 0.5570 -0.0952 -0.4143
v 0.3964 -0.1102 -0.4143
v 0.1917 -0.1174 -0.4143
v -0.0000 -0.1260 -0.4143
v -0.1917 -0.1174 -0.4143
v -0.3964 -0.1102 -0.4143
v -0.5570 -0.0952 -0.4143
v -0.5996 -0.0249 -0.4143
v -0.5961 0.0656 -0.4143
v -0.5511 0.1517 -0.4143
v -0.4177 0.1612 -0.4143
v -0.2154 0.1644 -0.4143
v 0.0000 0.1764 -0.3000
v 0.2181 0.1671 -0.3000
v 0.4230 0.1640 -0.3000
v 0.5580 0.1544 -0.3000
v 0.6036 0.0673 -0.3000
v 0.6072 -0.0242 -0.3000
v 0.5641 -0.0952 -0.3000
v 0.4015 -0.1102 -0.3000
v 0.1941 -0.1174 -0.3000
v 0.0000 -0.1260 -0.3000
v -0.1941 -0.1174 -0.3000
v -0.4015 -0.1102 -0.3000
v -0.5641 -0.0952 -0.3000
v -0.6072 -0.0242 -0.3000
v -0.6036 0.0673 -0.3000
v -0.5580 0.1544 -0.3000
v -0.4230 0.1640 -0.3000
v -0.2181 0.1671 -0.3000
v 0.0000 0.1793 -0.1857
v 0.2204 0.1700 -0.1857
v 0.4274 0.1669 -0.1857
v 0.5637 0.1573 -0.1857
v 0.6098 0.0692 -0.1857
v 0.6135 -0.0233 -0.1857
v 0.5699 -0.0951 -0.1857
v 0.4056 -0.1101 -0.1857
v 0.1961 -0.1172 -0.1857
v -0.0000 -0.1258 -0.1857
v -0.1961 -0.1172 -0.1857
v -0.4056 -0.1101 -0.1857
v -0.5699 -0.0951 -0.1857
v -0.6135 -0.0233 -0.1857
v -0.6098 0.0692 -0.1857
v -0.5637 0.1573 -0.1857
v -0.4274 0.1669 -0.1857
v -0.2204 0.1700 -0.1857
v 0.0000 0.1823 -0.0714
v 0.2220 0.1730 -0.0714
v 0.4305 0.1700 -0.0714
v 0.5679 0.1603 -0.0714
v 0.6143 0.0713 -0.0714
v 0.6179 -0.0222 -0.0714
v 0.5741 -0.0947 -0.0714
v 0.4085 -0.1098 -0.0714
v 0.1975 -0.1168 -0.0714
v 0.0000 -0.1254 -0.0714
v -0.1975 -0.1168 -0.0714
v -0.4085 -0.1098 -0.0714
v -0.5741 -0.0947 -0.0714
v -0.6179 -0.0222 -0.0714
v -0.6143 0.0713 -0.0714
v -0.5679 0.1603 -0.0714
v -0.4305 0.1700 -0.0714
v -0.2220 0.1730 -0.0714
v 0.0000 0.1854 0.0429
v 0.2229 0.1761 0.0429
v 0.4322 0.1732 0.0429
v 0.5701 0.1634 0.0429
v 0.6167 0.0736 0.0429
v 0.6204 -0.0209 0.0429
v 0.5763 -0.0940 0.0429
v 0.4101 -0.1090 0.0429
v 0.1983 -0.1160 0.0429
v -0.0000 -0.1246 0.0429
v -0.1983 -0.1160 0.0429
v -0.4101 -0.1090 0.0429
v -0.5763 -0.0940 0.0429
v -0.6204 -0.0209 0.0429
v -0.6167 0.0736 0.0429
v -0.5701 0.1634 0.0429
v -0.4322 0.1732 0.0429
v -0.2229 0.1761 0.0429
v 0.0000 0.1886 0.1571
v 0.2229 0.1793 0.1571
v 0.4323 0.1764 0.1571
v 0.5703 0.1666 0.1571
v 0.6169 0.0760 0.1571
v 0.6205 -0.0192 0.1571
v 0.5765 -0.0929 0.1571
v 0.4103 -0.1078 0.1571
v 0.1984 -0.1146 0.1571
v 0.0000 -0.1233 0.1571
v -0.1984 -0.1146 0.1571
v -0.4103 -0.1078 0.1571
v -0.5765 -0.0929 0.1571
v -0.6205 -0.0192 0.1571
v -0.6169 0.0760 0.1571
v -0.5703 0.1666 0.1571
v -0.4323 0.1764 0.1571
v -0.2229 0.1793 0.1571
v 0.0000 0.1919 0.2714
v 0.2224 0.1826 0.2714
v 0.4313 0.1797 0.2714
v 0.5689 0.1699 0.2714
v 0.6154 0.0786 0.2714
v 0.6191 -0.0173 0.2714
v 0.5751 -0.0914 0.2714
v 0.4093 -0.1062 0.2714
v 0.1979 -0.1129 0.2714
v 0.0000 -0.1215 0.2714
v -0.1979 -0.1129 0.2714
v -0.4093 -0.1062 0.2714
v -0.5751 -0.0914 0.2714
v -0.6191 -0.0173 0.2714
v -0.6154 0.0786 0.2714
v -0.5689 0.1699 0.2714
v -0.4313 0.1797 0.2714
v -0.2224 0.1826 0.2714
v 0.0000 0.1953 0.3857
v 0.2211 0.1860 0.3857
v 0.4288 0.1831 0.3857
v 0.5657 0.1733 0.3857
v 0.6119 0.0814 0.3857
v 0.6156 -0.0150 0.3857
v 0.5718 -0.0896 0.3857
v 0.4070 -0.1041 0.3857
v 0.1968 -0.1107 0.3857
v 0.0000 -0.1194 0.3857
v -0.1968 -0.1107 0.3857
v -0.4070 -0.1041 0.3857
v -0.5718 -0.0896 0.3857
v -0.6156 -0.0150 0.3857
v -0.6119 0.0814 0.3857
v -0.5657 0.1733 0.3857
v -0.4288 0.1831 0.3857
v -0.2211 0.1860 0.3857
v 0.0000 0.1988 0.5000
v 0.2188 0.1895 0.5000
v 0.4244 0.1867 0.5000
v 0.5598 0.1768 0.5000
v 0.6056 0.0845 0.5000
v 0.6092 -0.0125 0.5000
v 0.5659 -0.0874 0.5000
v 0.4027 -0.1016 0.5000
v 0.1947 -0.1081 0.5000
v -0.0000 -0.1168 0.5000
v -0.1947 -0.1081 0.5000
v -0.4027 -0.1016 0.5000
v -0.5659 -0.0874 0.5000
v -0.6092 -0.0125 0.5000
v -0.6056 0.0845 0.5000
v -0.5598 0.1768 0.5000
v -0.4244 0.1867 0.5000
v -0.2188 0.1895 0.5000
v 0.0000 0.2025 0.6143
v 0.2153 0.1932 0.6143
v 0.4174 0.1904 0.6143
v 0.5507 0.1805 0.6143
v 0.5957 0.0878 0.6143
v 0.5992 -0.0096 0.6143
v 0.5567 -0.0846 0.6143
v 0.3962 -0.0986 0.6143
v 0.1915 -0.1048 0.6143
v 0.0000 -0.1136 0.6143
v -0.1915 -0.1048 0.6143
v -0.3962 -0.0986 0.6143
v -0.5567 -0.0846 0.6143
v -0.5992 -0.0096 0.6143
v -0.5957 0.0878 0.6143
v -0.5507 0.1805 0.6143
v -0.4174 0.1904 0.6143
v -0.2153 0.1932 0.6143
v 0.0000 0.2064 0.7286
v 0.2108 0.1972 0.7286
v 0.4088 0.1944 0.7286
v 0.5393 0.1844 0.7286
v 0.5833 0.0913 0.7286
v 0.5868 -0.0064 0.7286
v 0.5451 -0.0816 0.7286
v 0.3879 -0.0952 0.7286
v 0.1876 -0.1013 0.7286
v -0.0000 -0.1101 0.7286
v -0.1876 -0.1013 0.7286
v -0.3879 -0.0952 0.7286
v -0.5451 -0.0816 0.7286
v -0.5868 -0.0064 0.7286
v -0.5833 0.0913 0.7286
v -0.5393 0.1844 0.7286
v -0.4088 0.1944 0.7286
v -0.2108 0.1972 0.7286
v 0.0000 0.2106 0.8429
v 0.2054 0.2014 0.8429
v 0.3983 0.1986 0.8429
v 0.5254 0.1886 0.8429
v 0.5683 0.0952 0.8429
v 0.5717 -0.0029 0.8429
v 0.5311 -0.0783 0.8429
v 0.3780 -0.0915 0.8429
v 0.1827 -0.0973 0.8429
v 0.0000 -0.1061 0.8429
v -0.1827 -0.0973 0.8429
v -0.3780 -0.0915 0.8429
v -0.5311 -0.0783 0.8429
v -0.5717 -0.0029 0.8429
v -0.5683 0.0952 0.8429
v -0.5254 0.1886 0.8429
v -0.3983 0.1986 0.8429
v -0.2054 0.2014 0.8429
v 0.0000 0.2148 0.9571
v 0.1985 0.2056 0.9571
v 0.3849 0.2028 0.9571
v 0.5077 0.1928 0.9571
v 0.5492 0.0992 0.9571
v 0.5525 0.0011 0.9571
v 0.5133 -0.0743 0.9571
v 0.3653 -0.0870 0.9571
v 0.1766 -0.0926 0.9571
v 0.0000 -0.1015 0.9571
v -0.1766 -0.0926 0.9571
v -0.3653 -0.0870 0.9571
v -0.5133 -0.0743 0.9571
v -0.5525 0.0011 0.9571
v -0.5492 0.0992 0.9571
v -0.5077 0.1928 0.9571
v -0.3849 0.2028 0.9571
v -0.1985 0.2056 0.9571
v 0.0000 0.2190 1.0714
v 0.1896 0.2097 1.0714
v 0.3677 0.2070 1.0714
v 0.4850 0.1970 1.0714
v 0.5247 0.1036 1.0714
v 0.5278 0.0057 1.0714
v 0.4903 -0.0694 1.0714
v 0.3489 -0.0815 1.0714
v 0.1687 -0.0867 1.0714
v 0.0000 -0.0957 1.0714
v -0.1687 -0.0867 1.0714
v -0.3489 -0.0815 1.0714
v -0.4903 -0.0694 1.0714
v -0.5278 0.0057 1.0714
v -0.5247 0.1036 1.0714
v -0.4850 0.1970 1.0714
v -0.3677 0.2070 1.0714
v -0.1896 0.2097 1.0714
v 0.0000 0.2230 1.1857
v 0.1785 0.2138 1.1857
v 0.3461 0.2110 1.1857
v 0.4565 0.2010 1.1857
v 0.4939 0.1079 1.1857
v 0.4968 0.0104 1.1857
v 0.4615 -0.0642 1.1857
v 0.3284 -0.0756 1.1857
v 0.1588 -0.0805 1.1857
v -0.0000 -0.0895 1.1857
v -0.1588 -0.0805 1.1857
v -0.3284 -0.0756 1.1857
v -0.4615 -0.0642 1.1857
v -0.4968 0.0104 1.1857
v -0.4939 0.1079 1.1857
v -0.4565 0.2010 1.1857
v -0.3461 0.2110 1.1857
v -0.1785 0.2138 1.1857
v 0.0000 0.2271 1.3000
v 0.1654 0.2178 1.3000
v 0.3208 0.2150 1.3000
v 0.4232 0.2051 1.3000
v 0.4578 0.1121 1.3000
v 0.4605 0.0147 1.3000
v 0.4278 -0.0597 1.3000
v 0.3045 -0.0705 1.3000
v 0.1472 -0.0752 1.3000
v 0.0000 -0.0842 1.3000
v -0.1472 -0.0752 1.3000
v -0.3045 -0.0705 1.3000
v -0.4278 -0.0597 1.3000
v -0.4605 0.0147 1.3000
v -0.4578 0.1121 1.3000
v -0.4232 0.2051 1.3000
v -0.3208 0.2150 1.3000
v -0.1654 0.2178 1.3000
v 0.0000 0.2310 1.4143
v 0.1505 0.2218 1.4143
v 0.2919 0.2189 1.4143
v 0.3850 0.2090 1.4143
v 0.4165 0.1167 1.4143
v 0.4190 0.0201 1.4143
v 0.3892 -0.0536 1.4143
v 0.2770 -0.0636 1.4143
v 0.1339 -0.0679 1.4143
v 0.0000 -0.0771 1.4143
v -0.1339 -0.0679 1.4143
v -0.2770 -0.0636 1.4143
v -0.3892 -0.0536 1.4143
v -0.4190 0.0201 1.4143
v -0.4165 0.1167 1.4143
v -0.3850 0.2090 1.4143
v -0.2919 0.2189 1.4143
v -0.1505 0.2218 1.4143
v 0.0000 0.2348 1.5286
v 0.1337 0.2255 1.5286
v 0.2593 0.2226 1.5286
v 0.3421 0.2128 1.5286
v 0.3700 0.1226 1.5286
v 0.3722 0.0282 1.5286
v 0.3458 -0.0435 1.5286
v 0.2461 -0.0521 1.5286
v 0.1190 -0.0559 1.5286
v 0.0000 -0.0651 1.5286
v -0.1190 -0.0559 1.5286
v -0.2461 -0.0521 1.5286
v -0.3458 -0.0435 1.5286
v -0.3722 0.0282 1.5286
v -0.3700 0.1226 1.5286
v -0.3421 0.2128 1.5286
v -0.2593 0.2226 1.5286
v -0.1337 0.2255 1.5286
v 0.0000 0.2383 1.6429
v 0.1146 0.2290 1.6429
v 0.2222 0.2258 1.6429
v 0.2932 0.2163 1.6429
v 0.3171 0.1306 1.6429
v 0.3190 0.0411 1.6429
v 0.2963 -0.0264 1.6429
v 0.2109 -0.0328 1.6429
v 0.1020 -0.0356 1.6429
v 0.0000 -0.0451 1.6429
v -0.1020 -0.0356 1.6429
v -0.2109 -0.0328 1.6429
v -0.2963 -0.0264 1.6429
v -0.3190 0.0411 1.6429
v -0.3171 0.1306 1.6429
v -0.2932 0.2163 1.6429
v -0.2222 0.2258 1.6429
v -0.1146 0.2290 1.6429
v 0.0000 0.2418 1.7571
v 0.0899 0.2326 1.7571
v 0.1743 0.2289 1.7571
v 0.2299 0.2198 1.7571
v 0.2487 0.1421 1.7571
v 0.2502 0.0615 1.7571
v 0.2324 0.0014 1.7571
v 0.1654 -0.0012 1.7571
v 0.0800 -0.0028 1.7571
v 0.0000 -0.0126 1.7571
v -0.0800 -0.0028 1.7571
v -0.1654 -0.0012 1.7571
v -0.2324 0.0014 1.7571
v -0.2502 0.0615 1.7571
v -0.2487 0.1421 1.7571
v -0.2299 0.2198 1.7571
v -0.1743 0.2289 1.7571
v -0.0899 0.2326 1.7571
v 0.0000 0.2452 1.8714
v 0.0629 0.2359 1.8714
v 0.1219 0.2316 1.8714
v 0.1608 0.2232 1.8714
v 0.1740 0.1549 1.8714
v 0.1750 0.0873 1.8714
v 0.1626 0.0398 1.8714
v 0.1157 0.0379 1.8714
v 0.0559 0.0356 1.8714
v -0.0000 0.0258 1.8714
v -0.0559 0.0356 1.8714
v -0.1157 0.0379 1.8714
v -0.1626 0.0398 1.8714
v -0.1750 0.0873 1.8714
v -0.1740 0.1549 1.8714
v -0.1608 0.2232 1.8714
v -0.1219 0.2316 1.8714
v -0.0629 0.2359 1.8714
v 0.0000 0.2480 1.9857
v 0.0385 0.2387 1.9857
v 0.0746 0.2339 1.9857
v 0.0984 0.2260 1.9857
v 0.1065 0.1666 1.9857
v 0.1071 0.1112 1.9857
v 0.0995 0.0755 1.9857
v 0.0708 0.0743 1.9857
v 0.0342 0.0714 1.9857
v 0.0000 0.0615 1.9857
v -0.0342 0.0714 1.9857
v -0.0708 0.0743 1.9857
v -0.0995 0.0755 1.9857
v -0.1071 0.1112 1.9857
v -0.1065 0.1666 1.9857
v -0.0984 0.2260 1.9857
v -0.0746 0.2339 1.9857
v -0.0385 0.2387 1.9857
v 0.0000 0.2500 2.1000
v 0.0216 0.2407 2.1000
v 0.0418 0.2356 2.1000
v 0.0552 0.2280 2.1000
v 0.0597 0.1747 2.1000
v 0.0601 0.1275 2.1000
v 0.0558 0.1000 2.1000
v 0.0397 0.0993 2.1000
v 0.0192 0.0959 2.1000
v 0.0000 0.0860 2.1000
v -0.0192 0.0959 2.1000
v -0.0397 0.0993 2.1000
v -0.0558 0.1000 2.1000
v -0.0601 0.1275 2.1000
v -0.0597 0.1747 2.1000
v -0.0552 0.2280 2.1000
v -0.0418 0.2356 2.1000
v -0.0216 0.2407 2.1000
v 0.0000 0.0150 -1.9000
v 0.0000 0.2200 2.2000
v 0.3000 0.1350 0.0500
v 0.2703 0.1350 0.3711
v 0.1870 0.1350 0.6286
v 0.0668 0.1350 0.7714
v -0.0668 0.1350 0.7714
v -0.1870 0.1350 0.6286
v -0.2703 0.1350 0.3711
v -0.3000 0.1350 0.0500
v -0.2703 0.1350 -0.2711
v -0.1870 0.1350 -0.5286
v -0.0668 0.1350 -0.6714
v 0.0668 0.1350 -0.6714
v 0.1870 0.1350 -0.5286
v 0.2703 0.1350 -0.2711
v 0.2925 0.1762 0.0500
v 0.2635 0.1762 0.3630
v 0.1824 0.1762 0.6140
v 0.0651 0.1762 0.7534
v -0.0651 0.1762 0.7534
v -0.1824 0.1762 0.6140
v -0.2635 0.1762 0.3630
v -0.2925 0.1762 0.0500
v -0.2635 0.1762 -0.2630
v -0.1824 0.1762 -0.5140
v -0.0651 0.1762 -0.6534
v 0.0651 0.1762 -0.6534
v 0.1824 0.1762 -0.5140
v 0.2635 0.1762 -0.2630
v 0.2703 0.2153 0.0500
v 0.2435 0.2153 0.3393
v 0.1685 0.2153 0.5713
v 0.0601 0.2153 0.7000
v -0.0601 0.2153 0.7000
v -0.1685 0.2153 0.5713
v -0.2435 0.2153 0.3393
v -0.2703 0.2153 0.0500
v -0.2435 0.2153 -0.2393
v -0.1685 0.2153 -0.4713
v -0.0601 0.2153 -0.6000
v 0.0601 0.2153 -0.6000
v 0.1685 0.2153 -0.4713
v 0.2435 0.2153 -0.2393
v 0.2345 0.2503 0.0500
v 0.2113 0.2503 0.3010
v 0.1462 0.2503 0.5023
v 0.0522 0.2503 0.6140
v -0.0522 0.2503 0.6140
v -0.1462 0.2503 0.5023
v -0.2113 0.2503 0.3010
v -0.2345 0.2503 0.0500
v -0.2113 0.2503 -0.2010
v -0.1462 0.2503 -0.4023
v -0.0522 0.2503 -0.5140
v 0.0522 0.2503 -0.5140
v 0.1462 0.2503 -0.4023
v 0.2113 0.2503 -0.2010
v 0.1870 0.2796 0.0500
v 0.1685 0.2796 0.2502
v 0.1166 0.2796 0.4107
v 0.0416 0.2796 0.4998
v -0.0416 0.2796 0.4998
v -0.1166 0.2796 0.4107
v -0.1685 0.2796 0.2502
v -0.1870 0.2796 0.0500
v -0.1685 0.2796 -0.1502
v -0.1166 0.2796 -0.3107
v -0.0416 0.2796 -0.3998
v 0.0416 0.2796 -0.3998
v 0.1166 0.2796 -0.3107
v 0.1685 0.2796 -0.1502
v 0.1302 0.3017 0.0500
v 0.1173 0.3017 0.1893
v 0.0812 0.3017 0.3010
v 0.0290 0.3017 0.3630
v -0.0290 0.3017 0.3630
v -0.0812 0.3017 0.3010
v -0.1173 0.3017 0.1893
v -0.1302 0.3017 0.0500
v -0.1173 0.3017 -0.0893
v -0.0812 0.3017 -0.2010
v -0.0290 0.3017 -0.2630
v 0.0290 0.3017 -0.2630
v 0.0812 0.3017 -0.2010
v 0.1173 0.3017 -0.0893
v 0.0668 0.3154 0.0500
v 0.0601 0.3154 0.1214
v 0.0416 0.3154 0.1787
v 0.0149 0.3154 0.2105
v -0.0149 0.3154 0.2105
v -0.0416 0.3154 0.1787
v -0.0601 0.3154 0.1214
v -0.0668 0.3154 0.0500
v -0.0601 0.3154 -0.0214
v -0.0416 0.3154 -0.0787
v -0.0149 0.3154 -0.1105
v 0.0149 0.3154 -0.1105
v 0.0416 0.3154 -0.0787
v 0.0601 0.3154 -0.0214
v 0.0000 0.3200 0.0500
v 0.0000 0.3200 0.0500
v 0.0000 0.3200 0.0500
v 0.0000 0.3200 0.0500
v -0.0000 0.3200 0.0500
v -0.0000 0.3200 0.0500
v -0.0000 0.3200 0.0500
v -0.0000 0.3200 0.0500
v -0.0000 0.3200 0.0500
v -0.0000 0.3200 0.0500
v -0.0000 0.3200 0.0500
v 0.0000 0.3200 0.0500
v 0.0000 0.3200 0.0500
v 0.0000 0.3200 0.0500
v -0.1500 0.0750 -1.9500
v 0.1500 0.0750 -1.9500
v -0.1500 0.3950 -1.9500
v 0.1500 0.3950 -1.9500
v -0.1500 0.0750 -1.6100
v 0.1500 0.0750 -1.6100
v -0.1500 0.3950 -1.6100
v 0.1500 0.3950 -1.6100
v -0.1200 0.3800 -1.9200
v 0.1200 0.3800 -1.9200
v -0.1200 0.4600 -1.9200
v 0.1200 0.4600 -1.9200
v -0.1200 0.3800 -1.6400
v 0.1200 0.3800 -1.6400
v -0.1200 0.4600 -1.6400
v 0.1200 0.4600 -1.6400
v -0.0350 -0.1800 -2.0350
v 0.0350 -0.1800 -2.0350
v -0.0350 0.2000 -2.0350
v 0.0350 0.2000 -2.0350
v -0.0350 -0.1800 -1.9450
v 0.0350 -0.1800 -1.9450
v -0.0350 0.2000 -1.9450
v 0.0350 0.2000 -1.9450
v -0.1300 -0.1575 -2.0250
v 0.1300 -0.1575 -2.0250
v -0.1300 -0.1225 -2.0250
v 0.1300 -0.1225 -2.0250
v -0.1300 -0.1575 -1.9750
v 0.1300 -0.1575 -1.9750
v -0.1300 -0.1225 -1.9750
v 0.1300 -0.1225 -1.9750
v -0.0110 0.4500 -1.7400
v 0.0110 0.4500 -1.7400
v -0.0110 0.5500 -1.7400
v 0.0110 0.5500 -1.7400
v -0.0110 0.4500 -1.5000
v 0.0110 0.4500 -1.5000
v -0.0110 0.5500 -1.5000
v 0.0110 0.5500 -1.5000
v -0.2765 0.1800 1.0935
v -0.2635 0.1800 1.0935
v -0.2765 0.3800 1.0935
v -0.2635 0.3800 1.0935
v -0.2765 0.1800 1.1065
v -0.2635 0.1800 1.1065
v -0.2765 0.3800 1.1065
v -0.2635 0.3800 1.1065
v -0.2750 0.3375 0.9450
v -0.2650 0.3375 0.9450
v -0.2750 0.4125 0.9450
v -0.2650 0.4125 0.9450
v -0.2750 0.3375 1.0950
v -0.2650 0.3375 1.0950
v -0.2750 0.4125 1.0950
v -0.2650 0.4125 1.0950
usemtl hull
f 4 23 5
f 4 22 23
f 5 24 6
f 5 23 24
f 6 25 7
f 6 24 25
f 7 26 8
f 7 25 26
f 8 27 9
f 8 26 27
f 9 28 10
f 9 27 28
f 10 29 11
f 10 28 29
f 11 30 12
f 11 29 30
f 12 31 13
f 12 30 31
f 13 32 14
f 13 31 32
f 14 33 15
f 14 32 33
f 15 34 16
f 15 33 34
f 16 35 17
f 16 34 35
f 22 41 23
f 22 40 41
f 23 42 24
f 23 41 42
f 24 43 25
f 24 42 43
f 25 44 26
f 25 43 44
f 26 45 27
f 26 44 45
f 27 46 28
f 27 45 46
f 28 47 29
f 28 46 47
f 29 48 30
f 29 47 48
f 30 49 31
f 30 48 49
f 31 50 32
f 31 49 50
f 32 51 33
f 32 50 51
f 33 52 34
f 33 51 52
f 34 53 35
f 34 52 53
f 40 59 41
f 40 58 59
f 41 60 42
f 41 59 60
f 42 61 43
f 42 60 61
f 43 62 44
f 43 61 62
f 44 63 45
f 44 62 63
f 45 64 46
f 45 63 64
f 46 65 47
f 46 64 65
f 47 66 48
f 47 65 66
f 48 67 49
f 48 66 67
f 49 68 50
f 49 67 68
f 50 69 51
f 50 68 69
f 51 70 52
f 51 69 70
f 52 71 53
f 52 70 71
f 58 77 59
f 58 76 77
f 59 78 60
f 59 77 78
f 60 79 61
f 60 78 79
f 61 80 62
f 61 79 80
f 62 81 63
f 62 80 81
f 63 82 64
f 63 81 82
f 64 83 65
f 64 82 83
f 65 84 66
f 65 83 84
f 66 85 67
f 66 84 85
f 67 86 68
f 67 85 86
f 68 87 69
f 68 86 87
f 69 88 70
f 69 87 88
f 70 89 71
f 70 88 89
f 76 95 77
f 76 94 95
f 77 96 78
f 77 95 96
f 78 97 79
f 78 96 97
f 79 98 80
f 79 97 98
f 80 99 81
f 80 98 99
f 81 100 82
f 81 99 100
f 82 101 83
f 82 100 101
f 83 102 84
f 83 101 102
f 84 103 85
f 84 102 103
f 85 104 86
f 85 103 104
f 86 105 87
f 86 104 105
f 87 106 88
f 87 105 106
f 88 107 89
f 88 106 107
f 94 113 95
f 94 112 113
f 95 114 96
f 95 113 114
f 96 115 97
f 96 114 115
f 97 116 98
f 97 115 116
f 98 117 99
f 98 116 117
f 99 118 100
f 99 117 118
f 100 119 101
f 100 118 119
f 101 120 102
f 101 119 120
f 102 121 103
f 102 120 121
f 103 122 104
f 103 121 122
f 104 123 105
f 104 122 123
f 105 124 106
f 105 123 124
f 106 125 107
f 106 124 125
f 112 131 113
f 112 130 131
f 113 132 114
f 113 131 132
f 114 133 115
f 114 132 133
f 115 134 116
f 115 133 134
f 116 135 117
f 116 134 135
f 117 136 118
f 117 135 136
f 118 137 119
f 118 136 137
f 119 138 120
f 119 137 138
f 120 139 121
f 120 138 139
f 121 140 122
f 121 139 140
f 122 141 123
f 122 140 141
f 123 142 124
f 123 141 142
f 124 143 125
f 124 142 143
f 130 149 131
f 130 148 149
f 131 150 132
f 131 149 150
f 132 151 133
f 132 150 151
f 133 152 134
f 133 151 152
f 134 153 135
f 134 152 153
f 135 154 136
f 135 153 154
f 136 155 137
f 136 154 155
f 137 156 138
f 137 155 156
f 138 157 139
f 138 156 157
f 139 158 140
f 139 157 158
f 140 159 141
f 140 158 159
f 141 160 142
f 141 159 160
f 142 161 143
f 142 160 161
f 148 167 149
f 148 166 167
f 149 168 150
f 149 167 168
f 150 169 151
f 150 168 169
f 151 170 152
f 151 169 170
f 152 171 153
f 152 170 171
f 153 172 154
f 153 171 172
f 154 173 155
f 154 172 173
f 155 174 156
f 155 173 174
f 156 175 157
f 156 174 175
f 157 176 158
f 157 175 176
f 158 177 159
f 158 176 177
f 159 178 160
f 159 177 178
f 160 179 161
f 160 178 179
f 166 185 167
f 166 184 185
f 167 186 168
f 167 185 186
f 168 187 169
f 168 186 187
f 169 188 170
f 169 187 188
f 170 189 171
f 170 188 189
f 171 190 172
f 171 189 190
f 172 191 173
f 172 190 191
f 173 192 174
f 173 191 192
f 174 193 175
f 174 192 193
f 175 194 176
f 175 193 194
f 176 195 177
f 176 194 195
f 177 196 178
f 177 195 196
f 178 197 179
f 178 196 197
f 184 203 185
f 184 202 203
f 185 204 186
f 185 203 204
f 186 205 187
f 186 204 205
f 187 206 188
f 187 205 206
f 188 207 189
f 188 206 207
f 189 208 190
f 189 207 208
f 190 209 191
f 190 208 209
f 191 210 192
f 191 209 210
f 192 211 193
f 192 210 211
f 193 212 194
f 193 211 212
f 194 213 195
f 194 212 213
f 195 214 196
f 195 213 214
f 196 215 197
f 196 214 215
f 202 221 203
f 202 220 221
f 203 222 204
f 203 221 222
f 204 223 205
f 204 222 223
f 205 224 206
f 205 223 224
f 206 225 207
f 206 224 225
f 207 226 208
f 207 225 226
f 208 227 209
f 208 226 227
f 209 228 210
f 209 227 228
f 210 229 211
f 210 228 229
f 211 230 212
f 211 229 230
f 212 231 213
f 212 230 231
f 213 232 214
f 213 231 232
f 214 233 215
f 214 232 233
f 220 239 221
f 220 238 239
f 221 240 222
f 221 239 240
f 222 241 223
f 222 240 241
f 223 242 224
f 223 241 242
f 224 243 225
f 224 242 243
f 225 244 226
f 225 243 244
f 226 245 227
f 226 244 245
f 227 246 228
f 227 245 246
f 228 247 229
f 228 246 247
f 229 248 230
f 229 247 248
f 230 249 231
f 230 248 249
f 231 250 232
f 231 249 250
f 232 251 233
f 232 250 251
f 238 257 239
f 238 256 257
f 239 258 240
f 239 257 258
f 240 259 241
f 240 258 259
f 241 260 242
f 241 259 260
f 242 261 243
f 242 260 261
f 243 262 244
f 243 261 262
f 244 263 245
f 244 262 263
f 245 264 246
f 245 263 264
f 246 265 247
f 246 264 265
f 247 266 248
f 247 265 266
f 248 267 249
f 248 266 267
f 249 268 250
f 249 267 268
f 250 269 251
f 250 268 269
f 256 275 257
f 256 274 275
f 257 276 258
f 257 275 276
f 258 277 259
f 258 276 277
f 259 278 260
f 259 277 278
f 260 279 261
f 260 278 279
f 261 280 262
f 261 279 280
f 262 281 263
f 262 280 281
f 263 282 264
f 263 281 282
f 264 283 265
f 264 282 283
f 265 284 266
f 265 283 284
f 266 285 267
f 266 284 285
f 267 286 268
f 267 285 286
f 268 287 269
f 268 286 287
f 274 293 275
f 274 292 293
f 275 294 276
f 275 293 294
f 276 295 277
f 276 294 295
f 277 296 278
f 277 295 296
f 278 297 279
f 278 296 297
f 279 298 280
f 279 297 298
f 280 299 281
f 280 298 299
f 281 300 282
f 281 299 300
f 282 301 283
f 282 300 301
f 283 302 284
f 283 301 302
f 284 303 285
f 284 302 303
f 285 304 286
f 285 303 304
f 286 305 287
f 286 304 305
f 292 311 293
f 292 310 311
f 293 312 294
f 293 311 312
f 294 313 295
f 294 312 313
f 295 314 296
f 295 313 314
f 296 315 297
f 296 314 315
f 297 316 298
f 297 315 316
f 298 317 299
f 298 316 317
f 299 318 300
f 299 317 318
f 300 319 301
f 300 318 319
f 301 320 302
f 301 319 320
f 302 321 303
f 302 320 321
f 303 322 304
f 303 321 322
f 304 323 305
f 304 322 323
f 310 329 311
f 310 328 329
f 311 330 312
f 311 329 330
f 312 331 313
f 312 330 331
f 313 332 314
f 313 331 332
f 314 333 315
f 314 332 333
f 315 334 316
f 315 333 334
f 316 335 317
f 316 334 335
f 317 336 318
f 317 335 336
f 318 337 319
f 318 336 337
f 319 338 320
f 319 337 338
f 320 339 321
f 320 338 339
f 321 340 322
f 321 339 340
f 322 341 323
f 322 340 341
f 328 347 329
f 328 346 347
f 329 348 330
f 329 347 348
f 330 349 331
f 330 348 349
f 331 350 332
f 331 349 350
f 332 351 333
f 332 350 351
f 333 352 334
f 333 351 352
f 334 353 335
f 334 352 353
f 335 354 336
f 335 353 354
f 336 355 337
f 336 354 355
f 337 356 338
f 337 355 356
f 338 357 339
f 338 356 357
f 339 358 340
f 339 357 358
f 340 359 341
f 340 358 359
f 346 365 347
f 346 364 365
f 347 366 348
f 347 365 366
f 348 367 349
f 348 366 367
f 349 368 350
f 349 367 368
f 350 369 351
f 350 368 369
f 351 370 352
f 351 369 370
f 352 371 353
f 352 370 371
f 353 372 354
f 353 371 372
f 354 373 355
f 354 372 373
f 355 374 356
f 355 373 374
f 356 375 357
f 356 374 375
f 357 376 358
f 357 375 376
f 358 377 359
f 358 376 377
f 364 383 365
f 364 382 383
f 365 384 366
f 365 383 384
f 366 385 367
f 366 384 385
f 367 386 368
f 367 385 386
f 368 387 369
f 368 386 387
f 369 388 370
f 369 387 388
f 370 389 371
f 370 388 389
f 371 390 372
f 371 389 390
f 372 391 373
f 372 390 391
f 373 392 374
f 373 391 392
f 374 393 375
f 374 392 393
f 375 394 376
f 375 393 394
f 376 395 377
f 376 394 395
f 382 401 383
f 382 400 401
f 383 402 384
f 383 401 402
f 384 403 385
f 384 402 403
f 385 404 386
f 385 403 404
f 386 405 387
f 386 404 405
f 387 406 388
f 387 405 406
f 388 407 389
f 388 406 407
f 389 408 390
f 389 407 408
f 390 409 391
f 390 408 409
f 391 410 392
f 391 409 410
f 392 411 393
f 392 410 411
f 393 412 394
f 393 411 412
f 394 413 395
f 394 412 413
f 400 419 401
f 400 418 419
f 401 420 402
f 401 419 420
f 402 421 403
f 402 420 421
f 403 422 404
f 403 421 422
f 404 423 405
f 404 422 423
f 405 424 406
f 405 423 424
f 406 425 407
f 406 424 425
f 407 426 408
f 407 425 426
f 408 427 409
f 408 426 427
f 409 428 410
f 409 427 428
f 410 429 411
f 410 428 429
f 411 430 412
f 411 429 430
f 412 431 413
f 412 430 431
f 418 437 419
f 418 436 437
f 419 438 420
f 419 437 438
f 420 439 421
f 420 438 439
f 421 440 422
f 421 439 440
f 422 441 423
f 422 440 441
f 423 442 424
f 423 441 442
f 424 443 425
f 424 442 443
f 425 444 426
f 425 443 444
f 426 445 427
f 426 444 445
f 427 446 428
f 427 445 446
f 428 447 429
f 428 446 447
f 429 448 430
f 429 447 448
f 430 449 431
f 430 448 449
f 436 455 437
f 436 454 455
f 437 456 438
f 437 455 456
f 438 457 439
f 438 456 457
f 439 458 440
f 439 457 458
f 440 459 441
f 440 458 459
f 441 460 442
f 441 459 460
f 442 461 443
f 442 460 461
f 443 462 444
f 443 461 462
f 444 463 445
f 444 462 463
f 445 464 446
f 445 463 464
f 446 465 447
f 446 464 465
f 447 466 448
f 447 465 466
f 448 467 449
f 448 466 467
f 454 473 455
f 454 472 473
f 455 474 456
f 455 473 474
f 456 475 457
f 456 474 475
f 457 476 458
f 457 475 476
f 458 477 459
f 458 476 477
f 459 478 460
f 459 477 478
f 460 479 461
f 460 478 479
f 461 480 462
f 461 479 480
f 462 481 463
f 462 480 481
f 463 482 464
f 463 481 482
f 464 483 465
f 464 482 483
f 465 484 466
f 465 483 484
f 466 485 467
f 466 484 485
f 472 491 473
f 472 490 491
f 473 492 474
f 473 491 492
f 474 493 475
f 474 492 493
f 475 494 476
f 475 493 494
f 476 495 477
f 476 494 495
f 477 496 478
f 477 495 496
f 478 497 479
f 478 496 497
f 479 498 480
f 479 497 498
f 480 499 481
f 480 498 499
f 481 500 482
f 481 499 500
f 482 501 483
f 482 500 501
f 483 502 484
f 483 501 502
f 484 503 485
f 484 502 503
f 490 509 491
f 490 508 509
f 491 510 492
f 491 509 510
f 492 511 493
f 492 510 511
f 493 512 494
f 493 511 512
f 494 513 495
f 494 512 513
f 495 514 496
f 495 513 514
f 496 515 497
f 496 514 515
f 497 516 498
f 497 515 516
f 498 517 499
f 498 516 517
f 499 518 500
f 499 517 518
f 500 519 501
f 500 518 519
f 501 520 502
f 501 519 520
f 502 521 503
f 502 520 521
f 508 527 509
f 508 526 527
f 509 528 510
f 509 527 528
f 510 529 511
f 510 528 529
f 511 530 512
f 511 529 530
f 512 531 513
f 512 530 531
f 513 532 514
f 513 531 532
f 514 533 515
f 514 532 533
f 515 534 516
f 515 533 534
f 516 535 517
f 516 534 535
f 517 536 518
f 517 535 536
f 518 537 519
f 518 536 537
f 519 538 520
f 519 537 538
f 520 539 521
f 520 538 539
f 526 545 527
f 526 544 545
f 527 546 528
f 527 545 546
f 528 547 529
f 528 546 547
f 529 548 530
f 529 547 548
f 530 549 531
f 530 548 549
f 531 550 532
f 531 549 550
f 532 551 533
f 532 550 551
f 533 552 534
f 533 551 552
f 534 553 535
f 534 552 553
f 535 554 536
f 535 553 554
f 536 555 537
f 536 554 555
f 537 556 538
f 537 555 556
f 538 557 539
f 538 556 557
f 544 563 545
f 544 562 563
f 545 564 546
f 545 563 564
f 546 565 547
f 546 564 565
f 547 566 548
f 547 565 566
f 548 567 549
f 548 566 567
f 549 568 550
f 549 567 568
f 550 569 551
f 550 568 569
f 551 570 552
f 551 569 570
f 552 571 553
f 552 570 571
f 553 572 554
f 553 571 572
f 554 573 555
f 554 572 573
f 555 574 556
f 555 573 574
f 556 575 557
f 556 574 575
f 562 581 563
f 562 580 581
f 563 582 564
f 563 581 582
f 564 583 565
f 564 582 583
f 565 584 566
f 565 583 584
f 566 585 567
f 566 584 585
f 567 586 568
f 567 585 586
f 568 587 569
f 568 586 587
f 569 588 570
f 569 587 588
f 570 589 571
f 570 588 589
f 571 590 572
f 571 589 590
f 572 591 573
f 572 590 591
f 573 592 574
f 573 591 592
f 574 593 575
f 574 592 593
f 580 599 581
f 580 598 599
f 581 600 582
f 581 599 600
f 582 601 583
f 582 600 601
f 583 602 584
f 583 601 602
f 584 603 585
f 584 602 603
f 585 604 586
f 585 603 604
f 586 605 587
f 586 604 605
f 587 606 588
f 587 605 606
f 588 607 589
f 588 606 607
f 589 608 590
f 589 607 608
f 590 609 591
f 590 608 609
f 591 610 592
f 591 609 610
f 592 611 593
f 592 610 611
f 598 617 599
f 598 616 617
f 599 618 600
f 599 617 618
f 600 619 601
f 600 618 619
f 601 602 620
f 601 620 619
f 602 603 621
f 602 621 620
f 603 604 622
f 603 622 621
f 604 605 623
f 604 623 622
f 605 606 624
f 605 624 623
f 606 607 625
f 606 625 624
f 607 626 608
f 607 625 626
f 608 627 609
f 608 626 627
f 609 628 610
f 609 627 628
f 610 629 611
f 610 628 629
f 616 635 617
f 616 634 635
f 617 636 618
f 617 635 636
f 618 619 637
f 618 636 637
f 619 620 638
f 619 638 637
f 620 621 639
f 620 639 638
f 621 622 640
f 621 640 639
f 622 623 641
f 622 641 640
f 623 624 642
f 623 642 641
f 624 625 643
f 624 643 642
f 625 626 644
f 625 643 644
f 626 645 627
f 626 644 645
f 627 646 628
f 627 645 646
f 628 647 629
f 628 646 647
f 649 1 2
f 649 2 3
f 649 3 4
f 649 4 5
f 649 5 6
f 649 6 7
f 649 7 8
f 649 8 9
f 649 9 10
f 649 10 11
f 649 11 12
f 649 12 13
f 649 13 14
f 649 14 15
f 649 15 16
f 649 16 17
f 649 17 18
f 649 18 1
usemtl livery
f 1 20 2
f 1 19 20
f 2 21 3
f 2 20 21
f 3 22 4
f 3 21 22
f 17 36 18
f 17 35 36
f 18 19 1
f 18 36 19
f 19 38 20
f 19 37 38
f 20 39 21
f 20 38 39
f 21 40 22
f 21 39 40
f 35 54 36
f 35 53 54
f 36 37 19
f 36 54 37
f 37 56 38
f 37 55 56
f 38 57 39
f 38 56 57
f 39 58 40
f 39 57 58
f 53 72 54
f 53 71 72
f 54 55 37
f 54 72 55
f 55 74 56
f 55 73 74
f 56 75 57
f 56 74 75
f 57 76 58
f 57 75 76
f 71 90 72
f 71 89 90
f 72 73 55
f 72 90 73
f 73 92 74
f 73 91 92
f 74 93 75
f 74 92 93
f 75 94 76
f 75 93 94
f 89 108 90
f 89 107 108
f 90 91 73
f 90 108 91
f 91 110 92
f 91 109 110
f 92 111 93
f 92 110 111
f 93 112 94
f 93 111 112
f 107 126 108
f 107 125 126
f 108 109 91
f 108 126 109
f 109 128 110
f 109 127 128
f 110 129 111
f 110 128 129
f 111 130 112
f 111 129 130
f 125 144 126
f 125 143 144
f 126 127 109
f 126 144 127
f 127 146 128
f 127 145 146
f 128 147 129
f 128 146 147
f 129 148 130
f 129 147 148
f 143 162 144
f 143 161 162
f 144 145 127
f 144 162 145
f 145 164 146
f 145 163 164
f 146 165 147
f 146 164 165
f 147 166 148
f 147 165 166
f 161 180 162
f 161 179 180
f 162 163 145
f 162 180 163
f 163 182 164
f 163 181 182
f 164 183 165
f 164 182 183
f 165 184 166
f 165 183 184
f 179 198 180
f 179 197 198
f 180 181 163
f 180 198 181
f 181 200 182
f 181 199 200
f 182 201 183
f 182 200 201
f 183 202 184
f 183 201 202
f 197 216 198
f 197 215 216
f 198 199 181
f 198 216 199
f 199 218 200
f 199 217 218
f 200 219 201
f 200 218 219
f 201 220 202
f 201 219 220
f 215 234 216
f 215 233 234
f 216 217 199
f 216 234 217
f 217 236 218
f 217 235 236
f 218 237 219
f 218 236 237
f 219 238 220
f 219 237 238
f 233 252 234
f 233 251 252
f 234 235 217
f 234 252 235
f 235 254 236
f 235 253 254
f 236 255 237
f 236 254 255
f 237 256 238
f 237 255 256
f 251 270 252
f 251 269 270
f 252 253 235
f 252 270 253
f 253 272 254
f 253 271 272
f 254 273 255
f 254 272 273
f 255 274 256
f 255 273 274
f 269 288 270
f 269 287 288
f 270 271 253
f 270 288 271
f 271 290 272
f 271 289 290
f 272 291 273
f 272 290 291
f 273 292 274
f 273 291 292
f 287 306 288
f 287 305 306
f 288 289 271
f 288 306 289
f 289 308 290
f 289 307 308
f 290 309 291
f 290 308 309
f 291 310 292
f 291 309 310
f 305 324 306
f 305 323 324
f 306 307 289
f 306 324 307
f 307 326 308
f 307 325 326
f 308 327 309
f 308 326 327
f 309 328 310
f 309 327 328
f 323 342 324
f 323 341 342
f 324 325 307
f 324 342 325
f 325 344 326
f 325 343 344
f 326 345 327
f 326 344 345
f 327 346 328
f 327 345 346
f 341 360 342
f 341 359 360
f 342 343 325
f 342 360 343
f 343 362 344
f 343 361 362
f 344 363 345
f 344 362 363
f 345 364 346
f 345 363 364
f 359 378 360
f 359 377 378
f 360 361 343
f 360 378 361
f 361 380 362
f 361 379 380
f 362 381 363
f 362 380 381
f 363 382 364
f 363 381 382
f 377 396 378
f 377 395 396
f 378 379 361
f 378 396 379
f 379 398 380
f 379 397 398
f 380 399 381
f 380 398 399
f 381 400 382
f 381 399 400
f 395 414 396
f 395 413 414
f 396 397 379
f 396 414 397
f 397 416 398
f 397 415 416
f 398 417 399
f 398 416 417
f 399 418 400
f 399 417 418
f 413 432 414
f 413 431 432
f 414 415 397
f 414 432 415
f 415 434 416
f 415 433 434
f 416 435 417
f 416 434 435
f 417 436 418
f 417 435 436
f 431 450 432
f 431 449 450
f 432 433 415
f 432 450 433
f 433 452 434
f 433 451 452
f 434 453 435
f 434 452 453
f 435 454 436
f 435 453 454
f 449 468 450
f 449 467 468
f 450 451 433
f 450 468 451
f 451 470 452
f 451 469 470
f 452 471 453
f 452 470 471
f 453 472 454
f 453 471 472
f 467 486 468
f 467 485 486
f 468 469 451
f 468 486 469
f 469 488 470
f 469 487 488
f 470 489 471
f 470 488 489
f 471 490 472
f 471 489 490
f 485 504 486
f 485 503 504
f 486 487 469
f 486 504 487
f 487 506 488
f 487 505 506
f 488 507 489
f 488 506 507
f 489 508 490
f 489 507 508
f 503 522 504
f 503 521 522
f 504 505 487
f 504 522 505
f 505 524 506
f 505 523 524
f 506 525 507
f 506 524 525
f 507 526 508
f 507 525 526
f 521 540 522
f 521 539 540
f 522 523 505
f 522 540 523
f 523 542 524
f 523 541 542
f 524 543 525
f 524 542 543
f 525 544 526
f 525 543 544
f 539 558 540
f 539 557 558
f 540 541 523
f 540 558 541
f 541 560 542
f 541 559 560
f 542 561 543
f 542 560 561
f 543 562 544
f 543 561 562
f 557 576 558
f 557 575 576
f 558 559 541
f 558 576 559
f 559 578 560
f 559 577 578
f 560 579 561
f 560 578 579
f 561 580 562
f 561 579 580
f 575 594 576
f 575 593 594
f 576 577 559
f 576 594 577
f 577 596 578
f 577 595 596
f 578 597 579
f 578 596 597
f 579 598 580
f 579 597 598
f 593 612 594
f 593 611 612
f 594 595 577
f 594 612 595
f 595 614 596
f 595 613 614
f 596 615 597
f 596 614 615
f 597 616 598
f 597 615 616
f 611 630 612
f 611 629 630
f 612 613 595
f 612 630 613
f 613 632 614
f 613 631 632
f 614 633 615
f 614 632 633
f 615 634 616
f 615 633 634
f 629 648 630
f 629 647 648
f 630 631 613
f 630 648 631
f 650 632 631
f 650 633 632
f 650 634 633
f 650 635 634
f 650 636 635
f 650 637 636
f 650 638 637
f 650 639 638
f 650 640 639
f 650 641 640
f 650 642 641
f 650 643 642
f 650 644 643
f 650 645 644
f 650 646 645
f 650 647 646
f 650 648 647
f 650 631 648
f 795 798 796
f 795 797 798
f 799 800 802
f 799 802 801
f 795 796 800
f 795 800 799
f 797 802 798
f 797 801 802
f 795 801 797
f 795 799 801
f 796 798 802
f 796 802 800
usemtl canopy
f 651 666 652
f 651 665 666
f 652 667 653
f 652 666 667
f 653 668 654
f 653 667 668
f 654 669 655
f 654 668 669
f 655 670 656
f 655 669 670
f 656 671 657
f 656 670 671
f 657 672 658
f 657 671 672
f 658 673 659
f 658 672 673
f 659 674 660
f 659 673 674
f 660 675 661
f 660 674 675
f 661 676 662
f 661 675 676
f 662 677 663
f 662 676 677
f 663 678 664
f 663 677 678
f 664 665 651
f 664 678 665
f 665 680 666
f 665 679 680
f 666 681 667
f 666 680 681
f 667 682 668
f 667 681 682
f 668 683 669
f 668 682 683
f 669 684 670
f 669 683 684
f 670 685 671
f 670 684 685
f 671 686 672
f 671 685 686
f 672 687 673
f 672 686 687
f 673 688 674
f 673 687 688
f 674 689 675
f 674 688 689
f 675 690 676
f 675 689 690
f 676 691 677
f 676 690 691
f 677 692 678
f 677 691 692
f 678 679 665
f 678 692 679
f 679 694 680
f 679 693 694
f 680 695 681
f 680 694 695
f 681 696 682
f 681 695 696
f 682 697 683
f 682 696 697
f 683 698 684
f 683 697 698
f 684 699 685
f 684 698 699
f 685 700 686
f 685 699 700
f 686 701 687
f 686 700 701
f 687 702 688
f 687 701 702
f 688 703 689
f 688 702 703
f 689 704 690
f 689 703 704
f 690 705 691
f 690 704 705
f 691 706 692
f 691 705 706
f 692 693 679
f 692 706 693
f 693 708 694
f 693 707 708
f 694 709 695
f 694 708 709
f 695 710 696
f 695 709 710
f 696 711 697
f 696 710 711
f 697 712 698
f 697 711 712
f 698 713 699
f 698 712 713
f 699 714 700
f 699 713 714
f 700 715 701
f 700 714 715
f 701 716 702
f 701 715 716
f 702 717 703
f 702 716 717
f 703 718 704
f 703 717 718
f 704 719 705
f 704 718 719
f 705 720 706
f 705 719 720
f 706 707 693
f 706 720 707
f 707 722 708
f 707 721 722
f 708 723 709
f 708 722 723
f 709 724 710
f 709 723 724
f 710 725 711
f 710 724 725
f 711 726 712
f 711 725 726
f 712 727 713
f 712 726 727
f 713 728 714
f 713 727 728
f 714 729 715
f 714 728 729
f 715 730 716
f 715 729 730
f 716 731 717
f 716 730 731
f 717 732 718
f 717 731 732
f 718 733 719
f 718 732 733
f 719 734 720
f 719 733 734
f 720 721 707
f 720 734 721
f 721 736 722
f 721 735 736
f 722 737 723
f 722 736 737
f 723 738 724
f 723 737 738
f 724 739 725
f 724 738 739
f 725 740 726
f 725 739 740
f 726 741 727
f 726 740 741
f 727 742 728
f 727 741 742
f 728 743 729
f 728 742 743
f 729 744 730
f 729 743 744
f 730 745 731
f 730 744 745
f 731 746 732
f 731 745 746
f 732 747 733
f 732 746 747
f 733 748 734
f 733 747 748
f 734 735 721
f 734 748 735
f 735 750 736
f 736 751 737
f 737 752 738
f 738 753 739
f 739 754 740
f 740 755 741
f 741 756 742
f 742 757 743
f 743 758 744
f 744 759 745
f 745 760 746
f 746 761 747
f 747 762 748
f 748 749 735
usemtl engine
f 763 766 764
f 763 765 766
f 767 768 770
f 767 770 769
f 763 764 768
f 763 768 767
f 765 770 766
f 765 769 770
f 763 769 765
f 763 767 769
f 764 766 770
f 764 770 768
f 779 782 780
f 779 781 782
f 783 784 786
f 783 786 785
f 779 780 784
f 779 784 783
f 781 786 782
f 781 785 786
f 779 785 781
f 779 783 785
f 780 782 786
f 780 786 784
usemtl metal
f 771 774 772
f 771 773 774
f 775 776 778
f 775 778 777
f 771 772 776
f 771 776 775
f 773 778 774
f 773 777 778
f 771 777 773
f 771 775 777
f 772 774 778
f 772 778 776
f 787 790 788
f 787 789 790
f 791 792 794
f 791 794 793
f 787 788 792
f 787 792 791
f 789 794 790
f 789 793 794
f 787 793 789
f 787 791 793
f 788 790 794
f 788 794 792
f 803 806 804
f 803 805 806
f 807 808 810
f 807 810 809
f 803 804 808
f 803 808 807
f 805 810 806
f 805 809 810
f 803 809 805
f 803 807 809
f 804 806 810
f 804 810 808
usemtl flag
f 811 814 812
f 811 813 814
f 815 816 818
f 815 818 817
f 811 812 816
f 811 816 815
f 813 818 814
f 813 817 818
f 811 817 813
f 811 815 817
f 812 814 818
f 812 818 816
