# BOATRACE REALISM Omura venue (CCW/left-turn)
mtllib omura_venue.mtl
v 410.000 -1.500 -55.000
v -110.000 -1.500 -55.000
v -110.000 -1.500 85.000
v 410.000 -1.500 85.000
v 410.000 -0.050 -55.000
v -110.000 -0.050 -55.000
v -110.000 -0.050 85.000
v 410.000 -0.050 85.000
v 410.000 0.000 -55.000
v 400.000 0.000 -55.000
v 400.000 0.000 -45.000
v 410.000 0.000 -45.000
v 410.000 0.000 -45.000
v 400.000 0.000 -45.000
v 400.000 0.000 -35.000
v 410.000 0.000 -35.000
v 410.000 0.000 -35.000
v 400.000 0.000 -35.000
v 400.000 0.000 -25.000
v 410.000 0.000 -25.000
v 410.000 0.000 -25.000
v 400.000 0.000 -25.000
v 400.000 0.000 -15.000
v 410.000 0.000 -15.000
v 410.000 0.000 -15.000
v 400.000 0.000 -15.000
v 400.000 0.000 -5.000
v 410.000 0.000 -5.000
v 410.000 0.000 -5.000
v 400.000 0.000 -5.000
v 400.000 0.000 5.000
v 410.000 0.000 5.000
v 410.000 0.000 5.000
v 400.000 0.000 5.000
v 400.000 0.000 15.000
v 410.000 0.000 15.000
v 410.000 0.000 15.000
v 400.000 0.000 15.000
v 400.000 0.000 25.000
v 410.000 0.000 25.000
v 410.000 0.000 25.000
v 400.000 0.000 25.000
v 400.000 0.000 35.000
v 410.000 0.000 35.000
v 410.000 0.000 35.000
v 400.000 0.000 35.000
v 400.000 0.000 45.000
v 410.000 0.000 45.000
v 410.000 0.000 45.000
v 400.000 0.000 45.000
v 400.000 0.000 55.000
v 410.000 0.000 55.000
v 410.000 0.000 55.000
v 400.000 0.000 55.000
v 400.000 0.000 65.000
v 410.000 0.000 65.000
v 410.000 0.000 65.000
v 400.000 0.000 65.000
v 400.000 0.000 75.000
v 410.000 0.000 75.000
v 410.000 0.000 75.000
v 400.000 0.000 75.000
v 400.000 0.000 85.000
v 410.000 0.000 85.000
v 400.000 0.000 -55.000
v 390.000 0.000 -55.000
v 390.000 0.000 -45.000
v 400.000 0.000 -45.000
v 400.000 0.000 -45.000
v 390.000 0.000 -45.000
v 390.000 0.000 -35.000
v 400.000 0.000 -35.000
v 400.000 0.000 -35.000
v 390.000 0.000 -35.000
v 390.000 0.000 -25.000
v 400.000 0.000 -25.000
v 400.000 0.000 -25.000
v 390.000 0.000 -25.000
v 390.000 0.000 -15.000
v 400.000 0.000 -15.000
v 400.000 0.000 -15.000
v 390.000 0.000 -15.000
v 390.000 0.000 -5.000
v 400.000 0.000 -5.000
v 400.000 0.000 -5.000
v 390.000 0.000 -5.000
v 390.000 0.000 5.000
v 400.000 0.000 5.000
v 400.000 0.000 5.000
v 390.000 0.000 5.000
v 390.000 0.000 15.000
v 400.000 0.000 15.000
v 400.000 0.000 15.000
v 390.000 0.000 15.000
v 390.000 0.000 25.000
v 400.000 0.000 25.000
v 400.000 0.000 25.000
v 390.000 0.000 25.000
v 390.000 0.000 35.000
v 400.000 0.000 35.000
v 400.000 0.000 35.000
v 390.000 0.000 35.000
v 390.000 0.000 45.000
v 400.000 0.000 45.000
v 400.000 0.000 45.000
v 390.000 0.000 45.000
v 390.000 0.000 55.000
v 400.000 0.000 55.000
v 400.000 0.000 55.000
v 390.000 0.000 55.000
v 390.000 0.000 65.000
v 400.000 0.000 65.000
v 400.000 0.000 65.000
v 390.000 0.000 65.000
v 390.000 0.000 75.000
v 400.000 0.000 75.000
v 400.000 0.000 75.000
v 390.000 0.000 75.000
v 390.000 0.000 85.000
v 400.000 0.000 85.000
v 390.000 0.000 -55.000
v 380.000 0.000 -55.000
v 380.000 0.000 -45.000
v 390.000 0.000 -45.000
v 390.000 0.000 -45.000
v 380.000 0.000 -45.000
v 380.000 0.000 -35.000
v 390.000 0.000 -35.000
v 390.000 0.000 -35.000
v 380.000 0.000 -35.000
v 380.000 0.000 -25.000
v 390.000 0.000 -25.000
v 390.000 0.000 -25.000
v 380.000 0.000 -25.000
v 380.000 0.000 -15.000
v 390.000 0.000 -15.000
v 390.000 0.000 -15.000
v 380.000 0.000 -15.000
v 380.000 0.000 -5.000
v 390.000 0.000 -5.000
v 390.000 0.000 -5.000
v 380.000 0.000 -5.000
v 380.000 0.000 5.000
v 390.000 0.000 5.000
v 390.000 0.000 5.000
v 380.000 0.000 5.000
v 380.000 0.000 15.000
v 390.000 0.000 15.000
v 390.000 0.000 15.000
v 380.000 0.000 15.000
v 380.000 0.000 25.000
v 390.000 0.000 25.000
v 390.000 0.000 25.000
v 380.000 0.000 25.000
v 380.000 0.000 35.000
v 390.000 0.000 35.000
v 390.000 0.000 35.000
v 380.000 0.000 35.000
v 380.000 0.000 45.000
v 390.000 0.000 45.000
v 390.000 0.000 45.000
v 380.000 0.000 45.000
v 380.000 0.000 55.000
v 390.000 0.000 55.000
v 390.000 0.000 55.000
v 380.000 0.000 55.000
v 380.000 0.000 65.000
v 390.000 0.000 65.000
v 390.000 0.000 65.000
v 380.000 0.000 65.000
v 380.000 0.000 75.000
v 390.000 0.000 75.000
v 390.000 0.000 75.000
v 380.000 0.000 75.000
v 380.000 0.000 85.000
v 390.000 0.000 85.000
v 380.000 0.000 -55.000
v 370.000 0.000 -55.000
v 370.000 0.000 -45.000
v 380.000 0.000 -45.000
v 380.000 0.000 -45.000
v 370.000 0.000 -45.000
v 370.000 0.000 -35.000
v 380.000 0.000 -35.000
v 380.000 0.000 -35.000
v 370.000 0.000 -35.000
v 370.000 0.000 -25.000
v 380.000 0.000 -25.000
v 380.000 0.000 -25.000
v 370.000 0.000 -25.000
v 370.000 0.000 -15.000
v 380.000 0.000 -15.000
v 380.000 0.000 -15.000
v 370.000 0.000 -15.000
v 370.000 0.000 -5.000
v 380.000 0.000 -5.000
v 380.000 0.000 -5.000
v 370.000 0.000 -5.000
v 370.000 0.000 5.000
v 380.000 0.000 5.000
v 380.000 0.000 5.000
v 370.000 0.000 5.000
v 370.000 0.000 15.000
v 380.000 0.000 15.000
v 380.000 0.000 15.000
v 370.000 0.000 15.000
v 370.000 0.000 25.000
v 380.000 0.000 25.000
v 380.000 0.000 25.000
v 370.000 0.000 25.000
v 370.000 0.000 35.000
v 380.000 0.000 35.000
v 380.000 0.000 35.000
v 370.000 0.000 35.000
v 370.000 0.000 45.000
v 380.000 0.000 45.000
v 380.000 0.000 45.000
v 370.000 0.000 45.000
v 370.000 0.000 55.000
v 380.000 0.000 55.000
v 380.000 0.000 55.000
v 370.000 0.000 55.000
v 370.000 0.000 65.000
v 380.000 0.000 65.000
v 380.000 0.000 65.000
v 370.000 0.000 65.000
v 370.000 0.000 75.000
v 380.000 0.000 75.000
v 380.000 0.000 75.000
v 370.000 0.000 75.000
v 370.000 0.000 85.000
v 380.000 0.000 85.000
v 370.000 0.000 -55.000
v 360.000 0.000 -55.000
v 360.000 0.000 -45.000
v 370.000 0.000 -45.000
v 370.000 0.000 -45.000
v 360.000 0.000 -45.000
v 360.000 0.000 -35.000
v 370.000 0.000 -35.000
v 370.000 0.000 -35.000
v 360.000 0.000 -35.000
v 360.000 0.000 -25.000
v 370.000 0.000 -25.000
v 370.000 0.000 -25.000
v 360.000 0.000 -25.000
v 360.000 0.000 -15.000
v 370.000 0.000 -15.000
v 370.000 0.000 -15.000
v 360.000 0.000 -15.000
v 360.000 0.000 -5.000
v 370.000 0.000 -5.000
v 370.000 0.000 -5.000
v 360.000 0.000 -5.000
v 360.000 0.000 5.000
v 370.000 0.000 5.000
v 370.000 0.000 5.000
v 360.000 0.000 5.000
v 360.000 0.000 15.000
v 370.000 0.000 15.000
v 370.000 0.000 15.000
v 360.000 0.000 15.000
v 360.000 0.000 25.000
v 370.000 0.000 25.000
v 370.000 0.000 25.000
v 360.000 0.000 25.000
v 360.000 0.000 35.000
v 370.000 0.000 35.000
v 370.000 0.000 35.000
v 360.000 0.000 35.000
v 360.000 0.000 45.000
v 370.000 0.000 45.000
v 370.000 0.000 45.000
v 360.000 0.000 45.000
v 360.000 0.000 55.000
v 370.000 0.000 55.000
v 370.000 0.000 55.000
v 360.000 0.000 55.000
v 360.000 0.000 65.000
v 370.000 0.000 65.000
v 370.000 0.000 65.000
v 360.000 0.000 65.000
v 360.000 0.000 75.000
v 370.000 0.000 75.000
v 370.000 0.000 75.000
v 360.000 0.000 75.000
v 360.000 0.000 85.000
v 370.000 0.000 85.000
v 360.000 0.000 -55.000
v 350.000 0.000 -55.000
v 350.000 0.000 -45.000
v 360.000 0.000 -45.000
v 360.000 0.000 -45.000
v 350.000 0.000 -45.000
v 350.000 0.000 -35.000
v 360.000 0.000 -35.000
v 360.000 0.000 -35.000
v 350.000 0.000 -35.000
v 350.000 0.000 -25.000
v 360.000 0.000 -25.000
v 360.000 0.000 -25.000
v 350.000 0.000 -25.000
v 350.000 0.000 -15.000
v 360.000 0.000 -15.000
v 360.000 0.000 -15.000
v 350.000 0.000 -15.000
v 350.000 0.000 -5.000
v 360.000 0.000 -5.000
v 360.000 0.000 -5.000
v 350.000 0.000 -5.000
v 350.000 0.000 5.000
v 360.000 0.000 5.000
v 360.000 0.000 5.000
v 350.000 0.000 5.000
v 350.000 0.000 15.000
v 360.000 0.000 15.000
v 360.000 0.000 15.000
v 350.000 0.000 15.000
v 350.000 0.000 25.000
v 360.000 0.000 25.000
v 360.000 0.000 25.000
v 350.000 0.000 25.000
v 350.000 0.000 35.000
v 360.000 0.000 35.000
v 360.000 0.000 35.000
v 350.000 0.000 35.000
v 350.000 0.000 45.000
v 360.000 0.000 45.000
v 360.000 0.000 45.000
v 350.000 0.000 45.000
v 350.000 0.000 55.000
v 360.000 0.000 55.000
v 360.000 0.000 55.000
v 350.000 0.000 55.000
v 350.000 0.000 65.000
v 360.000 0.000 65.000
v 360.000 0.000 65.000
v 350.000 0.000 65.000
v 350.000 0.000 75.000
v 360.000 0.000 75.000
v 360.000 0.000 75.000
v 350.000 0.000 75.000
v 350.000 0.000 85.000
v 360.000 0.000 85.000
v 350.000 0.000 -55.000
v 340.000 0.000 -55.000
v 340.000 0.000 -45.000
v 350.000 0.000 -45.000
v 350.000 0.000 -45.000
v 340.000 0.000 -45.000
v 340.000 0.000 -35.000
v 350.000 0.000 -35.000
v 350.000 0.000 -35.000
v 340.000 0.000 -35.000
v 340.000 0.000 -25.000
v 350.000 0.000 -25.000
v 350.000 0.000 -25.000
v 340.000 0.000 -25.000
v 340.000 0.000 -15.000
v 350.000 0.000 -15.000
v 350.000 0.000 -15.000
v 340.000 0.000 -15.000
v 340.000 0.000 -5.000
v 350.000 0.000 -5.000
v 350.000 0.000 -5.000
v 340.000 0.000 -5.000
v 340.000 0.000 5.000
v 350.000 0.000 5.000
v 350.000 0.000 5.000
v 340.000 0.000 5.000
v 340.000 0.000 15.000
v 350.000 0.000 15.000
v 350.000 0.000 15.000
v 340.000 0.000 15.000
v 340.000 0.000 25.000
v 350.000 0.000 25.000
v 350.000 0.000 25.000
v 340.000 0.000 25.000
v 340.000 0.000 35.000
v 350.000 0.000 35.000
v 350.000 0.000 35.000
v 340.000 0.000 35.000
v 340.000 0.000 45.000
v 350.000 0.000 45.000
v 350.000 0.000 45.000
v 340.000 0.000 45.000
v 340.000 0.000 55.000
v 350.000 0.000 55.000
v 350.000 0.000 55.000
v 340.000 0.000 55.000
v 340.000 0.000 65.000
v 350.000 0.000 65.000
v 350.000 0.000 65.000
v 340.000 0.000 65.000
v 340.000 0.000 75.000
v 350.000 0.000 75.000
v 350.000 0.000 75.000
v 340.000 0.000 75.000
v 340.000 0.000 85.000
v 350.000 0.000 85.000
v 340.000 0.000 -55.000
v 330.000 0.000 -55.000
v 330.000 0.000 -45.000
v 340.000 0.000 -45.000
v 340.000 0.000 -45.000
v 330.000 0.000 -45.000
v 330.000 0.000 -35.000
v 340.000 0.000 -35.000
v 340.000 0.000 -35.000
v 330.000 0.000 -35.000
v 330.000 0.000 -25.000
v 340.000 0.000 -25.000
v 340.000 0.000 -25.000
v 330.000 0.000 -25.000
v 330.000 0.000 -15.000
v 340.000 0.000 -15.000
v 340.000 0.000 -15.000
v 330.000 0.000 -15.000
v 330.000 0.000 -5.000
v 340.000 0.000 -5.000
v 340.000 0.000 -5.000
v 330.000 0.000 -5.000
v 330.000 0.000 5.000
v 340.000 0.000 5.000
v 340.000 0.000 5.000
v 330.000 0.000 5.000
v 330.000 0.000 15.000
v 340.000 0.000 15.000
v 340.000 0.000 15.000
v 330.000 0.000 15.000
v 330.000 0.000 25.000
v 340.000 0.000 25.000
v 340.000 0.000 25.000
v 330.000 0.000 25.000
v 330.000 0.000 35.000
v 340.000 0.000 35.000
v 340.000 0.000 35.000
v 330.000 0.000 35.000
v 330.000 0.000 45.000
v 340.000 0.000 45.000
v 340.000 0.000 45.000
v 330.000 0.000 45.000
v 330.000 0.000 55.000
v 340.000 0.000 55.000
v 340.000 0.000 55.000
v 330.000 0.000 55.000
v 330.000 0.000 65.000
v 340.000 0.000 65.000
v 340.000 0.000 65.000
v 330.000 0.000 65.000
v 330.000 0.000 75.000
v 340.000 0.000 75.000
v 340.000 0.000 75.000
v 330.000 0.000 75.000
v 330.000 0.000 85.000
v 340.000 0.000 85.000
v 330.000 0.000 -55.000
v 320.000 0.000 -55.000
v 320.000 0.000 -45.000
v 330.000 0.000 -45.000
v 330.000 0.000 -45.000
v 320.000 0.000 -45.000
v 320.000 0.000 -35.000
v 330.000 0.000 -35.000
v 330.000 0.000 -35.000
v 320.000 0.000 -35.000
v 320.000 0.000 -25.000
v 330.000 0.000 -25.000
v 330.000 0.000 -25.000
v 320.000 0.000 -25.000
v 320.000 0.000 -15.000
v 330.000 0.000 -15.000
v 330.000 0.000 -15.000
v 320.000 0.000 -15.000
v 320.000 0.000 -5.000
v 330.000 0.000 -5.000
v 330.000 0.000 -5.000
v 320.000 0.000 -5.000
v 320.000 0.000 5.000
v 330.000 0.000 5.000
v 330.000 0.000 5.000
v 320.000 0.000 5.000
v 320.000 0.000 15.000
v 330.000 0.000 15.000
v 330.000 0.000 15.000
v 320.000 0.000 15.000
v 320.000 0.000 25.000
v 330.000 0.000 25.000
v 330.000 0.000 25.000
v 320.000 0.000 25.000
v 320.000 0.000 35.000
v 330.000 0.000 35.000
v 330.000 0.000 35.000
v 320.000 0.000 35.000
v 320.000 0.000 45.000
v 330.000 0.000 45.000
v 330.000 0.000 45.000
v 320.000 0.000 45.000
v 320.000 0.000 55.000
v 330.000 0.000 55.000
v 330.000 0.000 55.000
v 320.000 0.000 55.000
v 320.000 0.000 65.000
v 330.000 0.000 65.000
v 330.000 0.000 65.000
v 320.000 0.000 65.000
v 320.000 0.000 75.000
v 330.000 0.000 75.000
v 330.000 0.000 75.000
v 320.000 0.000 75.000
v 320.000 0.000 85.000
v 330.000 0.000 85.000
v 320.000 0.000 -55.000
v 310.000 0.000 -55.000
v 310.000 0.000 -45.000
v 320.000 0.000 -45.000
v 320.000 0.000 -45.000
v 310.000 0.000 -45.000
v 310.000 0.000 -35.000
v 320.000 0.000 -35.000
v 320.000 0.000 -35.000
v 310.000 0.000 -35.000
v 310.000 0.000 -25.000
v 320.000 0.000 -25.000
v 320.000 0.000 -25.000
v 310.000 0.000 -25.000
v 310.000 0.000 -15.000
v 320.000 0.000 -15.000
v 320.000 0.000 -15.000
v 310.000 0.000 -15.000
v 310.000 0.000 -5.000
v 320.000 0.000 -5.000
v 320.000 0.000 -5.000
v 310.000 0.000 -5.000
v 310.000 0.000 5.000
v 320.000 0.000 5.000
v 320.000 0.000 5.000
v 310.000 0.000 5.000
v 310.000 0.000 15.000
v 320.000 0.000 15.000
v 320.000 0.000 15.000
v 310.000 0.000 15.000
v 310.000 0.000 25.000
v 320.000 0.000 25.000
v 320.000 0.000 25.000
v 310.000 0.000 25.000
v 310.000 0.000 35.000
v 320.000 0.000 35.000
v 320.000 0.000 35.000
v 310.000 0.000 35.000
v 310.000 0.000 45.000
v 320.000 0.000 45.000
v 320.000 0.000 45.000
v 310.000 0.000 45.000
v 310.000 0.000 55.000
v 320.000 0.000 55.000
v 320.000 0.000 55.000
v 310.000 0.000 55.000
v 310.000 0.000 65.000
v 320.000 0.000 65.000
v 320.000 0.000 65.000
v 310.000 0.000 65.000
v 310.000 0.000 75.000
v 320.000 0.000 75.000
v 320.000 0.000 75.000
v 310.000 0.000 75.000
v 310.000 0.000 85.000
v 320.000 0.000 85.000
v 310.000 0.000 -55.000
v 300.000 0.000 -55.000
v 300.000 0.000 -45.000
v 310.000 0.000 -45.000
v 310.000 0.000 -45.000
v 300.000 0.000 -45.000
v 300.000 0.000 -35.000
v 310.000 0.000 -35.000
v 310.000 0.000 -35.000
v 300.000 0.000 -35.000
v 300.000 0.000 -25.000
v 310.000 0.000 -25.000
v 310.000 0.000 -25.000
v 300.000 0.000 -25.000
v 300.000 0.000 -15.000
v 310.000 0.000 -15.000
v 310.000 0.000 -15.000
v 300.000 0.000 -15.000
v 300.000 0.000 -5.000
v 310.000 0.000 -5.000
v 310.000 0.000 -5.000
v 300.000 0.000 -5.000
v 300.000 0.000 5.000
v 310.000 0.000 5.000
v 310.000 0.000 5.000
v 300.000 0.000 5.000
v 300.000 0.000 15.000
v 310.000 0.000 15.000
v 310.000 0.000 15.000
v 300.000 0.000 15.000
v 300.000 0.000 25.000
v 310.000 0.000 25.000
v 310.000 0.000 25.000
v 300.000 0.000 25.000
v 300.000 0.000 35.000
v 310.000 0.000 35.000
v 310.000 0.000 35.000
v 300.000 0.000 35.000
v 300.000 0.000 45.000
v 310.000 0.000 45.000
v 310.000 0.000 45.000
v 300.000 0.000 45.000
v 300.000 0.000 55.000
v 310.000 0.000 55.000
v 310.000 0.000 55.000
v 300.000 0.000 55.000
v 300.000 0.000 65.000
v 310.000 0.000 65.000
v 310.000 0.000 65.000
v 300.000 0.000 65.000
v 300.000 0.000 75.000
v 310.000 0.000 75.000
v 310.000 0.000 75.000
v 300.000 0.000 75.000
v 300.000 0.000 85.000
v 310.000 0.000 85.000
v 300.000 0.000 -55.000
v 290.000 0.000 -55.000
v 290.000 0.000 -45.000
v 300.000 0.000 -45.000
v 300.000 0.000 -45.000
v 290.000 0.000 -45.000
v 290.000 0.000 -35.000
v 300.000 0.000 -35.000
v 300.000 0.000 -35.000
v 290.000 0.000 -35.000
v 290.000 0.000 -25.000
v 300.000 0.000 -25.000
v 300.000 0.000 -25.000
v 290.000 0.000 -25.000
v 290.000 0.000 -15.000
v 300.000 0.000 -15.000
v 300.000 0.000 -15.000
v 290.000 0.000 -15.000
v 290.000 0.000 -5.000
v 300.000 0.000 -5.000
v 300.000 0.000 -5.000
v 290.000 0.000 -5.000
v 290.000 0.000 5.000
v 300.000 0.000 5.000
v 300.000 0.000 5.000
v 290.000 0.000 5.000
v 290.000 0.000 15.000
v 300.000 0.000 15.000
v 300.000 0.000 15.000
v 290.000 0.000 15.000
v 290.000 0.000 25.000
v 300.000 0.000 25.000
v 300.000 0.000 25.000
v 290.000 0.000 25.000
v 290.000 0.000 35.000
v 300.000 0.000 35.000
v 300.000 0.000 35.000
v 290.000 0.000 35.000
v 290.000 0.000 45.000
v 300.000 0.000 45.000
v 300.000 0.000 45.000
v 290.000 0.000 45.000
v 290.000 0.000 55.000
v 300.000 0.000 55.000
v 300.000 0.000 55.000
v 290.000 0.000 55.000
v 290.000 0.000 65.000
v 300.000 0.000 65.000
v 300.000 0.000 65.000
v 290.000 0.000 65.000
v 290.000 0.000 75.000
v 300.000 0.000 75.000
v 300.000 0.000 75.000
v 290.000 0.000 75.000
v 290.000 0.000 85.000
v 300.000 0.000 85.000
v 290.000 0.000 -55.000
v 280.000 0.000 -55.000
v 280.000 0.000 -45.000
v 290.000 0.000 -45.000
v 290.000 0.000 -45.000
v 280.000 0.000 -45.000
v 280.000 0.000 -35.000
v 290.000 0.000 -35.000
v 290.000 0.000 -35.000
v 280.000 0.000 -35.000
v 280.000 0.000 -25.000
v 290.000 0.000 -25.000
v 290.000 0.000 -25.000
v 280.000 0.000 -25.000
v 280.000 0.000 -15.000
v 290.000 0.000 -15.000
v 290.000 0.000 -15.000
v 280.000 0.000 -15.000
v 280.000 0.000 -5.000
v 290.000 0.000 -5.000
v 290.000 0.000 -5.000
v 280.000 0.000 -5.000
v 280.000 0.000 5.000
v 290.000 0.000 5.000
v 290.000 0.000 5.000
v 280.000 0.000 5.000
v 280.000 0.000 15.000
v 290.000 0.000 15.000
v 290.000 0.000 15.000
v 280.000 0.000 15.000
v 280.000 0.000 25.000
v 290.000 0.000 25.000
v 290.000 0.000 25.000
v 280.000 0.000 25.000
v 280.000 0.000 35.000
v 290.000 0.000 35.000
v 290.000 0.000 35.000
v 280.000 0.000 35.000
v 280.000 0.000 45.000
v 290.000 0.000 45.000
v 290.000 0.000 45.000
v 280.000 0.000 45.000
v 280.000 0.000 55.000
v 290.000 0.000 55.000
v 290.000 0.000 55.000
v 280.000 0.000 55.000
v 280.000 0.000 65.000
v 290.000 0.000 65.000
v 290.000 0.000 65.000
v 280.000 0.000 65.000
v 280.000 0.000 75.000
v 290.000 0.000 75.000
v 290.000 0.000 75.000
v 280.000 0.000 75.000
v 280.000 0.000 85.000
v 290.000 0.000 85.000
v 280.000 0.000 -55.000
v 270.000 0.000 -55.000
v 270.000 0.000 -45.000
v 280.000 0.000 -45.000
v 280.000 0.000 -45.000
v 270.000 0.000 -45.000
v 270.000 0.000 -35.000
v 280.000 0.000 -35.000
v 280.000 0.000 -35.000
v 270.000 0.000 -35.000
v 270.000 0.000 -25.000
v 280.000 0.000 -25.000
v 280.000 0.000 -25.000
v 270.000 0.000 -25.000
v 270.000 0.000 -15.000
v 280.000 0.000 -15.000
v 280.000 0.000 -15.000
v 270.000 0.000 -15.000
v 270.000 0.000 -5.000
v 280.000 0.000 -5.000
v 280.000 0.000 -5.000
v 270.000 0.000 -5.000
v 270.000 0.000 5.000
v 280.000 0.000 5.000
v 280.000 0.000 5.000
v 270.000 0.000 5.000
v 270.000 0.000 15.000
v 280.000 0.000 15.000
v 280.000 0.000 15.000
v 270.000 0.000 15.000
v 270.000 0.000 25.000
v 280.000 0.000 25.000
v 280.000 0.000 25.000
v 270.000 0.000 25.000
v 270.000 0.000 35.000
v 280.000 0.000 35.000
v 280.000 0.000 35.000
v 270.000 0.000 35.000
v 270.000 0.000 45.000
v 280.000 0.000 45.000
v 280.000 0.000 45.000
v 270.000 0.000 45.000
v 270.000 0.000 55.000
v 280.000 0.000 55.000
v 280.000 0.000 55.000
v 270.000 0.000 55.000
v 270.000 0.000 65.000
v 280.000 0.000 65.000
v 280.000 0.000 65.000
v 270.000 0.000 65.000
v 270.000 0.000 75.000
v 280.000 0.000 75.000
v 280.000 0.000 75.000
v 270.000 0.000 75.000
v 270.000 0.000 85.000
v 280.000 0.000 85.000
v 270.000 0.000 -55.000
v 260.000 0.000 -55.000
v 260.000 0.000 -45.000
v 270.000 0.000 -45.000
v 270.000 0.000 -45.000
v 260.000 0.000 -45.000
v 260.000 0.000 -35.000
v 270.000 0.000 -35.000
v 270.000 0.000 -35.000
v 260.000 0.000 -35.000
v 260.000 0.000 -25.000
v 270.000 0.000 -25.000
v 270.000 0.000 -25.000
v 260.000 0.000 -25.000
v 260.000 0.000 -15.000
v 270.000 0.000 -15.000
v 270.000 0.000 -15.000
v 260.000 0.000 -15.000
v 260.000 0.000 -5.000
v 270.000 0.000 -5.000
v 270.000 0.000 -5.000
v 260.000 0.000 -5.000
v 260.000 0.000 5.000
v 270.000 0.000 5.000
v 270.000 0.000 5.000
v 260.000 0.000 5.000
v 260.000 0.000 15.000
v 270.000 0.000 15.000
v 270.000 0.000 15.000
v 260.000 0.000 15.000
v 260.000 0.000 25.000
v 270.000 0.000 25.000
v 270.000 0.000 25.000
v 260.000 0.000 25.000
v 260.000 0.000 35.000
v 270.000 0.000 35.000
v 270.000 0.000 35.000
v 260.000 0.000 35.000
v 260.000 0.000 45.000
v 270.000 0.000 45.000
v 270.000 0.000 45.000
v 260.000 0.000 45.000
v 260.000 0.000 55.000
v 270.000 0.000 55.000
v 270.000 0.000 55.000
v 260.000 0.000 55.000
v 260.000 0.000 65.000
v 270.000 0.000 65.000
v 270.000 0.000 65.000
v 260.000 0.000 65.000
v 260.000 0.000 75.000
v 270.000 0.000 75.000
v 270.000 0.000 75.000
v 260.000 0.000 75.000
v 260.000 0.000 85.000
v 270.000 0.000 85.000
v 260.000 0.000 -55.000
v 250.000 0.000 -55.000
v 250.000 0.000 -45.000
v 260.000 0.000 -45.000
v 260.000 0.000 -45.000
v 250.000 0.000 -45.000
v 250.000 0.000 -35.000
v 260.000 0.000 -35.000
v 260.000 0.000 -35.000
v 250.000 0.000 -35.000
v 250.000 0.000 -25.000
v 260.000 0.000 -25.000
v 260.000 0.000 -25.000
v 250.000 0.000 -25.000
v 250.000 0.000 -15.000
v 260.000 0.000 -15.000
v 260.000 0.000 -15.000
v 250.000 0.000 -15.000
v 250.000 0.000 -5.000
v 260.000 0.000 -5.000
v 260.000 0.000 -5.000
v 250.000 0.000 -5.000
v 250.000 0.000 5.000
v 260.000 0.000 5.000
v 260.000 0.000 5.000
v 250.000 0.000 5.000
v 250.000 0.000 15.000
v 260.000 0.000 15.000
v 260.000 0.000 15.000
v 250.000 0.000 15.000
v 250.000 0.000 25.000
v 260.000 0.000 25.000
v 260.000 0.000 25.000
v 250.000 0.000 25.000
v 250.000 0.000 35.000
v 260.000 0.000 35.000
v 260.000 0.000 35.000
v 250.000 0.000 35.000
v 250.000 0.000 45.000
v 260.000 0.000 45.000
v 260.000 0.000 45.000
v 250.000 0.000 45.000
v 250.000 0.000 55.000
v 260.000 0.000 55.000
v 260.000 0.000 55.000
v 250.000 0.000 55.000
v 250.000 0.000 65.000
v 260.000 0.000 65.000
v 260.000 0.000 65.000
v 250.000 0.000 65.000
v 250.000 0.000 75.000
v 260.000 0.000 75.000
v 260.000 0.000 75.000
v 250.000 0.000 75.000
v 250.000 0.000 85.000
v 260.000 0.000 85.000
v 250.000 0.000 -55.000
v 240.000 0.000 -55.000
v 240.000 0.000 -45.000
v 250.000 0.000 -45.000
v 250.000 0.000 -45.000
v 240.000 0.000 -45.000
v 240.000 0.000 -35.000
v 250.000 0.000 -35.000
v 250.000 0.000 -35.000
v 240.000 0.000 -35.000
v 240.000 0.000 -25.000
v 250.000 0.000 -25.000
v 250.000 0.000 -25.000
v 240.000 0.000 -25.000
v 240.000 0.000 -15.000
v 250.000 0.000 -15.000
v 250.000 0.000 -15.000
v 240.000 0.000 -15.000
v 240.000 0.000 -5.000
v 250.000 0.000 -5.000
v 250.000 0.000 -5.000
v 240.000 0.000 -5.000
v 240.000 0.000 5.000
v 250.000 0.000 5.000
v 250.000 0.000 5.000
v 240.000 0.000 5.000
v 240.000 0.000 15.000
v 250.000 0.000 15.000
v 250.000 0.000 15.000
v 240.000 0.000 15.000
v 240.000 0.000 25.000
v 250.000 0.000 25.000
v 250.000 0.000 25.000
v 240.000 0.000 25.000
v 240.000 0.000 35.000
v 250.000 0.000 35.000
v 250.000 0.000 35.000
v 240.000 0.000 35.000
v 240.000 0.000 45.000
v 250.000 0.000 45.000
v 250.000 0.000 45.000
v 240.000 0.000 45.000
v 240.000 0.000 55.000
v 250.000 0.000 55.000
v 250.000 0.000 55.000
v 240.000 0.000 55.000
v 240.000 0.000 65.000
v 250.000 0.000 65.000
v 250.000 0.000 65.000
v 240.000 0.000 65.000
v 240.000 0.000 75.000
v 250.000 0.000 75.000
v 250.000 0.000 75.000
v 240.000 0.000 75.000
v 240.000 0.000 85.000
v 250.000 0.000 85.000
v 240.000 0.000 -55.000
v 230.000 0.000 -55.000
v 230.000 0.000 -45.000
v 240.000 0.000 -45.000
v 240.000 0.000 -45.000
v 230.000 0.000 -45.000
v 230.000 0.000 -35.000
v 240.000 0.000 -35.000
v 240.000 0.000 -35.000
v 230.000 0.000 -35.000
v 230.000 0.000 -25.000
v 240.000 0.000 -25.000
v 240.000 0.000 -25.000
v 230.000 0.000 -25.000
v 230.000 0.000 -15.000
v 240.000 0.000 -15.000
v 240.000 0.000 -15.000
v 230.000 0.000 -15.000
v 230.000 0.000 -5.000
v 240.000 0.000 -5.000
v 240.000 0.000 -5.000
v 230.000 0.000 -5.000
v 230.000 0.000 5.000
v 240.000 0.000 5.000
v 240.000 0.000 5.000
v 230.000 0.000 5.000
v 230.000 0.000 15.000
v 240.000 0.000 15.000
v 240.000 0.000 15.000
v 230.000 0.000 15.000
v 230.000 0.000 25.000
v 240.000 0.000 25.000
v 240.000 0.000 25.000
v 230.000 0.000 25.000
v 230.000 0.000 35.000
v 240.000 0.000 35.000
v 240.000 0.000 35.000
v 230.000 0.000 35.000
v 230.000 0.000 45.000
v 240.000 0.000 45.000
v 240.000 0.000 45.000
v 230.000 0.000 45.000
v 230.000 0.000 55.000
v 240.000 0.000 55.000
v 240.000 0.000 55.000
v 230.000 0.000 55.000
v 230.000 0.000 65.000
v 240.000 0.000 65.000
v 240.000 0.000 65.000
v 230.000 0.000 65.000
v 230.000 0.000 75.000
v 240.000 0.000 75.000
v 240.000 0.000 75.000
v 230.000 0.000 75.000
v 230.000 0.000 85.000
v 240.000 0.000 85.000
v 230.000 0.000 -55.000
v 220.000 0.000 -55.000
v 220.000 0.000 -45.000
v 230.000 0.000 -45.000
v 230.000 0.000 -45.000
v 220.000 0.000 -45.000
v 220.000 0.000 -35.000
v 230.000 0.000 -35.000
v 230.000 0.000 -35.000
v 220.000 0.000 -35.000
v 220.000 0.000 -25.000
v 230.000 0.000 -25.000
v 230.000 0.000 -25.000
v 220.000 0.000 -25.000
v 220.000 0.000 -15.000
v 230.000 0.000 -15.000
v 230.000 0.000 -15.000
v 220.000 0.000 -15.000
v 220.000 0.000 -5.000
v 230.000 0.000 -5.000
v 230.000 0.000 -5.000
v 220.000 0.000 -5.000
v 220.000 0.000 5.000
v 230.000 0.000 5.000
v 230.000 0.000 5.000
v 220.000 0.000 5.000
v 220.000 0.000 15.000
v 230.000 0.000 15.000
v 230.000 0.000 15.000
v 220.000 0.000 15.000
v 220.000 0.000 25.000
v 230.000 0.000 25.000
v 230.000 0.000 25.000
v 220.000 0.000 25.000
v 220.000 0.000 35.000
v 230.000 0.000 35.000
v 230.000 0.000 35.000
v 220.000 0.000 35.000
v 220.000 0.000 45.000
v 230.000 0.000 45.000
v 230.000 0.000 45.000
v 220.000 0.000 45.000
v 220.000 0.000 55.000
v 230.000 0.000 55.000
v 230.000 0.000 55.000
v 220.000 0.000 55.000
v 220.000 0.000 65.000
v 230.000 0.000 65.000
v 230.000 0.000 65.000
v 220.000 0.000 65.000
v 220.000 0.000 75.000
v 230.000 0.000 75.000
v 230.000 0.000 75.000
v 220.000 0.000 75.000
v 220.000 0.000 85.000
v 230.000 0.000 85.000
v 220.000 0.000 -55.000
v 210.000 0.000 -55.000
v 210.000 0.000 -45.000
v 220.000 0.000 -45.000
v 220.000 0.000 -45.000
v 210.000 0.000 -45.000
v 210.000 0.000 -35.000
v 220.000 0.000 -35.000
v 220.000 0.000 -35.000
v 210.000 0.000 -35.000
v 210.000 0.000 -25.000
v 220.000 0.000 -25.000
v 220.000 0.000 -25.000
v 210.000 0.000 -25.000
v 210.000 0.000 -15.000
v 220.000 0.000 -15.000
v 220.000 0.000 -15.000
v 210.000 0.000 -15.000
v 210.000 0.000 -5.000
v 220.000 0.000 -5.000
v 220.000 0.000 -5.000
v 210.000 0.000 -5.000
v 210.000 0.000 5.000
v 220.000 0.000 5.000
v 220.000 0.000 5.000
v 210.000 0.000 5.000
v 210.000 0.000 15.000
v 220.000 0.000 15.000
v 220.000 0.000 15.000
v 210.000 0.000 15.000
v 210.000 0.000 25.000
v 220.000 0.000 25.000
v 220.000 0.000 25.000
v 210.000 0.000 25.000
v 210.000 0.000 35.000
v 220.000 0.000 35.000
v 220.000 0.000 35.000
v 210.000 0.000 35.000
v 210.000 0.000 45.000
v 220.000 0.000 45.000
v 220.000 0.000 45.000
v 210.000 0.000 45.000
v 210.000 0.000 55.000
v 220.000 0.000 55.000
v 220.000 0.000 55.000
v 210.000 0.000 55.000
v 210.000 0.000 65.000
v 220.000 0.000 65.000
v 220.000 0.000 65.000
v 210.000 0.000 65.000
v 210.000 0.000 75.000
v 220.000 0.000 75.000
v 220.000 0.000 75.000
v 210.000 0.000 75.000
v 210.000 0.000 85.000
v 220.000 0.000 85.000
v 210.000 0.000 -55.000
v 200.000 0.000 -55.000
v 200.000 0.000 -45.000
v 210.000 0.000 -45.000
v 210.000 0.000 -45.000
v 200.000 0.000 -45.000
v 200.000 0.000 -35.000
v 210.000 0.000 -35.000
v 210.000 0.000 -35.000
v 200.000 0.000 -35.000
v 200.000 0.000 -25.000
v 210.000 0.000 -25.000
v 210.000 0.000 -25.000
v 200.000 0.000 -25.000
v 200.000 0.000 -15.000
v 210.000 0.000 -15.000
v 210.000 0.000 -15.000
v 200.000 0.000 -15.000
v 200.000 0.000 -5.000
v 210.000 0.000 -5.000
v 210.000 0.000 -5.000
v 200.000 0.000 -5.000
v 200.000 0.000 5.000
v 210.000 0.000 5.000
v 210.000 0.000 5.000
v 200.000 0.000 5.000
v 200.000 0.000 15.000
v 210.000 0.000 15.000
v 210.000 0.000 15.000
v 200.000 0.000 15.000
v 200.000 0.000 25.000
v 210.000 0.000 25.000
v 210.000 0.000 25.000
v 200.000 0.000 25.000
v 200.000 0.000 35.000
v 210.000 0.000 35.000
v 210.000 0.000 35.000
v 200.000 0.000 35.000
v 200.000 0.000 45.000
v 210.000 0.000 45.000
v 210.000 0.000 45.000
v 200.000 0.000 45.000
v 200.000 0.000 55.000
v 210.000 0.000 55.000
v 210.000 0.000 55.000
v 200.000 0.000 55.000
v 200.000 0.000 65.000
v 210.000 0.000 65.000
v 210.000 0.000 65.000
v 200.000 0.000 65.000
v 200.000 0.000 75.000
v 210.000 0.000 75.000
v 210.000 0.000 75.000
v 200.000 0.000 75.000
v 200.000 0.000 85.000
v 210.000 0.000 85.000
v 200.000 0.000 -55.000
v 190.000 0.000 -55.000
v 190.000 0.000 -45.000
v 200.000 0.000 -45.000
v 200.000 0.000 -45.000
v 190.000 0.000 -45.000
v 190.000 0.000 -35.000
v 200.000 0.000 -35.000
v 200.000 0.000 -35.000
v 190.000 0.000 -35.000
v 190.000 0.000 -25.000
v 200.000 0.000 -25.000
v 200.000 0.000 -25.000
v 190.000 0.000 -25.000
v 190.000 0.000 -15.000
v 200.000 0.000 -15.000
v 200.000 0.000 -15.000
v 190.000 0.000 -15.000
v 190.000 0.000 -5.000
v 200.000 0.000 -5.000
v 200.000 0.000 -5.000
v 190.000 0.000 -5.000
v 190.000 0.000 5.000
v 200.000 0.000 5.000
v 200.000 0.000 5.000
v 190.000 0.000 5.000
v 190.000 0.000 15.000
v 200.000 0.000 15.000
v 200.000 0.000 15.000
v 190.000 0.000 15.000
v 190.000 0.000 25.000
v 200.000 0.000 25.000
v 200.000 0.000 25.000
v 190.000 0.000 25.000
v 190.000 0.000 35.000
v 200.000 0.000 35.000
v 200.000 0.000 35.000
v 190.000 0.000 35.000
v 190.000 0.000 45.000
v 200.000 0.000 45.000
v 200.000 0.000 45.000
v 190.000 0.000 45.000
v 190.000 0.000 55.000
v 200.000 0.000 55.000
v 200.000 0.000 55.000
v 190.000 0.000 55.000
v 190.000 0.000 65.000
v 200.000 0.000 65.000
v 200.000 0.000 65.000
v 190.000 0.000 65.000
v 190.000 0.000 75.000
v 200.000 0.000 75.000
v 200.000 0.000 75.000
v 190.000 0.000 75.000
v 190.000 0.000 85.000
v 200.000 0.000 85.000
v 190.000 0.000 -55.000
v 180.000 0.000 -55.000
v 180.000 0.000 -45.000
v 190.000 0.000 -45.000
v 190.000 0.000 -45.000
v 180.000 0.000 -45.000
v 180.000 0.000 -35.000
v 190.000 0.000 -35.000
v 190.000 0.000 -35.000
v 180.000 0.000 -35.000
v 180.000 0.000 -25.000
v 190.000 0.000 -25.000
v 190.000 0.000 -25.000
v 180.000 0.000 -25.000
v 180.000 0.000 -15.000
v 190.000 0.000 -15.000
v 190.000 0.000 -15.000
v 180.000 0.000 -15.000
v 180.000 0.000 -5.000
v 190.000 0.000 -5.000
v 190.000 0.000 -5.000
v 180.000 0.000 -5.000
v 180.000 0.000 5.000
v 190.000 0.000 5.000
v 190.000 0.000 5.000
v 180.000 0.000 5.000
v 180.000 0.000 15.000
v 190.000 0.000 15.000
v 190.000 0.000 15.000
v 180.000 0.000 15.000
v 180.000 0.000 25.000
v 190.000 0.000 25.000
v 190.000 0.000 25.000
v 180.000 0.000 25.000
v 180.000 0.000 35.000
v 190.000 0.000 35.000
v 190.000 0.000 35.000
v 180.000 0.000 35.000
v 180.000 0.000 45.000
v 190.000 0.000 45.000
v 190.000 0.000 45.000
v 180.000 0.000 45.000
v 180.000 0.000 55.000
v 190.000 0.000 55.000
v 190.000 0.000 55.000
v 180.000 0.000 55.000
v 180.000 0.000 65.000
v 190.000 0.000 65.000
v 190.000 0.000 65.000
v 180.000 0.000 65.000
v 180.000 0.000 75.000
v 190.000 0.000 75.000
v 190.000 0.000 75.000
v 180.000 0.000 75.000
v 180.000 0.000 85.000
v 190.000 0.000 85.000
v 180.000 0.000 -55.000
v 170.000 0.000 -55.000
v 170.000 0.000 -45.000
v 180.000 0.000 -45.000
v 180.000 0.000 -45.000
v 170.000 0.000 -45.000
v 170.000 0.000 -35.000
v 180.000 0.000 -35.000
v 180.000 0.000 -35.000
v 170.000 0.000 -35.000
v 170.000 0.000 -25.000
v 180.000 0.000 -25.000
v 180.000 0.000 -25.000
v 170.000 0.000 -25.000
v 170.000 0.000 -15.000
v 180.000 0.000 -15.000
v 180.000 0.000 -15.000
v 170.000 0.000 -15.000
v 170.000 0.000 -5.000
v 180.000 0.000 -5.000
v 180.000 0.000 -5.000
v 170.000 0.000 -5.000
v 170.000 0.000 5.000
v 180.000 0.000 5.000
v 180.000 0.000 5.000
v 170.000 0.000 5.000
v 170.000 0.000 15.000
v 180.000 0.000 15.000
v 180.000 0.000 15.000
v 170.000 0.000 15.000
v 170.000 0.000 25.000
v 180.000 0.000 25.000
v 180.000 0.000 25.000
v 170.000 0.000 25.000
v 170.000 0.000 35.000
v 180.000 0.000 35.000
v 180.000 0.000 35.000
v 170.000 0.000 35.000
v 170.000 0.000 45.000
v 180.000 0.000 45.000
v 180.000 0.000 45.000
v 170.000 0.000 45.000
v 170.000 0.000 55.000
v 180.000 0.000 55.000
v 180.000 0.000 55.000
v 170.000 0.000 55.000
v 170.000 0.000 65.000
v 180.000 0.000 65.000
v 180.000 0.000 65.000
v 170.000 0.000 65.000
v 170.000 0.000 75.000
v 180.000 0.000 75.000
v 180.000 0.000 75.000
v 170.000 0.000 75.000
v 170.000 0.000 85.000
v 180.000 0.000 85.000
v 170.000 0.000 -55.000
v 160.000 0.000 -55.000
v 160.000 0.000 -45.000
v 170.000 0.000 -45.000
v 170.000 0.000 -45.000
v 160.000 0.000 -45.000
v 160.000 0.000 -35.000
v 170.000 0.000 -35.000
v 170.000 0.000 -35.000
v 160.000 0.000 -35.000
v 160.000 0.000 -25.000
v 170.000 0.000 -25.000
v 170.000 0.000 -25.000
v 160.000 0.000 -25.000
v 160.000 0.000 -15.000
v 170.000 0.000 -15.000
v 170.000 0.000 -15.000
v 160.000 0.000 -15.000
v 160.000 0.000 -5.000
v 170.000 0.000 -5.000
v 170.000 0.000 -5.000
v 160.000 0.000 -5.000
v 160.000 0.000 5.000
v 170.000 0.000 5.000
v 170.000 0.000 5.000
v 160.000 0.000 5.000
v 160.000 0.000 15.000
v 170.000 0.000 15.000
v 170.000 0.000 15.000
v 160.000 0.000 15.000
v 160.000 0.000 25.000
v 170.000 0.000 25.000
v 170.000 0.000 25.000
v 160.000 0.000 25.000
v 160.000 0.000 35.000
v 170.000 0.000 35.000
v 170.000 0.000 35.000
v 160.000 0.000 35.000
v 160.000 0.000 45.000
v 170.000 0.000 45.000
v 170.000 0.000 45.000
v 160.000 0.000 45.000
v 160.000 0.000 55.000
v 170.000 0.000 55.000
v 170.000 0.000 55.000
v 160.000 0.000 55.000
v 160.000 0.000 65.000
v 170.000 0.000 65.000
v 170.000 0.000 65.000
v 160.000 0.000 65.000
v 160.000 0.000 75.000
v 170.000 0.000 75.000
v 170.000 0.000 75.000
v 160.000 0.000 75.000
v 160.000 0.000 85.000
v 170.000 0.000 85.000
v 160.000 0.000 -55.000
v 150.000 0.000 -55.000
v 150.000 0.000 -45.000
v 160.000 0.000 -45.000
v 160.000 0.000 -45.000
v 150.000 0.000 -45.000
v 150.000 0.000 -35.000
v 160.000 0.000 -35.000
v 160.000 0.000 -35.000
v 150.000 0.000 -35.000
v 150.000 0.000 -25.000
v 160.000 0.000 -25.000
v 160.000 0.000 -25.000
v 150.000 0.000 -25.000
v 150.000 0.000 -15.000
v 160.000 0.000 -15.000
v 160.000 0.000 -15.000
v 150.000 0.000 -15.000
v 150.000 0.000 -5.000
v 160.000 0.000 -5.000
v 160.000 0.000 -5.000
v 150.000 0.000 -5.000
v 150.000 0.000 5.000
v 160.000 0.000 5.000
v 160.000 0.000 5.000
v 150.000 0.000 5.000
v 150.000 0.000 15.000
v 160.000 0.000 15.000
v 160.000 0.000 15.000
v 150.000 0.000 15.000
v 150.000 0.000 25.000
v 160.000 0.000 25.000
v 160.000 0.000 25.000
v 150.000 0.000 25.000
v 150.000 0.000 35.000
v 160.000 0.000 35.000
v 160.000 0.000 35.000
v 150.000 0.000 35.000
v 150.000 0.000 45.000
v 160.000 0.000 45.000
v 160.000 0.000 45.000
v 150.000 0.000 45.000
v 150.000 0.000 55.000
v 160.000 0.000 55.000
v 160.000 0.000 55.000
v 150.000 0.000 55.000
v 150.000 0.000 65.000
v 160.000 0.000 65.000
v 160.000 0.000 65.000
v 150.000 0.000 65.000
v 150.000 0.000 75.000
v 160.000 0.000 75.000
v 160.000 0.000 75.000
v 150.000 0.000 75.000
v 150.000 0.000 85.000
v 160.000 0.000 85.000
v 150.000 0.000 -55.000
v 140.000 0.000 -55.000
v 140.000 0.000 -45.000
v 150.000 0.000 -45.000
v 150.000 0.000 -45.000
v 140.000 0.000 -45.000
v 140.000 0.000 -35.000
v 150.000 0.000 -35.000
v 150.000 0.000 -35.000
v 140.000 0.000 -35.000
v 140.000 0.000 -25.000
v 150.000 0.000 -25.000
v 150.000 0.000 -25.000
v 140.000 0.000 -25.000
v 140.000 0.000 -15.000
v 150.000 0.000 -15.000
v 150.000 0.000 -15.000
v 140.000 0.000 -15.000
v 140.000 0.000 -5.000
v 150.000 0.000 -5.000
v 150.000 0.000 -5.000
v 140.000 0.000 -5.000
v 140.000 0.000 5.000
v 150.000 0.000 5.000
v 150.000 0.000 5.000
v 140.000 0.000 5.000
v 140.000 0.000 15.000
v 150.000 0.000 15.000
v 150.000 0.000 15.000
v 140.000 0.000 15.000
v 140.000 0.000 25.000
v 150.000 0.000 25.000
v 150.000 0.000 25.000
v 140.000 0.000 25.000
v 140.000 0.000 35.000
v 150.000 0.000 35.000
v 150.000 0.000 35.000
v 140.000 0.000 35.000
v 140.000 0.000 45.000
v 150.000 0.000 45.000
v 150.000 0.000 45.000
v 140.000 0.000 45.000
v 140.000 0.000 55.000
v 150.000 0.000 55.000
v 150.000 0.000 55.000
v 140.000 0.000 55.000
v 140.000 0.000 65.000
v 150.000 0.000 65.000
v 150.000 0.000 65.000
v 140.000 0.000 65.000
v 140.000 0.000 75.000
v 150.000 0.000 75.000
v 150.000 0.000 75.000
v 140.000 0.000 75.000
v 140.000 0.000 85.000
v 150.000 0.000 85.000
v 140.000 0.000 -55.000
v 130.000 0.000 -55.000
v 130.000 0.000 -45.000
v 140.000 0.000 -45.000
v 140.000 0.000 -45.000
v 130.000 0.000 -45.000
v 130.000 0.000 -35.000
v 140.000 0.000 -35.000
v 140.000 0.000 -35.000
v 130.000 0.000 -35.000
v 130.000 0.000 -25.000
v 140.000 0.000 -25.000
v 140.000 0.000 -25.000
v 130.000 0.000 -25.000
v 130.000 0.000 -15.000
v 140.000 0.000 -15.000
v 140.000 0.000 -15.000
v 130.000 0.000 -15.000
v 130.000 0.000 -5.000
v 140.000 0.000 -5.000
v 140.000 0.000 -5.000
v 130.000 0.000 -5.000
v 130.000 0.000 5.000
v 140.000 0.000 5.000
v 140.000 0.000 5.000
v 130.000 0.000 5.000
v 130.000 0.000 15.000
v 140.000 0.000 15.000
v 140.000 0.000 15.000
v 130.000 0.000 15.000
v 130.000 0.000 25.000
v 140.000 0.000 25.000
v 140.000 0.000 25.000
v 130.000 0.000 25.000
v 130.000 0.000 35.000
v 140.000 0.000 35.000
v 140.000 0.000 35.000
v 130.000 0.000 35.000
v 130.000 0.000 45.000
v 140.000 0.000 45.000
v 140.000 0.000 45.000
v 130.000 0.000 45.000
v 130.000 0.000 55.000
v 140.000 0.000 55.000
v 140.000 0.000 55.000
v 130.000 0.000 55.000
v 130.000 0.000 65.000
v 140.000 0.000 65.000
v 140.000 0.000 65.000
v 130.000 0.000 65.000
v 130.000 0.000 75.000
v 140.000 0.000 75.000
v 140.000 0.000 75.000
v 130.000 0.000 75.000
v 130.000 0.000 85.000
v 140.000 0.000 85.000
v 130.000 0.000 -55.000
v 120.000 0.000 -55.000
v 120.000 0.000 -45.000
v 130.000 0.000 -45.000
v 130.000 0.000 -45.000
v 120.000 0.000 -45.000
v 120.000 0.000 -35.000
v 130.000 0.000 -35.000
v 130.000 0.000 -35.000
v 120.000 0.000 -35.000
v 120.000 0.000 -25.000
v 130.000 0.000 -25.000
v 130.000 0.000 -25.000
v 120.000 0.000 -25.000
v 120.000 0.000 -15.000
v 130.000 0.000 -15.000
v 130.000 0.000 -15.000
v 120.000 0.000 -15.000
v 120.000 0.000 -5.000
v 130.000 0.000 -5.000
v 130.000 0.000 -5.000
v 120.000 0.000 -5.000
v 120.000 0.000 5.000
v 130.000 0.000 5.000
v 130.000 0.000 5.000
v 120.000 0.000 5.000
v 120.000 0.000 15.000
v 130.000 0.000 15.000
v 130.000 0.000 15.000
v 120.000 0.000 15.000
v 120.000 0.000 25.000
v 130.000 0.000 25.000
v 130.000 0.000 25.000
v 120.000 0.000 25.000
v 120.000 0.000 35.000
v 130.000 0.000 35.000
v 130.000 0.000 35.000
v 120.000 0.000 35.000
v 120.000 0.000 45.000
v 130.000 0.000 45.000
v 130.000 0.000 45.000
v 120.000 0.000 45.000
v 120.000 0.000 55.000
v 130.000 0.000 55.000
v 130.000 0.000 55.000
v 120.000 0.000 55.000
v 120.000 0.000 65.000
v 130.000 0.000 65.000
v 130.000 0.000 65.000
v 120.000 0.000 65.000
v 120.000 0.000 75.000
v 130.000 0.000 75.000
v 130.000 0.000 75.000
v 120.000 0.000 75.000
v 120.000 0.000 85.000
v 130.000 0.000 85.000
v 120.000 0.000 -55.000
v 110.000 0.000 -55.000
v 110.000 0.000 -45.000
v 120.000 0.000 -45.000
v 120.000 0.000 -45.000
v 110.000 0.000 -45.000
v 110.000 0.000 -35.000
v 120.000 0.000 -35.000
v 120.000 0.000 -35.000
v 110.000 0.000 -35.000
v 110.000 0.000 -25.000
v 120.000 0.000 -25.000
v 120.000 0.000 -25.000
v 110.000 0.000 -25.000
v 110.000 0.000 -15.000
v 120.000 0.000 -15.000
v 120.000 0.000 -15.000
v 110.000 0.000 -15.000
v 110.000 0.000 -5.000
v 120.000 0.000 -5.000
v 120.000 0.000 -5.000
v 110.000 0.000 -5.000
v 110.000 0.000 5.000
v 120.000 0.000 5.000
v 120.000 0.000 5.000
v 110.000 0.000 5.000
v 110.000 0.000 15.000
v 120.000 0.000 15.000
v 120.000 0.000 15.000
v 110.000 0.000 15.000
v 110.000 0.000 25.000
v 120.000 0.000 25.000
v 120.000 0.000 25.000
v 110.000 0.000 25.000
v 110.000 0.000 35.000
v 120.000 0.000 35.000
v 120.000 0.000 35.000
v 110.000 0.000 35.000
v 110.000 0.000 45.000
v 120.000 0.000 45.000
v 120.000 0.000 45.000
v 110.000 0.000 45.000
v 110.000 0.000 55.000
v 120.000 0.000 55.000
v 120.000 0.000 55.000
v 110.000 0.000 55.000
v 110.000 0.000 65.000
v 120.000 0.000 65.000
v 120.000 0.000 65.000
v 110.000 0.000 65.000
v 110.000 0.000 75.000
v 120.000 0.000 75.000
v 120.000 0.000 75.000
v 110.000 0.000 75.000
v 110.000 0.000 85.000
v 120.000 0.000 85.000
v 110.000 0.000 -55.000
v 100.000 0.000 -55.000
v 100.000 0.000 -45.000
v 110.000 0.000 -45.000
v 110.000 0.000 -45.000
v 100.000 0.000 -45.000
v 100.000 0.000 -35.000
v 110.000 0.000 -35.000
v 110.000 0.000 -35.000
v 100.000 0.000 -35.000
v 100.000 0.000 -25.000
v 110.000 0.000 -25.000
v 110.000 0.000 -25.000
v 100.000 0.000 -25.000
v 100.000 0.000 -15.000
v 110.000 0.000 -15.000
v 110.000 0.000 -15.000
v 100.000 0.000 -15.000
v 100.000 0.000 -5.000
v 110.000 0.000 -5.000
v 110.000 0.000 -5.000
v 100.000 0.000 -5.000
v 100.000 0.000 5.000
v 110.000 0.000 5.000
v 110.000 0.000 5.000
v 100.000 0.000 5.000
v 100.000 0.000 15.000
v 110.000 0.000 15.000
v 110.000 0.000 15.000
v 100.000 0.000 15.000
v 100.000 0.000 25.000
v 110.000 0.000 25.000
v 110.000 0.000 25.000
v 100.000 0.000 25.000
v 100.000 0.000 35.000
v 110.000 0.000 35.000
v 110.000 0.000 35.000
v 100.000 0.000 35.000
v 100.000 0.000 45.000
v 110.000 0.000 45.000
v 110.000 0.000 45.000
v 100.000 0.000 45.000
v 100.000 0.000 55.000
v 110.000 0.000 55.000
v 110.000 0.000 55.000
v 100.000 0.000 55.000
v 100.000 0.000 65.000
v 110.000 0.000 65.000
v 110.000 0.000 65.000
v 100.000 0.000 65.000
v 100.000 0.000 75.000
v 110.000 0.000 75.000
v 110.000 0.000 75.000
v 100.000 0.000 75.000
v 100.000 0.000 85.000
v 110.000 0.000 85.000
v 100.000 0.000 -55.000
v 90.000 0.000 -55.000
v 90.000 0.000 -45.000
v 100.000 0.000 -45.000
v 100.000 0.000 -45.000
v 90.000 0.000 -45.000
v 90.000 0.000 -35.000
v 100.000 0.000 -35.000
v 100.000 0.000 -35.000
v 90.000 0.000 -35.000
v 90.000 0.000 -25.000
v 100.000 0.000 -25.000
v 100.000 0.000 -25.000
v 90.000 0.000 -25.000
v 90.000 0.000 -15.000
v 100.000 0.000 -15.000
v 100.000 0.000 -15.000
v 90.000 0.000 -15.000
v 90.000 0.000 -5.000
v 100.000 0.000 -5.000
v 100.000 0.000 -5.000
v 90.000 0.000 -5.000
v 90.000 0.000 5.000
v 100.000 0.000 5.000
v 100.000 0.000 5.000
v 90.000 0.000 5.000
v 90.000 0.000 15.000
v 100.000 0.000 15.000
v 100.000 0.000 15.000
v 90.000 0.000 15.000
v 90.000 0.000 25.000
v 100.000 0.000 25.000
v 100.000 0.000 25.000
v 90.000 0.000 25.000
v 90.000 0.000 35.000
v 100.000 0.000 35.000
v 100.000 0.000 35.000
v 90.000 0.000 35.000
v 90.000 0.000 45.000
v 100.000 0.000 45.000
v 100.000 0.000 45.000
v 90.000 0.000 45.000
v 90.000 0.000 55.000
v 100.000 0.000 55.000
v 100.000 0.000 55.000
v 90.000 0.000 55.000
v 90.000 0.000 65.000
v 100.000 0.000 65.000
v 100.000 0.000 65.000
v 90.000 0.000 65.000
v 90.000 0.000 75.000
v 100.000 0.000 75.000
v 100.000 0.000 75.000
v 90.000 0.000 75.000
v 90.000 0.000 85.000
v 100.000 0.000 85.000
v 90.000 0.000 -55.000
v 80.000 0.000 -55.000
v 80.000 0.000 -45.000
v 90.000 0.000 -45.000
v 90.000 0.000 -45.000
v 80.000 0.000 -45.000
v 80.000 0.000 -35.000
v 90.000 0.000 -35.000
v 90.000 0.000 -35.000
v 80.000 0.000 -35.000
v 80.000 0.000 -25.000
v 90.000 0.000 -25.000
v 90.000 0.000 -25.000
v 80.000 0.000 -25.000
v 80.000 0.000 -15.000
v 90.000 0.000 -15.000
v 90.000 0.000 -15.000
v 80.000 0.000 -15.000
v 80.000 0.000 -5.000
v 90.000 0.000 -5.000
v 90.000 0.000 -5.000
v 80.000 0.000 -5.000
v 80.000 0.000 5.000
v 90.000 0.000 5.000
v 90.000 0.000 5.000
v 80.000 0.000 5.000
v 80.000 0.000 15.000
v 90.000 0.000 15.000
v 90.000 0.000 15.000
v 80.000 0.000 15.000
v 80.000 0.000 25.000
v 90.000 0.000 25.000
v 90.000 0.000 25.000
v 80.000 0.000 25.000
v 80.000 0.000 35.000
v 90.000 0.000 35.000
v 90.000 0.000 35.000
v 80.000 0.000 35.000
v 80.000 0.000 45.000
v 90.000 0.000 45.000
v 90.000 0.000 45.000
v 80.000 0.000 45.000
v 80.000 0.000 55.000
v 90.000 0.000 55.000
v 90.000 0.000 55.000
v 80.000 0.000 55.000
v 80.000 0.000 65.000
v 90.000 0.000 65.000
v 90.000 0.000 65.000
v 80.000 0.000 65.000
v 80.000 0.000 75.000
v 90.000 0.000 75.000
v 90.000 0.000 75.000
v 80.000 0.000 75.000
v 80.000 0.000 85.000
v 90.000 0.000 85.000
v 80.000 0.000 -55.000
v 70.000 0.000 -55.000
v 70.000 0.000 -45.000
v 80.000 0.000 -45.000
v 80.000 0.000 -45.000
v 70.000 0.000 -45.000
v 70.000 0.000 -35.000
v 80.000 0.000 -35.000
v 80.000 0.000 -35.000
v 70.000 0.000 -35.000
v 70.000 0.000 -25.000
v 80.000 0.000 -25.000
v 80.000 0.000 -25.000
v 70.000 0.000 -25.000
v 70.000 0.000 -15.000
v 80.000 0.000 -15.000
v 80.000 0.000 -15.000
v 70.000 0.000 -15.000
v 70.000 0.000 -5.000
v 80.000 0.000 -5.000
v 80.000 0.000 -5.000
v 70.000 0.000 -5.000
v 70.000 0.000 5.000
v 80.000 0.000 5.000
v 80.000 0.000 5.000
v 70.000 0.000 5.000
v 70.000 0.000 15.000
v 80.000 0.000 15.000
v 80.000 0.000 15.000
v 70.000 0.000 15.000
v 70.000 0.000 25.000
v 80.000 0.000 25.000
v 80.000 0.000 25.000
v 70.000 0.000 25.000
v 70.000 0.000 35.000
v 80.000 0.000 35.000
v 80.000 0.000 35.000
v 70.000 0.000 35.000
v 70.000 0.000 45.000
v 80.000 0.000 45.000
v 80.000 0.000 45.000
v 70.000 0.000 45.000
v 70.000 0.000 55.000
v 80.000 0.000 55.000
v 80.000 0.000 55.000
v 70.000 0.000 55.000
v 70.000 0.000 65.000
v 80.000 0.000 65.000
v 80.000 0.000 65.000
v 70.000 0.000 65.000
v 70.000 0.000 75.000
v 80.000 0.000 75.000
v 80.000 0.000 75.000
v 70.000 0.000 75.000
v 70.000 0.000 85.000
v 80.000 0.000 85.000
v 70.000 0.000 -55.000
v 60.000 0.000 -55.000
v 60.000 0.000 -45.000
v 70.000 0.000 -45.000
v 70.000 0.000 -45.000
v 60.000 0.000 -45.000
v 60.000 0.000 -35.000
v 70.000 0.000 -35.000
v 70.000 0.000 -35.000
v 60.000 0.000 -35.000
v 60.000 0.000 -25.000
v 70.000 0.000 -25.000
v 70.000 0.000 -25.000
v 60.000 0.000 -25.000
v 60.000 0.000 -15.000
v 70.000 0.000 -15.000
v 70.000 0.000 -15.000
v 60.000 0.000 -15.000
v 60.000 0.000 -5.000
v 70.000 0.000 -5.000
v 70.000 0.000 -5.000
v 60.000 0.000 -5.000
v 60.000 0.000 5.000
v 70.000 0.000 5.000
v 70.000 0.000 5.000
v 60.000 0.000 5.000
v 60.000 0.000 15.000
v 70.000 0.000 15.000
v 70.000 0.000 15.000
v 60.000 0.000 15.000
v 60.000 0.000 25.000
v 70.000 0.000 25.000
v 70.000 0.000 25.000
v 60.000 0.000 25.000
v 60.000 0.000 35.000
v 70.000 0.000 35.000
v 70.000 0.000 35.000
v 60.000 0.000 35.000
v 60.000 0.000 45.000
v 70.000 0.000 45.000
v 70.000 0.000 45.000
v 60.000 0.000 45.000
v 60.000 0.000 55.000
v 70.000 0.000 55.000
v 70.000 0.000 55.000
v 60.000 0.000 55.000
v 60.000 0.000 65.000
v 70.000 0.000 65.000
v 70.000 0.000 65.000
v 60.000 0.000 65.000
v 60.000 0.000 75.000
v 70.000 0.000 75.000
v 70.000 0.000 75.000
v 60.000 0.000 75.000
v 60.000 0.000 85.000
v 70.000 0.000 85.000
v 60.000 0.000 -55.000
v 50.000 0.000 -55.000
v 50.000 0.000 -45.000
v 60.000 0.000 -45.000
v 60.000 0.000 -45.000
v 50.000 0.000 -45.000
v 50.000 0.000 -35.000
v 60.000 0.000 -35.000
v 60.000 0.000 -35.000
v 50.000 0.000 -35.000
v 50.000 0.000 -25.000
v 60.000 0.000 -25.000
v 60.000 0.000 -25.000
v 50.000 0.000 -25.000
v 50.000 0.000 -15.000
v 60.000 0.000 -15.000
v 60.000 0.000 -15.000
v 50.000 0.000 -15.000
v 50.000 0.000 -5.000
v 60.000 0.000 -5.000
v 60.000 0.000 -5.000
v 50.000 0.000 -5.000
v 50.000 0.000 5.000
v 60.000 0.000 5.000
v 60.000 0.000 5.000
v 50.000 0.000 5.000
v 50.000 0.000 15.000
v 60.000 0.000 15.000
v 60.000 0.000 15.000
v 50.000 0.000 15.000
v 50.000 0.000 25.000
v 60.000 0.000 25.000
v 60.000 0.000 25.000
v 50.000 0.000 25.000
v 50.000 0.000 35.000
v 60.000 0.000 35.000
v 60.000 0.000 35.000
v 50.000 0.000 35.000
v 50.000 0.000 45.000
v 60.000 0.000 45.000
v 60.000 0.000 45.000
v 50.000 0.000 45.000
v 50.000 0.000 55.000
v 60.000 0.000 55.000
v 60.000 0.000 55.000
v 50.000 0.000 55.000
v 50.000 0.000 65.000
v 60.000 0.000 65.000
v 60.000 0.000 65.000
v 50.000 0.000 65.000
v 50.000 0.000 75.000
v 60.000 0.000 75.000
v 60.000 0.000 75.000
v 50.000 0.000 75.000
v 50.000 0.000 85.000
v 60.000 0.000 85.000
v 50.000 0.000 -55.000
v 40.000 0.000 -55.000
v 40.000 0.000 -45.000
v 50.000 0.000 -45.000
v 50.000 0.000 -45.000
v 40.000 0.000 -45.000
v 40.000 0.000 -35.000
v 50.000 0.000 -35.000
v 50.000 0.000 -35.000
v 40.000 0.000 -35.000
v 40.000 0.000 -25.000
v 50.000 0.000 -25.000
v 50.000 0.000 -25.000
v 40.000 0.000 -25.000
v 40.000 0.000 -15.000
v 50.000 0.000 -15.000
v 50.000 0.000 -15.000
v 40.000 0.000 -15.000
v 40.000 0.000 -5.000
v 50.000 0.000 -5.000
v 50.000 0.000 -5.000
v 40.000 0.000 -5.000
v 40.000 0.000 5.000
v 50.000 0.000 5.000
v 50.000 0.000 5.000
v 40.000 0.000 5.000
v 40.000 0.000 15.000
v 50.000 0.000 15.000
v 50.000 0.000 15.000
v 40.000 0.000 15.000
v 40.000 0.000 25.000
v 50.000 0.000 25.000
v 50.000 0.000 25.000
v 40.000 0.000 25.000
v 40.000 0.000 35.000
v 50.000 0.000 35.000
v 50.000 0.000 35.000
v 40.000 0.000 35.000
v 40.000 0.000 45.000
v 50.000 0.000 45.000
v 50.000 0.000 45.000
v 40.000 0.000 45.000
v 40.000 0.000 55.000
v 50.000 0.000 55.000
v 50.000 0.000 55.000
v 40.000 0.000 55.000
v 40.000 0.000 65.000
v 50.000 0.000 65.000
v 50.000 0.000 65.000
v 40.000 0.000 65.000
v 40.000 0.000 75.000
v 50.000 0.000 75.000
v 50.000 0.000 75.000
v 40.000 0.000 75.000
v 40.000 0.000 85.000
v 50.000 0.000 85.000
v 40.000 0.000 -55.000
v 30.000 0.000 -55.000
v 30.000 0.000 -45.000
v 40.000 0.000 -45.000
v 40.000 0.000 -45.000
v 30.000 0.000 -45.000
v 30.000 0.000 -35.000
v 40.000 0.000 -35.000
v 40.000 0.000 -35.000
v 30.000 0.000 -35.000
v 30.000 0.000 -25.000
v 40.000 0.000 -25.000
v 40.000 0.000 -25.000
v 30.000 0.000 -25.000
v 30.000 0.000 -15.000
v 40.000 0.000 -15.000
v 40.000 0.000 -15.000
v 30.000 0.000 -15.000
v 30.000 0.000 -5.000
v 40.000 0.000 -5.000
v 40.000 0.000 -5.000
v 30.000 0.000 -5.000
v 30.000 0.000 5.000
v 40.000 0.000 5.000
v 40.000 0.000 5.000
v 30.000 0.000 5.000
v 30.000 0.000 15.000
v 40.000 0.000 15.000
v 40.000 0.000 15.000
v 30.000 0.000 15.000
v 30.000 0.000 25.000
v 40.000 0.000 25.000
v 40.000 0.000 25.000
v 30.000 0.000 25.000
v 30.000 0.000 35.000
v 40.000 0.000 35.000
v 40.000 0.000 35.000
v 30.000 0.000 35.000
v 30.000 0.000 45.000
v 40.000 0.000 45.000
v 40.000 0.000 45.000
v 30.000 0.000 45.000
v 30.000 0.000 55.000
v 40.000 0.000 55.000
v 40.000 0.000 55.000
v 30.000 0.000 55.000
v 30.000 0.000 65.000
v 40.000 0.000 65.000
v 40.000 0.000 65.000
v 30.000 0.000 65.000
v 30.000 0.000 75.000
v 40.000 0.000 75.000
v 40.000 0.000 75.000
v 30.000 0.000 75.000
v 30.000 0.000 85.000
v 40.000 0.000 85.000
v 30.000 0.000 -55.000
v 20.000 0.000 -55.000
v 20.000 0.000 -45.000
v 30.000 0.000 -45.000
v 30.000 0.000 -45.000
v 20.000 0.000 -45.000
v 20.000 0.000 -35.000
v 30.000 0.000 -35.000
v 30.000 0.000 -35.000
v 20.000 0.000 -35.000
v 20.000 0.000 -25.000
v 30.000 0.000 -25.000
v 30.000 0.000 -25.000
v 20.000 0.000 -25.000
v 20.000 0.000 -15.000
v 30.000 0.000 -15.000
v 30.000 0.000 -15.000
v 20.000 0.000 -15.000
v 20.000 0.000 -5.000
v 30.000 0.000 -5.000
v 30.000 0.000 -5.000
v 20.000 0.000 -5.000
v 20.000 0.000 5.000
v 30.000 0.000 5.000
v 30.000 0.000 5.000
v 20.000 0.000 5.000
v 20.000 0.000 15.000
v 30.000 0.000 15.000
v 30.000 0.000 15.000
v 20.000 0.000 15.000
v 20.000 0.000 25.000
v 30.000 0.000 25.000
v 30.000 0.000 25.000
v 20.000 0.000 25.000
v 20.000 0.000 35.000
v 30.000 0.000 35.000
v 30.000 0.000 35.000
v 20.000 0.000 35.000
v 20.000 0.000 45.000
v 30.000 0.000 45.000
v 30.000 0.000 45.000
v 20.000 0.000 45.000
v 20.000 0.000 55.000
v 30.000 0.000 55.000
v 30.000 0.000 55.000
v 20.000 0.000 55.000
v 20.000 0.000 65.000
v 30.000 0.000 65.000
v 30.000 0.000 65.000
v 20.000 0.000 65.000
v 20.000 0.000 75.000
v 30.000 0.000 75.000
v 30.000 0.000 75.000
v 20.000 0.000 75.000
v 20.000 0.000 85.000
v 30.000 0.000 85.000
v 20.000 0.000 -55.000
v 10.000 0.000 -55.000
v 10.000 0.000 -45.000
v 20.000 0.000 -45.000
v 20.000 0.000 -45.000
v 10.000 0.000 -45.000
v 10.000 0.000 -35.000
v 20.000 0.000 -35.000
v 20.000 0.000 -35.000
v 10.000 0.000 -35.000
v 10.000 0.000 -25.000
v 20.000 0.000 -25.000
v 20.000 0.000 -25.000
v 10.000 0.000 -25.000
v 10.000 0.000 -15.000
v 20.000 0.000 -15.000
v 20.000 0.000 -15.000
v 10.000 0.000 -15.000
v 10.000 0.000 -5.000
v 20.000 0.000 -5.000
v 20.000 0.000 -5.000
v 10.000 0.000 -5.000
v 10.000 0.000 5.000
v 20.000 0.000 5.000
v 20.000 0.000 5.000
v 10.000 0.000 5.000
v 10.000 0.000 15.000
v 20.000 0.000 15.000
v 20.000 0.000 15.000
v 10.000 0.000 15.000
v 10.000 0.000 25.000
v 20.000 0.000 25.000
v 20.000 0.000 25.000
v 10.000 0.000 25.000
v 10.000 0.000 35.000
v 20.000 0.000 35.000
v 20.000 0.000 35.000
v 10.000 0.000 35.000
v 10.000 0.000 45.000
v 20.000 0.000 45.000
v 20.000 0.000 45.000
v 10.000 0.000 45.000
v 10.000 0.000 55.000
v 20.000 0.000 55.000
v 20.000 0.000 55.000
v 10.000 0.000 55.000
v 10.000 0.000 65.000
v 20.000 0.000 65.000
v 20.000 0.000 65.000
v 10.000 0.000 65.000
v 10.000 0.000 75.000
v 20.000 0.000 75.000
v 20.000 0.000 75.000
v 10.000 0.000 75.000
v 10.000 0.000 85.000
v 20.000 0.000 85.000
v 10.000 0.000 -55.000
v 0.000 0.000 -55.000
v 0.000 0.000 -45.000
v 10.000 0.000 -45.000
v 10.000 0.000 -45.000
v 0.000 0.000 -45.000
v 0.000 0.000 -35.000
v 10.000 0.000 -35.000
v 10.000 0.000 -35.000
v 0.000 0.000 -35.000
v 0.000 0.000 -25.000
v 10.000 0.000 -25.000
v 10.000 0.000 -25.000
v 0.000 0.000 -25.000
v 0.000 0.000 -15.000
v 10.000 0.000 -15.000
v 10.000 0.000 -15.000
v 0.000 0.000 -15.000
v 0.000 0.000 -5.000
v 10.000 0.000 -5.000
v 10.000 0.000 -5.000
v 0.000 0.000 -5.000
v 0.000 0.000 5.000
v 10.000 0.000 5.000
v 10.000 0.000 5.000
v 0.000 0.000 5.000
v 0.000 0.000 15.000
v 10.000 0.000 15.000
v 10.000 0.000 15.000
v 0.000 0.000 15.000
v 0.000 0.000 25.000
v 10.000 0.000 25.000
v 10.000 0.000 25.000
v 0.000 0.000 25.000
v 0.000 0.000 35.000
v 10.000 0.000 35.000
v 10.000 0.000 35.000
v 0.000 0.000 35.000
v 0.000 0.000 45.000
v 10.000 0.000 45.000
v 10.000 0.000 45.000
v 0.000 0.000 45.000
v 0.000 0.000 55.000
v 10.000 0.000 55.000
v 10.000 0.000 55.000
v 0.000 0.000 55.000
v 0.000 0.000 65.000
v 10.000 0.000 65.000
v 10.000 0.000 65.000
v 0.000 0.000 65.000
v 0.000 0.000 75.000
v 10.000 0.000 75.000
v 10.000 0.000 75.000
v 0.000 0.000 75.000
v 0.000 0.000 85.000
v 10.000 0.000 85.000
v 0.000 0.000 -55.000
v -10.000 0.000 -55.000
v -10.000 0.000 -45.000
v 0.000 0.000 -45.000
v 0.000 0.000 -45.000
v -10.000 0.000 -45.000
v -10.000 0.000 -35.000
v 0.000 0.000 -35.000
v 0.000 0.000 -35.000
v -10.000 0.000 -35.000
v -10.000 0.000 -25.000
v 0.000 0.000 -25.000
v 0.000 0.000 -25.000
v -10.000 0.000 -25.000
v -10.000 0.000 -15.000
v 0.000 0.000 -15.000
v 0.000 0.000 -15.000
v -10.000 0.000 -15.000
v -10.000 0.000 -5.000
v 0.000 0.000 -5.000
v 0.000 0.000 -5.000
v -10.000 0.000 -5.000
v -10.000 0.000 5.000
v 0.000 0.000 5.000
v 0.000 0.000 5.000
v -10.000 0.000 5.000
v -10.000 0.000 15.000
v 0.000 0.000 15.000
v 0.000 0.000 15.000
v -10.000 0.000 15.000
v -10.000 0.000 25.000
v 0.000 0.000 25.000
v 0.000 0.000 25.000
v -10.000 0.000 25.000
v -10.000 0.000 35.000
v 0.000 0.000 35.000
v 0.000 0.000 35.000
v -10.000 0.000 35.000
v -10.000 0.000 45.000
v 0.000 0.000 45.000
v 0.000 0.000 45.000
v -10.000 0.000 45.000
v -10.000 0.000 55.000
v 0.000 0.000 55.000
v 0.000 0.000 55.000
v -10.000 0.000 55.000
v -10.000 0.000 65.000
v 0.000 0.000 65.000
v 0.000 0.000 65.000
v -10.000 0.000 65.000
v -10.000 0.000 75.000
v 0.000 0.000 75.000
v 0.000 0.000 75.000
v -10.000 0.000 75.000
v -10.000 0.000 85.000
v 0.000 0.000 85.000
v -10.000 0.000 -55.000
v -20.000 0.000 -55.000
v -20.000 0.000 -45.000
v -10.000 0.000 -45.000
v -10.000 0.000 -45.000
v -20.000 0.000 -45.000
v -20.000 0.000 -35.000
v -10.000 0.000 -35.000
v -10.000 0.000 -35.000
v -20.000 0.000 -35.000
v -20.000 0.000 -25.000
v -10.000 0.000 -25.000
v -10.000 0.000 -25.000
v -20.000 0.000 -25.000
v -20.000 0.000 -15.000
v -10.000 0.000 -15.000
v -10.000 0.000 -15.000
v -20.000 0.000 -15.000
v -20.000 0.000 -5.000
v -10.000 0.000 -5.000
v -10.000 0.000 -5.000
v -20.000 0.000 -5.000
v -20.000 0.000 5.000
v -10.000 0.000 5.000
v -10.000 0.000 5.000
v -20.000 0.000 5.000
v -20.000 0.000 15.000
v -10.000 0.000 15.000
v -10.000 0.000 15.000
v -20.000 0.000 15.000
v -20.000 0.000 25.000
v -10.000 0.000 25.000
v -10.000 0.000 25.000
v -20.000 0.000 25.000
v -20.000 0.000 35.000
v -10.000 0.000 35.000
v -10.000 0.000 35.000
v -20.000 0.000 35.000
v -20.000 0.000 45.000
v -10.000 0.000 45.000
v -10.000 0.000 45.000
v -20.000 0.000 45.000
v -20.000 0.000 55.000
v -10.000 0.000 55.000
v -10.000 0.000 55.000
v -20.000 0.000 55.000
v -20.000 0.000 65.000
v -10.000 0.000 65.000
v -10.000 0.000 65.000
v -20.000 0.000 65.000
v -20.000 0.000 75.000
v -10.000 0.000 75.000
v -10.000 0.000 75.000
v -20.000 0.000 75.000
v -20.000 0.000 85.000
v -10.000 0.000 85.000
v -20.000 0.000 -55.000
v -30.000 0.000 -55.000
v -30.000 0.000 -45.000
v -20.000 0.000 -45.000
v -20.000 0.000 -45.000
v -30.000 0.000 -45.000
v -30.000 0.000 -35.000
v -20.000 0.000 -35.000
v -20.000 0.000 -35.000
v -30.000 0.000 -35.000
v -30.000 0.000 -25.000
v -20.000 0.000 -25.000
v -20.000 0.000 -25.000
v -30.000 0.000 -25.000
v -30.000 0.000 -15.000
v -20.000 0.000 -15.000
v -20.000 0.000 -15.000
v -30.000 0.000 -15.000
v -30.000 0.000 -5.000
v -20.000 0.000 -5.000
v -20.000 0.000 -5.000
v -30.000 0.000 -5.000
v -30.000 0.000 5.000
v -20.000 0.000 5.000
v -20.000 0.000 5.000
v -30.000 0.000 5.000
v -30.000 0.000 15.000
v -20.000 0.000 15.000
v -20.000 0.000 15.000
v -30.000 0.000 15.000
v -30.000 0.000 25.000
v -20.000 0.000 25.000
v -20.000 0.000 25.000
v -30.000 0.000 25.000
v -30.000 0.000 35.000
v -20.000 0.000 35.000
v -20.000 0.000 35.000
v -30.000 0.000 35.000
v -30.000 0.000 45.000
v -20.000 0.000 45.000
v -20.000 0.000 45.000
v -30.000 0.000 45.000
v -30.000 0.000 55.000
v -20.000 0.000 55.000
v -20.000 0.000 55.000
v -30.000 0.000 55.000
v -30.000 0.000 65.000
v -20.000 0.000 65.000
v -20.000 0.000 65.000
v -30.000 0.000 65.000
v -30.000 0.000 75.000
v -20.000 0.000 75.000
v -20.000 0.000 75.000
v -30.000 0.000 75.000
v -30.000 0.000 85.000
v -20.000 0.000 85.000
v -30.000 0.000 -55.000
v -40.000 0.000 -55.000
v -40.000 0.000 -45.000
v -30.000 0.000 -45.000
v -30.000 0.000 -45.000
v -40.000 0.000 -45.000
v -40.000 0.000 -35.000
v -30.000 0.000 -35.000
v -30.000 0.000 -35.000
v -40.000 0.000 -35.000
v -40.000 0.000 -25.000
v -30.000 0.000 -25.000
v -30.000 0.000 -25.000
v -40.000 0.000 -25.000
v -40.000 0.000 -15.000
v -30.000 0.000 -15.000
v -30.000 0.000 -15.000
v -40.000 0.000 -15.000
v -40.000 0.000 -5.000
v -30.000 0.000 -5.000
v -30.000 0.000 -5.000
v -40.000 0.000 -5.000
v -40.000 0.000 5.000
v -30.000 0.000 5.000
v -30.000 0.000 5.000
v -40.000 0.000 5.000
v -40.000 0.000 15.000
v -30.000 0.000 15.000
v -30.000 0.000 15.000
v -40.000 0.000 15.000
v -40.000 0.000 25.000
v -30.000 0.000 25.000
v -30.000 0.000 25.000
v -40.000 0.000 25.000
v -40.000 0.000 35.000
v -30.000 0.000 35.000
v -30.000 0.000 35.000
v -40.000 0.000 35.000
v -40.000 0.000 45.000
v -30.000 0.000 45.000
v -30.000 0.000 45.000
v -40.000 0.000 45.000
v -40.000 0.000 55.000
v -30.000 0.000 55.000
v -30.000 0.000 55.000
v -40.000 0.000 55.000
v -40.000 0.000 65.000
v -30.000 0.000 65.000
v -30.000 0.000 65.000
v -40.000 0.000 65.000
v -40.000 0.000 75.000
v -30.000 0.000 75.000
v -30.000 0.000 75.000
v -40.000 0.000 75.000
v -40.000 0.000 85.000
v -30.000 0.000 85.000
v -40.000 0.000 -55.000
v -50.000 0.000 -55.000
v -50.000 0.000 -45.000
v -40.000 0.000 -45.000
v -40.000 0.000 -45.000
v -50.000 0.000 -45.000
v -50.000 0.000 -35.000
v -40.000 0.000 -35.000
v -40.000 0.000 -35.000
v -50.000 0.000 -35.000
v -50.000 0.000 -25.000
v -40.000 0.000 -25.000
v -40.000 0.000 -25.000
v -50.000 0.000 -25.000
v -50.000 0.000 -15.000
v -40.000 0.000 -15.000
v -40.000 0.000 -15.000
v -50.000 0.000 -15.000
v -50.000 0.000 -5.000
v -40.000 0.000 -5.000
v -40.000 0.000 -5.000
v -50.000 0.000 -5.000
v -50.000 0.000 5.000
v -40.000 0.000 5.000
v -40.000 0.000 5.000
v -50.000 0.000 5.000
v -50.000 0.000 15.000
v -40.000 0.000 15.000
v -40.000 0.000 15.000
v -50.000 0.000 15.000
v -50.000 0.000 25.000
v -40.000 0.000 25.000
v -40.000 0.000 25.000
v -50.000 0.000 25.000
v -50.000 0.000 35.000
v -40.000 0.000 35.000
v -40.000 0.000 35.000
v -50.000 0.000 35.000
v -50.000 0.000 45.000
v -40.000 0.000 45.000
v -40.000 0.000 45.000
v -50.000 0.000 45.000
v -50.000 0.000 55.000
v -40.000 0.000 55.000
v -40.000 0.000 55.000
v -50.000 0.000 55.000
v -50.000 0.000 65.000
v -40.000 0.000 65.000
v -40.000 0.000 65.000
v -50.000 0.000 65.000
v -50.000 0.000 75.000
v -40.000 0.000 75.000
v -40.000 0.000 75.000
v -50.000 0.000 75.000
v -50.000 0.000 85.000
v -40.000 0.000 85.000
v -50.000 0.000 -55.000
v -60.000 0.000 -55.000
v -60.000 0.000 -45.000
v -50.000 0.000 -45.000
v -50.000 0.000 -45.000
v -60.000 0.000 -45.000
v -60.000 0.000 -35.000
v -50.000 0.000 -35.000
v -50.000 0.000 -35.000
v -60.000 0.000 -35.000
v -60.000 0.000 -25.000
v -50.000 0.000 -25.000
v -50.000 0.000 -25.000
v -60.000 0.000 -25.000
v -60.000 0.000 -15.000
v -50.000 0.000 -15.000
v -50.000 0.000 -15.000
v -60.000 0.000 -15.000
v -60.000 0.000 -5.000
v -50.000 0.000 -5.000
v -50.000 0.000 -5.000
v -60.000 0.000 -5.000
v -60.000 0.000 5.000
v -50.000 0.000 5.000
v -50.000 0.000 5.000
v -60.000 0.000 5.000
v -60.000 0.000 15.000
v -50.000 0.000 15.000
v -50.000 0.000 15.000
v -60.000 0.000 15.000
v -60.000 0.000 25.000
v -50.000 0.000 25.000
v -50.000 0.000 25.000
v -60.000 0.000 25.000
v -60.000 0.000 35.000
v -50.000 0.000 35.000
v -50.000 0.000 35.000
v -60.000 0.000 35.000
v -60.000 0.000 45.000
v -50.000 0.000 45.000
v -50.000 0.000 45.000
v -60.000 0.000 45.000
v -60.000 0.000 55.000
v -50.000 0.000 55.000
v -50.000 0.000 55.000
v -60.000 0.000 55.000
v -60.000 0.000 65.000
v -50.000 0.000 65.000
v -50.000 0.000 65.000
v -60.000 0.000 65.000
v -60.000 0.000 75.000
v -50.000 0.000 75.000
v -50.000 0.000 75.000
v -60.000 0.000 75.000
v -60.000 0.000 85.000
v -50.000 0.000 85.000
v -60.000 0.000 -55.000
v -70.000 0.000 -55.000
v -70.000 0.000 -45.000
v -60.000 0.000 -45.000
v -60.000 0.000 -45.000
v -70.000 0.000 -45.000
v -70.000 0.000 -35.000
v -60.000 0.000 -35.000
v -60.000 0.000 -35.000
v -70.000 0.000 -35.000
v -70.000 0.000 -25.000
v -60.000 0.000 -25.000
v -60.000 0.000 -25.000
v -70.000 0.000 -25.000
v -70.000 0.000 -15.000
v -60.000 0.000 -15.000
v -60.000 0.000 -15.000
v -70.000 0.000 -15.000
v -70.000 0.000 -5.000
v -60.000 0.000 -5.000
v -60.000 0.000 -5.000
v -70.000 0.000 -5.000
v -70.000 0.000 5.000
v -60.000 0.000 5.000
v -60.000 0.000 5.000
v -70.000 0.000 5.000
v -70.000 0.000 15.000
v -60.000 0.000 15.000
v -60.000 0.000 15.000
v -70.000 0.000 15.000
v -70.000 0.000 25.000
v -60.000 0.000 25.000
v -60.000 0.000 25.000
v -70.000 0.000 25.000
v -70.000 0.000 35.000
v -60.000 0.000 35.000
v -60.000 0.000 35.000
v -70.000 0.000 35.000
v -70.000 0.000 45.000
v -60.000 0.000 45.000
v -60.000 0.000 45.000
v -70.000 0.000 45.000
v -70.000 0.000 55.000
v -60.000 0.000 55.000
v -60.000 0.000 55.000
v -70.000 0.000 55.000
v -70.000 0.000 65.000
v -60.000 0.000 65.000
v -60.000 0.000 65.000
v -70.000 0.000 65.000
v -70.000 0.000 75.000
v -60.000 0.000 75.000
v -60.000 0.000 75.000
v -70.000 0.000 75.000
v -70.000 0.000 85.000
v -60.000 0.000 85.000
v -70.000 0.000 -55.000
v -80.000 0.000 -55.000
v -80.000 0.000 -45.000
v -70.000 0.000 -45.000
v -70.000 0.000 -45.000
v -80.000 0.000 -45.000
v -80.000 0.000 -35.000
v -70.000 0.000 -35.000
v -70.000 0.000 -35.000
v -80.000 0.000 -35.000
v -80.000 0.000 -25.000
v -70.000 0.000 -25.000
v -70.000 0.000 -25.000
v -80.000 0.000 -25.000
v -80.000 0.000 -15.000
v -70.000 0.000 -15.000
v -70.000 0.000 -15.000
v -80.000 0.000 -15.000
v -80.000 0.000 -5.000
v -70.000 0.000 -5.000
v -70.000 0.000 -5.000
v -80.000 0.000 -5.000
v -80.000 0.000 5.000
v -70.000 0.000 5.000
v -70.000 0.000 5.000
v -80.000 0.000 5.000
v -80.000 0.000 15.000
v -70.000 0.000 15.000
v -70.000 0.000 15.000
v -80.000 0.000 15.000
v -80.000 0.000 25.000
v -70.000 0.000 25.000
v -70.000 0.000 25.000
v -80.000 0.000 25.000
v -80.000 0.000 35.000
v -70.000 0.000 35.000
v -70.000 0.000 35.000
v -80.000 0.000 35.000
v -80.000 0.000 45.000
v -70.000 0.000 45.000
v -70.000 0.000 45.000
v -80.000 0.000 45.000
v -80.000 0.000 55.000
v -70.000 0.000 55.000
v -70.000 0.000 55.000
v -80.000 0.000 55.000
v -80.000 0.000 65.000
v -70.000 0.000 65.000
v -70.000 0.000 65.000
v -80.000 0.000 65.000
v -80.000 0.000 75.000
v -70.000 0.000 75.000
v -70.000 0.000 75.000
v -80.000 0.000 75.000
v -80.000 0.000 85.000
v -70.000 0.000 85.000
v -80.000 0.000 -55.000
v -90.000 0.000 -55.000
v -90.000 0.000 -45.000
v -80.000 0.000 -45.000
v -80.000 0.000 -45.000
v -90.000 0.000 -45.000
v -90.000 0.000 -35.000
v -80.000 0.000 -35.000
v -80.000 0.000 -35.000
v -90.000 0.000 -35.000
v -90.000 0.000 -25.000
v -80.000 0.000 -25.000
v -80.000 0.000 -25.000
v -90.000 0.000 -25.000
v -90.000 0.000 -15.000
v -80.000 0.000 -15.000
v -80.000 0.000 -15.000
v -90.000 0.000 -15.000
v -90.000 0.000 -5.000
v -80.000 0.000 -5.000
v -80.000 0.000 -5.000
v -90.000 0.000 -5.000
v -90.000 0.000 5.000
v -80.000 0.000 5.000
v -80.000 0.000 5.000
v -90.000 0.000 5.000
v -90.000 0.000 15.000
v -80.000 0.000 15.000
v -80.000 0.000 15.000
v -90.000 0.000 15.000
v -90.000 0.000 25.000
v -80.000 0.000 25.000
v -80.000 0.000 25.000
v -90.000 0.000 25.000
v -90.000 0.000 35.000
v -80.000 0.000 35.000
v -80.000 0.000 35.000
v -90.000 0.000 35.000
v -90.000 0.000 45.000
v -80.000 0.000 45.000
v -80.000 0.000 45.000
v -90.000 0.000 45.000
v -90.000 0.000 55.000
v -80.000 0.000 55.000
v -80.000 0.000 55.000
v -90.000 0.000 55.000
v -90.000 0.000 65.000
v -80.000 0.000 65.000
v -80.000 0.000 65.000
v -90.000 0.000 65.000
v -90.000 0.000 75.000
v -80.000 0.000 75.000
v -80.000 0.000 75.000
v -90.000 0.000 75.000
v -90.000 0.000 85.000
v -80.000 0.000 85.000
v -90.000 0.000 -55.000
v -100.000 0.000 -55.000
v -100.000 0.000 -45.000
v -90.000 0.000 -45.000
v -90.000 0.000 -45.000
v -100.000 0.000 -45.000
v -100.000 0.000 -35.000
v -90.000 0.000 -35.000
v -90.000 0.000 -35.000
v -100.000 0.000 -35.000
v -100.000 0.000 -25.000
v -90.000 0.000 -25.000
v -90.000 0.000 -25.000
v -100.000 0.000 -25.000
v -100.000 0.000 -15.000
v -90.000 0.000 -15.000
v -90.000 0.000 -15.000
v -100.000 0.000 -15.000
v -100.000 0.000 -5.000
v -90.000 0.000 -5.000
v -90.000 0.000 -5.000
v -100.000 0.000 -5.000
v -100.000 0.000 5.000
v -90.000 0.000 5.000
v -90.000 0.000 5.000
v -100.000 0.000 5.000
v -100.000 0.000 15.000
v -90.000 0.000 15.000
v -90.000 0.000 15.000
v -100.000 0.000 15.000
v -100.000 0.000 25.000
v -90.000 0.000 25.000
v -90.000 0.000 25.000
v -100.000 0.000 25.000
v -100.000 0.000 35.000
v -90.000 0.000 35.000
v -90.000 0.000 35.000
v -100.000 0.000 35.000
v -100.000 0.000 45.000
v -90.000 0.000 45.000
v -90.000 0.000 45.000
v -100.000 0.000 45.000
v -100.000 0.000 55.000
v -90.000 0.000 55.000
v -90.000 0.000 55.000
v -100.000 0.000 55.000
v -100.000 0.000 65.000
v -90.000 0.000 65.000
v -90.000 0.000 65.000
v -100.000 0.000 65.000
v -100.000 0.000 75.000
v -90.000 0.000 75.000
v -90.000 0.000 75.000
v -100.000 0.000 75.000
v -100.000 0.000 85.000
v -90.000 0.000 85.000
v -100.000 0.000 -55.000
v -110.000 0.000 -55.000
v -110.000 0.000 -45.000
v -100.000 0.000 -45.000
v -100.000 0.000 -45.000
v -110.000 0.000 -45.000
v -110.000 0.000 -35.000
v -100.000 0.000 -35.000
v -100.000 0.000 -35.000
v -110.000 0.000 -35.000
v -110.000 0.000 -25.000
v -100.000 0.000 -25.000
v -100.000 0.000 -25.000
v -110.000 0.000 -25.000
v -110.000 0.000 -15.000
v -100.000 0.000 -15.000
v -100.000 0.000 -15.000
v -110.000 0.000 -15.000
v -110.000 0.000 -5.000
v -100.000 0.000 -5.000
v -100.000 0.000 -5.000
v -110.000 0.000 -5.000
v -110.000 0.000 5.000
v -100.000 0.000 5.000
v -100.000 0.000 5.000
v -110.000 0.000 5.000
v -110.000 0.000 15.000
v -100.000 0.000 15.000
v -100.000 0.000 15.000
v -110.000 0.000 15.000
v -110.000 0.000 25.000
v -100.000 0.000 25.000
v -100.000 0.000 25.000
v -110.000 0.000 25.000
v -110.000 0.000 35.000
v -100.000 0.000 35.000
v -100.000 0.000 35.000
v -110.000 0.000 35.000
v -110.000 0.000 45.000
v -100.000 0.000 45.000
v -100.000 0.000 45.000
v -110.000 0.000 45.000
v -110.000 0.000 55.000
v -100.000 0.000 55.000
v -100.000 0.000 55.000
v -110.000 0.000 55.000
v -110.000 0.000 65.000
v -100.000 0.000 65.000
v -100.000 0.000 65.000
v -110.000 0.000 65.000
v -110.000 0.000 75.000
v -100.000 0.000 75.000
v -100.000 0.000 75.000
v -110.000 0.000 75.000
v -110.000 0.000 85.000
v -100.000 0.000 85.000
v 1.000 0.020 -53.000
v -1.000 0.020 -53.000
v -1.000 0.020 0.000
v 1.000 0.020 0.000
v 1.000 0.100 -53.000
v -1.000 0.100 -53.000
v -1.000 0.100 0.000
v 1.000 0.100 0.000
v 1.600 0.000 0.000
v 1.386 0.000 -0.800
v 0.800 0.000 -1.386
v 0.000 0.000 -1.600
v -0.800 0.000 -1.386
v -1.386 0.000 -0.800
v -1.600 0.000 0.000
v -1.386 0.000 0.800
v -0.800 0.000 1.386
v 0.000 0.000 1.600
v 0.800 0.000 1.386
v 1.386 0.000 0.800
v 0.500 2.200 0.000
v 0.433 2.200 -0.250
v 0.250 2.200 -0.433
v 0.000 2.200 -0.500
v -0.250 2.200 -0.433
v -0.433 2.200 -0.250
v -0.500 2.200 0.000
v -0.433 2.200 0.250
v -0.250 2.200 0.433
v 0.000 2.200 0.500
v 0.250 2.200 0.433
v 0.433 2.200 0.250
v 0.000 0.000 0.000
v 0.000 2.200 0.000
v 0.500 2.200 0.000
v 0.354 2.200 -0.354
v 0.000 2.200 -0.500
v -0.354 2.200 -0.354
v -0.500 2.200 0.000
v -0.354 2.200 0.354
v 0.000 2.200 0.500
v 0.354 2.200 0.354
v 0.500 3.000 0.000
v 0.354 3.000 -0.354
v 0.000 3.000 -0.500
v -0.354 3.000 -0.354
v -0.500 3.000 0.000
v -0.354 3.000 0.354
v 0.000 3.000 0.500
v 0.354 3.000 0.354
v 0.000 2.200 0.000
v 0.000 3.000 0.000
v 301.600 0.000 0.000
v 301.386 0.000 -0.800
v 300.800 0.000 -1.386
v 300.000 0.000 -1.600
v 299.200 0.000 -1.386
v 298.614 0.000 -0.800
v 298.400 0.000 0.000
v 298.614 0.000 0.800
v 299.200 0.000 1.386
v 300.000 0.000 1.600
v 300.800 0.000 1.386
v 301.386 0.000 0.800
v 300.500 2.200 0.000
v 300.433 2.200 -0.250
v 300.250 2.200 -0.433
v 300.000 2.200 -0.500
v 299.750 2.200 -0.433
v 299.567 2.200 -0.250
v 299.500 2.200 0.000
v 299.567 2.200 0.250
v 299.750 2.200 0.433
v 300.000 2.200 0.500
v 300.250 2.200 0.433
v 300.433 2.200 0.250
v 300.000 0.000 0.000
v 300.000 2.200 0.000
v 300.500 2.200 0.000
v 300.354 2.200 -0.354
v 300.000 2.200 -0.500
v 299.646 2.200 -0.354
v 299.500 2.200 0.000
v 299.646 2.200 0.354
v 300.000 2.200 0.500
v 300.354 2.200 0.354
v 300.500 3.000 0.000
v 300.354 3.000 -0.354
v 300.000 3.000 -0.500
v 299.646 3.000 -0.354
v 299.500 3.000 0.000
v 299.646 3.000 0.354
v 300.000 3.000 0.500
v 300.354 3.000 0.354
v 300.000 2.200 0.000
v 300.000 3.000 0.000
v 260.900 0.000 -23.000
v 260.728 0.000 -23.529
v 260.278 0.000 -23.856
v 259.722 0.000 -23.856
v 259.272 0.000 -23.529
v 259.100 0.000 -23.000
v 259.272 0.000 -22.471
v 259.722 0.000 -22.144
v 260.278 0.000 -22.144
v 260.728 0.000 -22.471
v 260.350 1.600 -23.000
v 260.283 1.600 -23.206
v 260.108 1.600 -23.333
v 259.892 1.600 -23.333
v 259.717 1.600 -23.206
v 259.650 1.600 -23.000
v 259.717 1.600 -22.794
v 259.892 1.600 -22.667
v 260.108 1.600 -22.667
v 260.283 1.600 -22.794
v 260.000 0.000 -23.000
v 260.000 1.600 -23.000
v 382.000 0.000 -53.000
v 288.000 0.000 -53.000
v 288.000 0.000 -49.000
v 382.000 0.000 -49.000
v 382.000 1.200 -53.000
v 288.000 1.200 -53.000
v 288.000 1.200 -49.000
v 382.000 1.200 -49.000
v 382.000 0.000 -69.000
v 288.000 0.000 -69.000
v 288.000 0.000 -53.000
v 382.000 0.000 -53.000
v 382.000 2.000 -69.000
v 288.000 2.000 -69.000
v 288.000 2.000 -53.000
v 382.000 2.000 -53.000
v 380.400 0.000 -53.000
v 379.600 0.000 -53.000
v 379.600 0.000 -41.000
v 380.400 0.000 -41.000
v 380.400 0.800 -53.000
v 379.600 0.800 -53.000
v 379.600 0.800 -41.000
v 380.400 0.800 -41.000
v 365.400 0.000 -53.000
v 364.600 0.000 -53.000
v 364.600 0.000 -41.000
v 365.400 0.000 -41.000
v 365.400 0.800 -53.000
v 364.600 0.800 -53.000
v 364.600 0.800 -41.000
v 365.400 0.800 -41.000
v 350.400 0.000 -53.000
v 349.600 0.000 -53.000
v 349.600 0.000 -41.000
v 350.400 0.000 -41.000
v 350.400 0.800 -53.000
v 349.600 0.800 -53.000
v 349.600 0.800 -41.000
v 350.400 0.800 -41.000
v 335.400 0.000 -53.000
v 334.600 0.000 -53.000
v 334.600 0.000 -41.000
v 335.400 0.000 -41.000
v 335.400 0.800 -53.000
v 334.600 0.800 -53.000
v 334.600 0.800 -41.000
v 335.400 0.800 -41.000
v 320.400 0.000 -53.000
v 319.600 0.000 -53.000
v 319.600 0.000 -41.000
v 320.400 0.000 -41.000
v 320.400 0.800 -53.000
v 319.600 0.800 -53.000
v 319.600 0.800 -41.000
v 320.400 0.800 -41.000
v 305.400 0.000 -53.000
v 304.600 0.000 -53.000
v 304.600 0.000 -41.000
v 305.400 0.000 -41.000
v 305.400 0.800 -53.000
v 304.600 0.800 -53.000
v 304.600 0.800 -41.000
v 305.400 0.800 -41.000
v 290.400 0.000 -53.000
v 289.600 0.000 -53.000
v 289.600 0.000 -41.000
v 290.400 0.000 -41.000
v 290.400 0.800 -53.000
v 289.600 0.800 -53.000
v 289.600 0.800 -41.000
v 290.400 0.800 -41.000
v 384.000 7.500 -69.000
v 286.000 7.500 -69.000
v 286.000 7.500 -45.000
v 384.000 7.500 -45.000
v 384.000 8.300 -69.000
v 286.000 8.300 -69.000
v 286.000 8.300 -45.000
v 384.000 8.300 -45.000
v 380.500 2.000 -68.000
v 379.500 2.000 -68.000
v 379.500 2.000 -67.000
v 380.500 2.000 -67.000
v 380.500 7.500 -68.000
v 379.500 7.500 -68.000
v 379.500 7.500 -67.000
v 380.500 7.500 -67.000
v 350.500 2.000 -68.000
v 349.500 2.000 -68.000
v 349.500 2.000 -67.000
v 350.500 2.000 -67.000
v 350.500 7.500 -68.000
v 349.500 7.500 -68.000
v 349.500 7.500 -67.000
v 350.500 7.500 -67.000
v 320.500 2.000 -68.000
v 319.500 2.000 -68.000
v 319.500 2.000 -67.000
v 320.500 2.000 -67.000
v 320.500 7.500 -68.000
v 319.500 7.500 -68.000
v 319.500 7.500 -67.000
v 320.500 7.500 -67.000
v 290.500 2.000 -68.000
v 289.500 2.000 -68.000
v 289.500 2.000 -67.000
v 290.500 2.000 -67.000
v 290.500 7.500 -68.000
v 289.500 7.500 -68.000
v 289.500 7.500 -67.000
v 290.500 7.500 -67.000
v 270.000 0.000 -89.000
v -60.000 0.000 -89.000
v -60.000 0.000 -61.000
v 270.000 0.000 -61.000
v 270.000 4.000 -89.000
v -60.000 4.000 -89.000
v -60.000 4.000 -61.000
v 270.000 4.000 -61.000
v 270.000 0.000 -80.000
v -60.000 0.000 -80.000
v -60.000 0.000 -61.000
v 270.000 0.000 -61.000
v 270.000 9.000 -80.000
v -60.000 9.000 -80.000
v -60.000 9.000 -61.000
v 270.000 9.000 -61.000
v 270.000 0.000 -71.000
v -60.000 0.000 -71.000
v -60.000 0.000 -61.000
v 270.000 0.000 -61.000
v 270.000 14.000 -71.000
v -60.000 14.000 -71.000
v -60.000 14.000 -61.000
v 270.000 14.000 -61.000
v 270.000 0.000 -91.000
v -60.000 0.000 -91.000
v -60.000 0.000 -89.000
v 270.000 0.000 -89.000
v 270.000 20.000 -91.000
v -60.000 20.000 -91.000
v -60.000 20.000 -89.000
v 270.000 20.000 -89.000
v 274.000 20.000 -92.000
v -64.000 20.000 -92.000
v -64.000 20.000 -69.000
v 274.000 20.000 -69.000
v 274.000 22.000 -92.000
v -64.000 22.000 -92.000
v -64.000 22.000 -69.000
v 274.000 22.000 -69.000
v 260.800 4.000 -70.000
v 259.200 4.000 -70.000
v 259.200 4.000 -68.000
v 260.800 4.000 -68.000
v 260.800 20.000 -70.000
v 259.200 20.000 -70.000
v 259.200 20.000 -68.000
v 260.800 20.000 -68.000
v 220.800 4.000 -70.000
v 219.200 4.000 -70.000
v 219.200 4.000 -68.000
v 220.800 4.000 -68.000
v 220.800 20.000 -70.000
v 219.200 20.000 -70.000
v 219.200 20.000 -68.000
v 220.800 20.000 -68.000
v 180.800 4.000 -70.000
v 179.200 4.000 -70.000
v 179.200 4.000 -68.000
v 180.800 4.000 -68.000
v 180.800 20.000 -70.000
v 179.200 20.000 -70.000
v 179.200 20.000 -68.000
v 180.800 20.000 -68.000
v 140.800 4.000 -70.000
v 139.200 4.000 -70.000
v 139.200 4.000 -68.000
v 140.800 4.000 -68.000
v 140.800 20.000 -70.000
v 139.200 20.000 -70.000
v 139.200 20.000 -68.000
v 140.800 20.000 -68.000
v 100.800 4.000 -70.000
v 99.200 4.000 -70.000
v 99.200 4.000 -68.000
v 100.800 4.000 -68.000
v 100.800 20.000 -70.000
v 99.200 20.000 -70.000
v 99.200 20.000 -68.000
v 100.800 20.000 -68.000
v 60.800 4.000 -70.000
v 59.200 4.000 -70.000
v 59.200 4.000 -68.000
v 60.800 4.000 -68.000
v 60.800 20.000 -70.000
v 59.200 20.000 -70.000
v 59.200 20.000 -68.000
v 60.800 20.000 -68.000
v 20.800 4.000 -70.000
v 19.200 4.000 -70.000
v 19.200 4.000 -68.000
v 20.800 4.000 -68.000
v 20.800 20.000 -70.000
v 19.200 20.000 -70.000
v 19.200 20.000 -68.000
v 20.800 20.000 -68.000
v -19.200 4.000 -70.000
v -20.800 4.000 -70.000
v -20.800 4.000 -68.000
v -19.200 4.000 -68.000
v -19.200 20.000 -70.000
v -20.800 20.000 -70.000
v -20.800 20.000 -68.000
v -19.200 20.000 -68.000
v 270.000 4.000 -61.400
v -60.000 4.000 -61.400
v -60.000 4.000 -61.000
v 270.000 4.000 -61.000
v 270.000 14.000 -61.400
v -60.000 14.000 -61.400
v -60.000 14.000 -61.000
v 270.000 14.000 -61.000
v 6.000 0.000 -71.000
v -6.000 0.000 -71.000
v -6.000 0.000 -61.000
v 6.000 0.000 -61.000
v 6.000 20.000 -71.000
v -6.000 20.000 -71.000
v -6.000 20.000 -61.000
v 6.000 20.000 -61.000
v 5.500 14.000 -61.400
v -5.500 14.000 -61.400
v -5.500 14.000 -61.000
v 5.500 14.000 -61.000
v 5.500 18.000 -61.400
v -5.500 18.000 -61.400
v -5.500 18.000 -61.000
v 5.500 18.000 -61.000
v -4.500 24.000 -60.600
v -4.347 22.835 -60.600
v -3.897 21.750 -60.600
v -3.182 20.818 -60.600
v -2.250 20.103 -60.600
v -1.165 19.653 -60.600
v 0.000 19.500 -60.600
v 1.165 19.653 -60.600
v 2.250 20.103 -60.600
v 3.182 20.818 -60.600
v 3.897 21.750 -60.600
v 4.347 22.835 -60.600
v 4.500 24.000 -60.600
v 4.347 25.165 -60.600
v 3.897 26.250 -60.600
v 3.182 27.182 -60.600
v 2.250 27.897 -60.600
v 1.165 28.347 -60.600
v 0.000 28.500 -60.600
v -1.165 28.347 -60.600
v -2.250 27.897 -60.600
v -3.182 27.182 -60.600
v -3.897 26.250 -60.600
v -4.347 25.165 -60.600
v -4.500 24.000 -59.600
v -4.347 22.835 -59.600
v -3.897 21.750 -59.600
v -3.182 20.818 -59.600
v -2.250 20.103 -59.600
v -1.165 19.653 -59.600
v 0.000 19.500 -59.600
v 1.165 19.653 -59.600
v 2.250 20.103 -59.600
v 3.182 20.818 -59.600
v 3.897 21.750 -59.600
v 4.347 22.835 -59.600
v 4.500 24.000 -59.600
v 4.347 25.165 -59.600
v 3.897 26.250 -59.600
v 3.182 27.182 -59.600
v 2.250 27.897 -59.600
v 1.165 28.347 -59.600
v 0.000 28.500 -59.600
v -1.165 28.347 -59.600
v -2.250 27.897 -59.600
v -3.182 27.182 -59.600
v -3.897 26.250 -59.600
v -4.347 25.165 -59.600
v 0.000 24.000 -60.600
v 0.000 24.000 -59.600
v 1.000 18.000 -61.000
v -1.000 18.000 -61.000
v -1.000 18.000 -60.000
v 1.000 18.000 -60.000
v 1.000 24.000 -61.000
v -1.000 24.000 -61.000
v -1.000 24.000 -60.000
v 1.000 24.000 -60.000
v 0.300 24.000 -59.500
v -0.300 24.000 -59.500
v -0.300 24.000 -59.300
v 0.300 24.000 -59.300
v 0.300 28.000 -59.500
v -0.300 28.000 -59.500
v -0.300 28.000 -59.300
v 0.300 28.000 -59.300
v 350.400 0.000 80.600
v 349.600 0.000 80.600
v 349.600 0.000 81.400
v 350.400 0.000 81.400
v 350.400 15.000 80.600
v 349.600 15.000 80.600
v 349.600 15.000 81.400
v 350.400 15.000 81.400
v 308.400 0.000 80.600
v 307.600 0.000 80.600
v 307.600 0.000 81.400
v 308.400 0.000 81.400
v 308.400 15.000 80.600
v 307.600 15.000 80.600
v 307.600 15.000 81.400
v 308.400 15.000 81.400
v 266.400 0.000 80.600
v 265.600 0.000 80.600
v 265.600 0.000 81.400
v 266.400 0.000 81.400
v 266.400 15.000 80.600
v 265.600 15.000 80.600
v 265.600 15.000 81.400
v 266.400 15.000 81.400
v 224.400 0.000 80.600
v 223.600 0.000 80.600
v 223.600 0.000 81.400
v 224.400 0.000 81.400
v 224.400 15.000 80.600
v 223.600 15.000 80.600
v 223.600 15.000 81.400
v 224.400 15.000 81.400
v 182.400 0.000 80.600
v 181.600 0.000 80.600
v 181.600 0.000 81.400
v 182.400 0.000 81.400
v 182.400 15.000 80.600
v 181.600 15.000 80.600
v 181.600 15.000 81.400
v 182.400 15.000 81.400
v 140.400 0.000 80.600
v 139.600 0.000 80.600
v 139.600 0.000 81.400
v 140.400 0.000 81.400
v 140.400 15.000 80.600
v 139.600 15.000 80.600
v 139.600 15.000 81.400
v 140.400 15.000 81.400
v 98.400 0.000 80.600
v 97.600 0.000 80.600
v 97.600 0.000 81.400
v 98.400 0.000 81.400
v 98.400 15.000 80.600
v 97.600 15.000 80.600
v 97.600 15.000 81.400
v 98.400 15.000 81.400
v 56.400 0.000 80.600
v 55.600 0.000 80.600
v 55.600 0.000 81.400
v 56.400 0.000 81.400
v 56.400 15.000 80.600
v 55.600 15.000 80.600
v 55.600 15.000 81.400
v 56.400 15.000 81.400
v 14.400 0.000 80.600
v 13.600 0.000 80.600
v 13.600 0.000 81.400
v 14.400 0.000 81.400
v 14.400 15.000 80.600
v 13.600 15.000 80.600
v 13.600 15.000 81.400
v 14.400 15.000 81.400
v -27.600 0.000 80.600
v -28.400 0.000 80.600
v -28.400 0.000 81.400
v -27.600 0.000 81.400
v -27.600 15.000 80.600
v -28.400 15.000 80.600
v -28.400 15.000 81.400
v -27.600 15.000 81.400
v 352.000 3.000 80.800
v -68.000 3.000 80.800
v -68.000 3.000 81.200
v 352.000 3.000 81.200
v 352.000 14.000 80.800
v -68.000 14.000 80.800
v -68.000 14.000 81.200
v 352.000 14.000 81.200
v 396.000 0.000 -65.000
v 395.707 0.000 -65.707
v 395.000 0.000 -66.000
v 394.293 0.000 -65.707
v 394.000 0.000 -65.000
v 394.293 0.000 -64.293
v 395.000 0.000 -64.000
v 395.707 0.000 -64.293
v 395.700 30.000 -65.000
v 395.495 30.000 -65.495
v 395.000 30.000 -65.700
v 394.505 30.000 -65.495
v 394.300 30.000 -65.000
v 394.505 30.000 -64.505
v 395.000 30.000 -64.300
v 395.495 30.000 -64.505
v 395.000 0.000 -65.000
v 395.000 30.000 -65.000
v 398.000 30.000 -66.200
v 392.000 30.000 -66.200
v 392.000 30.000 -63.800
v 398.000 30.000 -63.800
v 398.000 33.000 -66.200
v 392.000 33.000 -66.200
v 392.000 33.000 -63.800
v 398.000 33.000 -63.800
v -94.000 0.000 -65.000
v -94.293 0.000 -65.707
v -95.000 0.000 -66.000
v -95.707 0.000 -65.707
v -96.000 0.000 -65.000
v -95.707 0.000 -64.293
v -95.000 0.000 -64.000
v -94.293 0.000 -64.293
v -94.300 30.000 -65.000
v -94.505 30.000 -65.495
v -95.000 30.000 -65.700
v -95.495 30.000 -65.495
v -95.700 30.000 -65.000
v -95.495 30.000 -64.505
v -95.000 30.000 -64.300
v -94.505 30.000 -64.505
v -95.000 0.000 -65.000
v -95.000 30.000 -65.000
v -92.000 30.000 -66.200
v -98.000 30.000 -66.200
v -98.000 30.000 -63.800
v -92.000 30.000 -63.800
v -92.000 33.000 -66.200
v -98.000 33.000 -66.200
v -98.000 33.000 -63.800
v -92.000 33.000 -63.800
v 396.000 0.000 95.000
v 395.707 0.000 94.293
v 395.000 0.000 94.000
v 394.293 0.000 94.293
v 394.000 0.000 95.000
v 394.293 0.000 95.707
v 395.000 0.000 96.000
v 395.707 0.000 95.707
v 395.700 30.000 95.000
v 395.495 30.000 94.505
v 395.000 30.000 94.300
v 394.505 30.000 94.505
v 394.300 30.000 95.000
v 394.505 30.000 95.495
v 395.000 30.000 95.700
v 395.495 30.000 95.495
v 395.000 0.000 95.000
v 395.000 30.000 95.000
v 398.000 30.000 93.800
v 392.000 30.000 93.800
v 392.000 30.000 96.200
v 398.000 30.000 96.200
v 398.000 33.000 93.800
v 392.000 33.000 93.800
v 392.000 33.000 96.200
v 398.000 33.000 96.200
v -94.000 0.000 95.000
v -94.293 0.000 94.293
v -95.000 0.000 94.000
v -95.707 0.000 94.293
v -96.000 0.000 95.000
v -95.707 0.000 95.707
v -95.000 0.000 96.000
v -94.293 0.000 95.707
v -94.300 30.000 95.000
v -94.505 30.000 94.505
v -95.000 30.000 94.300
v -95.495 30.000 94.505
v -95.700 30.000 95.000
v -95.495 30.000 95.495
v -95.000 30.000 95.700
v -94.505 30.000 95.495
v -95.000 0.000 95.000
v -95.000 30.000 95.000
v -92.000 30.000 93.800
v -98.000 30.000 93.800
v -98.000 30.000 96.200
v -92.000 30.000 96.200
v -92.000 33.000 93.800
v -98.000 33.000 93.800
v -98.000 33.000 96.200
v -92.000 33.000 96.200
g water_deep
usemtl water_deep
g water
usemtl water
g line_yellow
usemtl line_yellow
g buoy_red
usemtl buoy_red
g buoy_orange
usemtl buoy_orange
f 3017 3018 3028 3027
f 3018 3019 3029 3028
f 3019 3020 3030 3029
f 3020 3021 3031 3030
f 3021 3022 3032 3031
f 3022 3023 3033 3032
f 3023 3024 3034 3033
f 3024 3025 3035 3034
f 3025 3026 3036 3035
f 3026 3017 3027 3036
f 3037 3018 3017
f 3038 3027 3028
f 3037 3019 3018
f 3038 3028 3029
f 3037 3020 3019
f 3038 3029 3030
f 3037 3021 3020
f 3038 3030 3031
f 3037 3022 3021
f 3038 3031 3032
f 3037 3023 3022
f 3038 3032 3033
f 3037 3024 3023
f 3038 3033 3034
f 3037 3025 3024
f 3038 3034 3035
f 3037 3026 3025
f 3038 3035 3036
f 3037 3017 3026
f 3038 3036 3027
g pit
usemtl pit
f 3039 3042 3041 3040
f 3043 3044 3045 3046
f 3039 3040 3044 3043
f 3041 3042 3046 3045
f 3040 3041 3045 3044
f 3042 3039 3043 3046
f 3047 3050 3049 3048
f 3051 3052 3053 3054
f 3047 3048 3052 3051
f 3049 3050 3054 3053
f 3048 3049 3053 3052
f 3050 3047 3051 3054
f 3055 3058 3057 3056
f 3059 3060 3061 3062
f 3055 3056 3060 3059
f 3057 3058 3062 3061
f 3056 3057 3061 3060
f 3058 3055 3059 3062
f 3063 3066 3065 3064
f 3067 3068 3069 3070
f 3063 3064 3068 3067
f 3065 3066 3070 3069
f 3064 3065 3069 3068
f 3066 3063 3067 3070
f 3071 3074 3073 3072
f 3075 3076 3077 3078
f 3071 3072 3076 3075
f 3073 3074 3078 3077
f 3072 3073 3077 3076
f 3074 3071 3075 3078
f 3079 3082 3081 3080
f 3083 3084 3085 3086
f 3079 3080 3084 3083
f 3081 3082 3086 3085
f 3080 3081 3085 3084
f 3082 3079 3083 3086
f 3087 3090 3089 3088
f 3091 3092 3093 3094
f 3087 3088 3092 3091
f 3089 3090 3094 3093
f 3088 3089 3093 3092
f 3090 3087 3091 3094
f 3095 3098 3097 3096
f 3099 3100 3101 3102
f 3095 3096 3100 3099
f 3097 3098 3102 3101
f 3096 3097 3101 3100
f 3098 3095 3099 3102
f 3103 3106 3105 3104
f 3107 3108 3109 3110
f 3103 3104 3108 3107
f 3105 3106 3110 3109
f 3104 3105 3109 3108
f 3106 3103 3107 3110
f 3119 3122 3121 3120
f 3123 3124 3125 3126
f 3119 3120 3124 3123
f 3121 3122 3126 3125
f 3120 3121 3125 3124
f 3122 3119 3123 3126
f 3127 3130 3129 3128
f 3131 3132 3133 3134
f 3127 3128 3132 3131
f 3129 3130 3134 3133
f 3128 3129 3133 3132
f 3130 3127 3131 3134
f 3135 3138 3137 3136
f 3139 3140 3141 3142
f 3135 3136 3140 3139
f 3137 3138 3142 3141
f 3136 3137 3141 3140
f 3138 3135 3139 3142
f 3143 3146 3145 3144
f 3147 3148 3149 3150
f 3143 3144 3148 3147
f 3145 3146 3150 3149
f 3144 3145 3149 3148
f 3146 3143 3147 3150
g roof
usemtl roof
f 3111 3114 3113 3112
f 3115 3116 3117 3118
f 3111 3112 3116 3115
f 3113 3114 3118 3117
f 3112 3113 3117 3116
f 3114 3111 3115 3118
f 3183 3186 3185 3184
f 3187 3188 3189 3190
f 3183 3184 3188 3187
f 3185 3186 3190 3189
f 3184 3185 3189 3188
f 3186 3183 3187 3190
g stand
usemtl stand
f 3151 3154 3153 3152
f 3155 3156 3157 3158
f 3151 3152 3156 3155
f 3153 3154 3158 3157
f 3152 3153 3157 3156
f 3154 3151 3155 3158
f 3159 3162 3161 3160
f 3163 3164 3165 3166
f 3159 3160 3164 3163
f 3161 3162 3166 3165
f 3160 3161 3165 3164
f 3162 3159 3163 3166
f 3167 3170 3169 3168
f 3171 3172 3173 3174
f 3167 3168 3172 3171
f 3169 3170 3174 3173
f 3168 3169 3173 3172
f 3170 3167 3171 3174
f 3175 3178 3177 3176
f 3179 3180 3181 3182
f 3175 3176 3180 3179
f 3177 3178 3182 3181
f 3176 3177 3181 3180
f 3178 3175 3179 3182
f 3191 3194 3193 3192
f 3195 3196 3197 3198
f 3191 3192 3196 3195
f 3193 3194 3198 3197
f 3192 3193 3197 3196
f 3194 3191 3195 3198
f 3199 3202 3201 3200
f 3203 3204 3205 3206
f 3199 3200 3204 3203
f 3201 3202 3206 3205
f 3200 3201 3205 3204
f 3202 3199 3203 3206
f 3207 3210 3209 3208
f 3211 3212 3213 3214
f 3207 3208 3212 3211
f 3209 3210 3214 3213
f 3208 3209 3213 3212
f 3210 3207 3211 3214
f 3215 3218 3217 3216
f 3219 3220 3221 3222
f 3215 3216 3220 3219
f 3217 3218 3222 3221
f 3216 3217 3221 3220
f 3218 3215 3219 3222
f 3223 3226 3225 3224
f 3227 3228 3229 3230
f 3223 3224 3228 3227
f 3225 3226 3230 3229
f 3224 3225 3229 3228
f 3226 3223 3227 3230
f 3231 3234 3233 3232
f 3235 3236 3237 3238
f 3231 3232 3236 3235
f 3233 3234 3238 3237
f 3232 3233 3237 3236
f 3234 3231 3235 3238
f 3239 3242 3241 3240
f 3243 3244 3245 3246
f 3239 3240 3244 3243
f 3241 3242 3246 3245
f 3240 3241 3245 3244
f 3242 3239 3243 3246
f 3247 3250 3249 3248
f 3251 3252 3253 3254
f 3247 3248 3252 3251
f 3249 3250 3254 3253
f 3248 3249 3253 3252
f 3250 3247 3251 3254
g glass
usemtl glass
f 3255 3258 3257 3256
f 3259 3260 3261 3262
f 3255 3256 3260 3259
f 3257 3258 3262 3261
f 3256 3257 3261 3260
f 3258 3255 3259 3262
f 3271 3274 3273 3272
f 3275 3276 3277 3278
f 3271 3272 3276 3275
f 3273 3274 3278 3277
f 3272 3273 3277 3276
f 3274 3271 3275 3278
g tower
usemtl tower
f 3263 3266 3265 3264
f 3267 3268 3269 3270
f 3263 3264 3268 3267
f 3265 3266 3270 3269
f 3264 3265 3269 3268
f 3266 3263 3267 3270
f 3329 3332 3331 3330
f 3333 3334 3335 3336
f 3329 3330 3334 3333
f 3331 3332 3336 3335
f 3330 3331 3335 3334
f 3332 3329 3333 3336
f 3433 3434 3442 3441
f 3434 3435 3443 3442
f 3435 3436 3444 3443
f 3436 3437 3445 3444
f 3437 3438 3446 3445
f 3438 3439 3447 3446
f 3439 3440 3448 3447
f 3440 3433 3441 3448
f 3449 3434 3433
f 3450 3441 3442
f 3449 3435 3434
f 3450 3442 3443
f 3449 3436 3435
f 3450 3443 3444
f 3449 3437 3436
f 3450 3444 3445
f 3449 3438 3437
f 3450 3445 3446
f 3449 3439 3438
f 3450 3446 3447
f 3449 3440 3439
f 3450 3447 3448
f 3449 3433 3440
f 3450 3448 3441
f 3459 3460 3468 3467
f 3460 3461 3469 3468
f 3461 3462 3470 3469
f 3462 3463 3471 3470
f 3463 3464 3472 3471
f 3464 3465 3473 3472
f 3465 3466 3474 3473
f 3466 3459 3467 3474
f 3475 3460 3459
f 3476 3467 3468
f 3475 3461 3460
f 3476 3468 3469
f 3475 3462 3461
f 3476 3469 3470
f 3475 3463 3462
f 3476 3470 3471
f 3475 3464 3463
f 3476 3471 3472
f 3475 3465 3464
f 3476 3472 3473
f 3475 3466 3465
f 3476 3473 3474
f 3475 3459 3466
f 3476 3474 3467
f 3485 3486 3494 3493
f 3486 3487 3495 3494
f 3487 3488 3496 3495
f 3488 3489 3497 3496
f 3489 3490 3498 3497
f 3490 3491 3499 3498
f 3491 3492 3500 3499
f 3492 3485 3493 3500
f 3501 3486 3485
f 3502 3493 3494
f 3501 3487 3486
f 3502 3494 3495
f 3501 3488 3487
f 3502 3495 3496
f 3501 3489 3488
f 3502 3496 3497
f 3501 3490 3489
f 3502 3497 3498
f 3501 3491 3490
f 3502 3498 3499
f 3501 3492 3491
f 3502 3499 3500
f 3501 3485 3492
f 3502 3500 3493
f 3511 3512 3520 3519
f 3512 3513 3521 3520
f 3513 3514 3522 3521
f 3514 3515 3523 3522
f 3515 3516 3524 3523
f 3516 3517 3525 3524
f 3517 3518 3526 3525
f 3518 3511 3519 3526
f 3527 3512 3511
f 3528 3519 3520
f 3527 3513 3512
f 3528 3520 3521
f 3527 3514 3513
f 3528 3521 3522
f 3527 3515 3514
f 3528 3522 3523
f 3527 3516 3515
f 3528 3523 3524
f 3527 3517 3516
f 3528 3524 3525
f 3527 3518 3517
f 3528 3525 3526
f 3527 3511 3518
f 3528 3526 3519
g clock
usemtl clock
f 3279 3280 3304 3303
f 3280 3281 3305 3304
f 3281 3282 3306 3305
f 3282 3283 3307 3306
f 3283 3284 3308 3307
f 3284 3285 3309 3308
f 3285 3286 3310 3309
f 3286 3287 3311 3310
f 3287 3288 3312 3311
f 3288 3289 3313 3312
f 3289 3290 3314 3313
f 3290 3291 3315 3314
f 3291 3292 3316 3315
f 3292 3293 3317 3316
f 3293 3294 3318 3317
f 3294 3295 3319 3318
f 3295 3296 3320 3319
f 3296 3297 3321 3320
f 3297 3298 3322 3321
f 3298 3299 3323 3322
f 3299 3300 3324 3323
f 3300 3301 3325 3324
f 3301 3302 3326 3325
f 3302 3279 3303 3326
f 3327 3280 3279
f 3328 3303 3304
f 3327 3281 3280
f 3328 3304 3305
f 3327 3282 3281
f 3328 3305 3306
f 3327 3283 3282
f 3328 3306 3307
f 3327 3284 3283
f 3328 3307 3308
f 3327 3285 3284
f 3328 3308 3309
f 3327 3286 3285
f 3328 3309 3310
f 3327 3287 3286
f 3328 3310 3311
f 3327 3288 3287
f 3328 3311 3312
f 3327 3289 3288
f 3328 3312 3313
f 3327 3290 3289
f 3328 3313 3314
f 3327 3291 3290
f 3328 3314 3315
f 3327 3292 3291
f 3328 3315 3316
f 3327 3293 3292
f 3328 3316 3317
f 3327 3294 3293
f 3328 3317 3318
f 3327 3295 3294
f 3328 3318 3319
f 3327 3296 3295
f 3328 3319 3320
f 3327 3297 3296
f 3328 3320 3321
f 3327 3298 3297
f 3328 3321 3322
f 3327 3299 3298
f 3328 3322 3323
f 3327 3300 3299
f 3328 3323 3324
f 3327 3301 3300
f 3328 3324 3325
f 3327 3302 3301
f 3328 3325 3326
f 3327 3279 3302
f 3328 3326 3303
g clock_hand
usemtl clock_hand
f 3337 3340 3339 3338
f 3341 3342 3343 3344
f 3337 3338 3342 3341
f 3339 3340 3344 3343
f 3338 3339 3343 3342
f 3340 3337 3341 3344
g net_post
usemtl net_post
f 3345 3348 3347 3346
f 3349 3350 3351 3352
f 3345 3346 3350 3349
f 3347 3348 3352 3351
f 3346 3347 3351 3350
f 3348 3345 3349 3352
f 3353 3356 3355 3354
f 3357 3358 3359 3360
f 3353 3354 3358 3357
f 3355 3356 3360 3359
f 3354 3355 3359 3358
f 3356 3353 3357 3360
f 3361 3364 3363 3362
f 3365 3366 3367 3368
f 3361 3362 3366 3365
f 3363 3364 3368 3367
f 3362 3363 3367 3366
f 3364 3361 3365 3368
f 3369 3372 3371 3370
f 3373 3374 3375 3376
f 3369 3370 3374 3373
f 3371 3372 3376 3375
f 3370 3371 3375 3374
f 3372 3369 3373 3376
f 3377 3380 3379 3378
f 3381 3382 3383 3384
f 3377 3378 3382 3381
f 3379 3380 3384 3383
f 3378 3379 3383 3382
f 3380 3377 3381 3384
f 3385 3388 3387 3386
f 3389 3390 3391 3392
f 3385 3386 3390 3389
f 3387 3388 3392 3391
f 3386 3387 3391 3390
f 3388 3385 3389 3392
f 3393 3396 3395 3394
f 3397 3398 3399 3400
f 3393 3394 3398 3397
f 3395 3396 3400 3399
f 3394 3395 3399 3398
f 3396 3393 3397 3400
f 3401 3404 3403 3402
f 3405 3406 3407 3408
f 3401 3402 3406 3405
f 3403 3404 3408 3407
f 3402 3403 3407 3406
f 3404 3401 3405 3408
f 3409 3412 3411 3410
f 3413 3414 3415 3416
f 3409 3410 3414 3413
f 3411 3412 3416 3415
f 3410 3411 3415 3414
f 3412 3409 3413 3416
f 3417 3420 3419 3418
f 3421 3422 3423 3424
f 3417 3418 3422 3421
f 3419 3420 3424 3423
f 3418 3419 3423 3422
f 3420 3417 3421 3424
g net
usemtl net
f 3425 3428 3427 3426
f 3429 3430 3431 3432
f 3425 3426 3430 3429
f 3427 3428 3432 3431
f 3426 3427 3431 3430
f 3428 3425 3429 3432
g light
usemtl light
f 3451 3454 3453 3452
f 3455 3456 3457 3458
f 3451 3452 3456 3455
f 3453 3454 3458 3457
f 3452 3453 3457 3456
f 3454 3451 3455 3458
f 3477 3480 3479 3478
f 3481 3482 3483 3484
f 3477 3478 3482 3481
f 3479 3480 3484 3483
f 3478 3479 3483 3482
f 3480 3477 3481 3484
f 3503 3506 3505 3504
f 3507 3508 3509 3510
f 3503 3504 3508 3507
f 3505 3506 3510 3509
f 3504 3505 3509 3508
f 3506 3503 3507 3510
f 3529 3532 3531 3530
f 3533 3534 3535 3536
f 3529 3530 3534 3533
f 3531 3532 3536 3535
f 3530 3531 3535 3534
f 3532 3529 3533 3536
