# BOATRACE venue 20 wakamatsu W=140 pit2M=True night=True
mtllib venue_20.mtl
v 288.000 0.000 -69.000
v 382.000 0.000 -69.000
v 382.000 1.000 -69.000
v 288.000 1.000 -69.000
v 288.000 0.000 -41.000
v 382.000 0.000 -41.000
v 382.000 1.000 -41.000
v 288.000 1.000 -41.000
v 288.000 1.000 -69.000
v 382.000 1.000 -69.000
v 382.000 7.500 -69.000
v 288.000 7.500 -69.000
v 288.000 1.000 -57.000
v 382.000 1.000 -57.000
v 382.000 7.500 -57.000
v 288.000 7.500 -57.000
v 287.750 0.000 -57.000
v 288.250 0.000 -57.000
v 288.250 0.600 -57.000
v 287.750 0.600 -57.000
v 287.750 0.000 -42.000
v 288.250 0.000 -42.000
v 288.250 0.600 -42.000
v 287.750 0.600 -42.000
v 303.417 0.000 -57.000
v 303.917 0.000 -57.000
v 303.917 0.600 -57.000
v 303.417 0.600 -57.000
v 303.417 0.000 -42.000
v 303.917 0.000 -42.000
v 303.917 0.600 -42.000
v 303.417 0.600 -42.000
v 319.083 0.000 -57.000
v 319.583 0.000 -57.000
v 319.583 0.600 -57.000
v 319.083 0.600 -57.000
v 319.083 0.000 -42.000
v 319.583 0.000 -42.000
v 319.583 0.600 -42.000
v 319.083 0.600 -42.000
v 334.750 0.000 -57.000
v 335.250 0.000 -57.000
v 335.250 0.600 -57.000
v 334.750 0.600 -57.000
v 334.750 0.000 -42.000
v 335.250 0.000 -42.000
v 335.250 0.600 -42.000
v 334.750 0.600 -42.000
v 350.417 0.000 -57.000
v 350.917 0.000 -57.000
v 350.917 0.600 -57.000
v 350.417 0.600 -57.000
v 350.417 0.000 -42.000
v 350.917 0.000 -42.000
v 350.917 0.600 -42.000
v 350.417 0.600 -42.000
v 366.083 0.000 -57.000
v 366.583 0.000 -57.000
v 366.583 0.600 -57.000
v 366.083 0.600 -57.000
v 366.083 0.000 -42.000
v 366.583 0.000 -42.000
v 366.583 0.600 -42.000
v 366.083 0.600 -42.000
v 381.750 0.000 -57.000
v 382.250 0.000 -57.000
v 382.250 0.600 -57.000
v 381.750 0.600 -57.000
v 381.750 0.000 -42.000
v 382.250 0.000 -42.000
v 382.250 0.600 -42.000
v 381.750 0.600 -42.000
v 60.000 0.000 -62.000
v 390.000 0.000 -62.000
v 390.000 4.000 -62.000
v 60.000 4.000 -62.000
v 60.000 0.000 -57.000
v 390.000 0.000 -57.000
v 390.000 4.000 -57.000
v 60.000 4.000 -57.000
v 60.000 0.000 -70.000
v 390.000 0.000 -70.000
v 390.000 10.000 -70.000
v 60.000 10.000 -70.000
v 60.000 0.000 -62.000
v 390.000 0.000 -62.000
v 390.000 10.000 -62.000
v 60.000 10.000 -62.000
v 60.000 0.000 -85.000
v 390.000 0.000 -85.000
v 390.000 16.000 -85.000
v 60.000 16.000 -85.000
v 60.000 0.000 -70.000
v 390.000 0.000 -70.000
v 390.000 16.000 -70.000
v 60.000 16.000 -70.000
v 62.000 4.000 -62.400
v 388.000 4.000 -62.400
v 388.000 14.000 -62.400
v 62.000 14.000 -62.400
v 62.000 4.000 -62.000
v 388.000 4.000 -62.000
v 388.000 14.000 -62.000
v 62.000 14.000 -62.000
v 40.000 20.000 -86.000
v 400.000 20.000 -86.000
v 400.000 22.000 -86.000
v 40.000 22.000 -86.000
v 40.000 20.000 -60.000
v 400.000 20.000 -60.000
v 400.000 22.000 -60.000
v 40.000 22.000 -60.000
v 69.400 16.000 -68.000
v 70.600 16.000 -68.000
v 70.600 20.000 -68.000
v 69.400 20.000 -68.000
v 69.400 16.000 -66.800
v 70.600 16.000 -66.800
v 70.600 20.000 -66.800
v 69.400 20.000 -66.800
v 124.400 16.000 -68.000
v 125.600 16.000 -68.000
v 125.600 20.000 -68.000
v 124.400 20.000 -68.000
v 124.400 16.000 -66.800
v 125.600 16.000 -66.800
v 125.600 20.000 -66.800
v 124.400 20.000 -66.800
v 179.400 16.000 -68.000
v 180.600 16.000 -68.000
v 180.600 20.000 -68.000
v 179.400 20.000 -68.000
v 179.400 16.000 -66.800
v 180.600 16.000 -66.800
v 180.600 20.000 -66.800
v 179.400 20.000 -66.800
v 234.400 16.000 -68.000
v 235.600 16.000 -68.000
v 235.600 20.000 -68.000
v 234.400 20.000 -68.000
v 234.400 16.000 -66.800
v 235.600 16.000 -66.800
v 235.600 20.000 -66.800
v 234.400 20.000 -66.800
v 289.400 16.000 -68.000
v 290.600 16.000 -68.000
v 290.600 20.000 -68.000
v 289.400 20.000 -68.000
v 289.400 16.000 -66.800
v 290.600 16.000 -66.800
v 290.600 20.000 -66.800
v 289.400 20.000 -66.800
v 344.400 16.000 -68.000
v 345.600 16.000 -68.000
v 345.600 20.000 -68.000
v 344.400 20.000 -68.000
v 344.400 16.000 -66.800
v 345.600 16.000 -66.800
v 345.600 20.000 -66.800
v 344.400 20.000 -66.800
v -5.000 0.000 -64.000
v 5.000 0.000 -64.000
v 5.000 26.000 -64.000
v -5.000 26.000 -64.000
v -5.000 0.000 -56.000
v 5.000 0.000 -56.000
v 5.000 26.000 -56.000
v -5.000 26.000 -56.000
v -4.500 19.500 -59.200
v 4.500 19.500 -59.200
v 4.500 28.500 -59.200
v -4.500 28.500 -59.200
v -4.500 19.500 -58.200
v 4.500 19.500 -58.200
v 4.500 28.500 -58.200
v -4.500 28.500 -58.200
v -0.300 24.000 -58.100
v 0.300 24.000 -58.100
v 0.300 28.000 -58.100
v -0.300 28.000 -58.100
v -0.300 24.000 -57.900
v 0.300 24.000 -57.900
v 0.300 28.000 -57.900
v -0.300 28.000 -57.900
v -100.400 0.000 83.600
v -99.600 0.000 83.600
v -99.600 15.000 83.600
v -100.400 15.000 83.600
v -100.400 0.000 84.400
v -99.600 0.000 84.400
v -99.600 15.000 84.400
v -100.400 15.000 84.400
v -60.400 0.000 83.600
v -59.600 0.000 83.600
v -59.600 15.000 83.600
v -60.400 15.000 83.600
v -60.400 0.000 84.400
v -59.600 0.000 84.400
v -59.600 15.000 84.400
v -60.400 15.000 84.400
v -20.400 0.000 83.600
v -19.600 0.000 83.600
v -19.600 15.000 83.600
v -20.400 15.000 83.600
v -20.400 0.000 84.400
v -19.600 0.000 84.400
v -19.600 15.000 84.400
v -20.400 15.000 84.400
v 19.600 0.000 83.600
v 20.400 0.000 83.600
v 20.400 15.000 83.600
v 19.600 15.000 83.600
v 19.600 0.000 84.400
v 20.400 0.000 84.400
v 20.400 15.000 84.400
v 19.600 15.000 84.400
v 59.600 0.000 83.600
v 60.400 0.000 83.600
v 60.400 15.000 83.600
v 59.600 15.000 83.600
v 59.600 0.000 84.400
v 60.400 0.000 84.400
v 60.400 15.000 84.400
v 59.600 15.000 84.400
v 99.600 0.000 83.600
v 100.400 0.000 83.600
v 100.400 15.000 83.600
v 99.600 15.000 83.600
v 99.600 0.000 84.400
v 100.400 0.000 84.400
v 100.400 15.000 84.400
v 99.600 15.000 84.400
v 139.600 0.000 83.600
v 140.400 0.000 83.600
v 140.400 15.000 83.600
v 139.600 15.000 83.600
v 139.600 0.000 84.400
v 140.400 0.000 84.400
v 140.400 15.000 84.400
v 139.600 15.000 84.400
v 179.600 0.000 83.600
v 180.400 0.000 83.600
v 180.400 15.000 83.600
v 179.600 15.000 83.600
v 179.600 0.000 84.400
v 180.400 0.000 84.400
v 180.400 15.000 84.400
v 179.600 15.000 84.400
v 219.600 0.000 83.600
v 220.400 0.000 83.600
v 220.400 15.000 83.600
v 219.600 15.000 83.600
v 219.600 0.000 84.400
v 220.400 0.000 84.400
v 220.400 15.000 84.400
v 219.600 15.000 84.400
v 259.600 0.000 83.600
v 260.400 0.000 83.600
v 260.400 15.000 83.600
v 259.600 15.000 83.600
v 259.600 0.000 84.400
v 260.400 0.000 84.400
v 260.400 15.000 84.400
v 259.600 15.000 84.400
v 299.600 0.000 83.600
v 300.400 0.000 83.600
v 300.400 15.000 83.600
v 299.600 15.000 83.600
v 299.600 0.000 84.400
v 300.400 0.000 84.400
v 300.400 15.000 84.400
v 299.600 15.000 84.400
v 339.600 0.000 83.600
v 340.400 0.000 83.600
v 340.400 15.000 83.600
v 339.600 15.000 83.600
v 339.600 0.000 84.400
v 340.400 0.000 84.400
v 340.400 15.000 84.400
v 339.600 15.000 84.400
v 379.600 0.000 83.600
v 380.400 0.000 83.600
v 380.400 15.000 83.600
v 379.600 15.000 83.600
v 379.600 0.000 84.400
v 380.400 0.000 84.400
v 380.400 15.000 84.400
v 379.600 15.000 84.400
v -110.000 3.000 83.800
v 410.000 3.000 83.800
v 410.000 14.000 83.800
v -110.000 14.000 83.800
v -110.000 3.000 84.200
v 410.000 3.000 84.200
v 410.000 14.000 84.200
v -110.000 14.000 84.200
v -96.700 0.000 -61.700
v -95.300 0.000 -61.700
v -95.300 30.000 -61.700
v -96.700 30.000 -61.700
v -96.700 0.000 -60.300
v -95.300 0.000 -60.300
v -95.300 30.000 -60.300
v -96.700 30.000 -60.300
v -98.200 30.000 -62.000
v -93.800 30.000 -62.000
v -93.800 32.000 -62.000
v -98.200 32.000 -62.000
v -98.200 30.000 -60.000
v -93.800 30.000 -60.000
v -93.800 32.000 -60.000
v -98.200 32.000 -60.000
v -96.700 0.000 86.300
v -95.300 0.000 86.300
v -95.300 30.000 86.300
v -96.700 30.000 86.300
v -96.700 0.000 87.700
v -95.300 0.000 87.700
v -95.300 30.000 87.700
v -96.700 30.000 87.700
v -98.200 30.000 86.000
v -93.800 30.000 86.000
v -93.800 32.000 86.000
v -98.200 32.000 86.000
v -98.200 30.000 88.000
v -93.800 30.000 88.000
v -93.800 32.000 88.000
v -98.200 32.000 88.000
v 395.300 0.000 -61.700
v 396.700 0.000 -61.700
v 396.700 30.000 -61.700
v 395.300 30.000 -61.700
v 395.300 0.000 -60.300
v 396.700 0.000 -60.300
v 396.700 30.000 -60.300
v 395.300 30.000 -60.300
v 393.800 30.000 -62.000
v 398.200 30.000 -62.000
v 398.200 32.000 -62.000
v 393.800 32.000 -62.000
v 393.800 30.000 -60.000
v 398.200 30.000 -60.000
v 398.200 32.000 -60.000
v 393.800 32.000 -60.000
v 395.300 0.000 86.300
v 396.700 0.000 86.300
v 396.700 30.000 86.300
v 395.300 30.000 86.300
v 395.300 0.000 87.700
v 396.700 0.000 87.700
v 396.700 30.000 87.700
v 395.300 30.000 87.700
v 393.800 30.000 86.000
v 398.200 30.000 86.000
v 398.200 32.000 86.000
v 393.800 32.000 86.000
v 393.800 30.000 88.000
v 398.200 30.000 88.000
v 398.200 32.000 88.000
v 393.800 32.000 88.000
v 259.000 0.000 -24.000
v 261.000 0.000 -24.000
v 261.000 1.600 -24.000
v 259.000 1.600 -24.000
v 259.000 0.000 -22.000
v 261.000 0.000 -22.000
v 261.000 1.600 -22.000
v 259.000 1.600 -22.000
v 39.000 0.000 -24.000
v 41.000 0.000 -24.000
v 41.000 1.600 -24.000
v 39.000 1.600 -24.000
v 39.000 0.000 -22.000
v 41.000 0.000 -22.000
v 41.000 1.600 -22.000
v 39.000 1.600 -22.000
vn 0 0 -1
vn 0 0 1
vn -1 0 0
vn 1 0 0
vn 0 1 0
vn 0 -1 0
usemtl pit
f 1//1 3//1 2//1
f 1//1 4//1 3//1
f 6//2 8//2 5//2
f 6//2 7//2 8//2
f 5//3 4//3 1//3
f 5//3 8//3 4//3
f 2//4 7//4 6//4
f 2//4 3//4 7//4
f 4//5 7//5 3//5
f 4//5 8//5 7//5
f 5//6 2//6 6//6
f 5//6 1//6 2//6
f 9//1 11//1 10//1
f 9//1 12//1 11//1
f 14//2 16//2 13//2
f 14//2 15//2 16//2
f 13//3 12//3 9//3
f 13//3 16//3 12//3
f 10//4 15//4 14//4
f 10//4 11//4 15//4
f 12//5 15//5 11//5
f 12//5 16//5 15//5
f 13//6 10//6 14//6
f 13//6 9//6 10//6
f 17//1 19//1 18//1
f 17//1 20//1 19//1
f 22//2 24//2 21//2
f 22//2 23//2 24//2
f 21//3 20//3 17//3
f 21//3 24//3 20//3
f 18//4 23//4 22//4
f 18//4 19//4 23//4
f 20//5 23//5 19//5
f 20//5 24//5 23//5
f 21//6 18//6 22//6
f 21//6 17//6 18//6
f 25//1 27//1 26//1
f 25//1 28//1 27//1
f 30//2 32//2 29//2
f 30//2 31//2 32//2
f 29//3 28//3 25//3
f 29//3 32//3 28//3
f 26//4 31//4 30//4
f 26//4 27//4 31//4
f 28//5 31//5 27//5
f 28//5 32//5 31//5
f 29//6 26//6 30//6
f 29//6 25//6 26//6
f 33//1 35//1 34//1
f 33//1 36//1 35//1
f 38//2 40//2 37//2
f 38//2 39//2 40//2
f 37//3 36//3 33//3
f 37//3 40//3 36//3
f 34//4 39//4 38//4
f 34//4 35//4 39//4
f 36//5 39//5 35//5
f 36//5 40//5 39//5
f 37//6 34//6 38//6
f 37//6 33//6 34//6
f 41//1 43//1 42//1
f 41//1 44//1 43//1
f 46//2 48//2 45//2
f 46//2 47//2 48//2
f 45//3 44//3 41//3
f 45//3 48//3 44//3
f 42//4 47//4 46//4
f 42//4 43//4 47//4
f 44//5 47//5 43//5
f 44//5 48//5 47//5
f 45//6 42//6 46//6
f 45//6 41//6 42//6
f 49//1 51//1 50//1
f 49//1 52//1 51//1
f 54//2 56//2 53//2
f 54//2 55//2 56//2
f 53//3 52//3 49//3
f 53//3 56//3 52//3
f 50//4 55//4 54//4
f 50//4 51//4 55//4
f 52//5 55//5 51//5
f 52//5 56//5 55//5
f 53//6 50//6 54//6
f 53//6 49//6 50//6
f 57//1 59//1 58//1
f 57//1 60//1 59//1
f 62//2 64//2 61//2
f 62//2 63//2 64//2
f 61//3 60//3 57//3
f 61//3 64//3 60//3
f 58//4 63//4 62//4
f 58//4 59//4 63//4
f 60//5 63//5 59//5
f 60//5 64//5 63//5
f 61//6 58//6 62//6
f 61//6 57//6 58//6
f 65//1 67//1 66//1
f 65//1 68//1 67//1
f 70//2 72//2 69//2
f 70//2 71//2 72//2
f 69//3 68//3 65//3
f 69//3 72//3 68//3
f 66//4 71//4 70//4
f 66//4 67//4 71//4
f 68//5 71//5 67//5
f 68//5 72//5 71//5
f 69//6 66//6 70//6
f 69//6 65//6 66//6
usemtl stand
f 73//1 75//1 74//1
f 73//1 76//1 75//1
f 78//2 80//2 77//2
f 78//2 79//2 80//2
f 77//3 76//3 73//3
f 77//3 80//3 76//3
f 74//4 79//4 78//4
f 74//4 75//4 79//4
f 76//5 79//5 75//5
f 76//5 80//5 79//5
f 77//6 74//6 78//6
f 77//6 73//6 74//6
f 81//1 83//1 82//1
f 81//1 84//1 83//1
f 86//2 88//2 85//2
f 86//2 87//2 88//2
f 85//3 84//3 81//3
f 85//3 88//3 84//3
f 82//4 87//4 86//4
f 82//4 83//4 87//4
f 84//5 87//5 83//5
f 84//5 88//5 87//5
f 85//6 82//6 86//6
f 85//6 81//6 82//6
f 89//1 91//1 90//1
f 89//1 92//1 91//1
f 94//2 96//2 93//2
f 94//2 95//2 96//2
f 93//3 92//3 89//3
f 93//3 96//3 92//3
f 90//4 95//4 94//4
f 90//4 91//4 95//4
f 92//5 95//5 91//5
f 92//5 96//5 95//5
f 93//6 90//6 94//6
f 93//6 89//6 90//6
usemtl glass
f 97//1 99//1 98//1
f 97//1 100//1 99//1
f 102//2 104//2 101//2
f 102//2 103//2 104//2
f 101//3 100//3 97//3
f 101//3 104//3 100//3
f 98//4 103//4 102//4
f 98//4 99//4 103//4
f 100//5 103//5 99//5
f 100//5 104//5 103//5
f 101//6 98//6 102//6
f 101//6 97//6 98//6
usemtl roof
f 105//1 107//1 106//1
f 105//1 108//1 107//1
f 110//2 112//2 109//2
f 110//2 111//2 112//2
f 109//3 108//3 105//3
f 109//3 112//3 108//3
f 106//4 111//4 110//4
f 106//4 107//4 111//4
f 108//5 111//5 107//5
f 108//5 112//5 111//5
f 109//6 106//6 110//6
f 109//6 105//6 106//6
usemtl stand
f 113//1 115//1 114//1
f 113//1 116//1 115//1
f 118//2 120//2 117//2
f 118//2 119//2 120//2
f 117//3 116//3 113//3
f 117//3 120//3 116//3
f 114//4 119//4 118//4
f 114//4 115//4 119//4
f 116//5 119//5 115//5
f 116//5 120//5 119//5
f 117//6 114//6 118//6
f 117//6 113//6 114//6
f 121//1 123//1 122//1
f 121//1 124//1 123//1
f 126//2 128//2 125//2
f 126//2 127//2 128//2
f 125//3 124//3 121//3
f 125//3 128//3 124//3
f 122//4 127//4 126//4
f 122//4 123//4 127//4
f 124//5 127//5 123//5
f 124//5 128//5 127//5
f 125//6 122//6 126//6
f 125//6 121//6 122//6
f 129//1 131//1 130//1
f 129//1 132//1 131//1
f 134//2 136//2 133//2
f 134//2 135//2 136//2
f 133//3 132//3 129//3
f 133//3 136//3 132//3
f 130//4 135//4 134//4
f 130//4 131//4 135//4
f 132//5 135//5 131//5
f 132//5 136//5 135//5
f 133//6 130//6 134//6
f 133//6 129//6 130//6
f 137//1 139//1 138//1
f 137//1 140//1 139//1
f 142//2 144//2 141//2
f 142//2 143//2 144//2
f 141//3 140//3 137//3
f 141//3 144//3 140//3
f 138//4 143//4 142//4
f 138//4 139//4 143//4
f 140//5 143//5 139//5
f 140//5 144//5 143//5
f 141//6 138//6 142//6
f 141//6 137//6 138//6
f 145//1 147//1 146//1
f 145//1 148//1 147//1
f 150//2 152//2 149//2
f 150//2 151//2 152//2
f 149//3 148//3 145//3
f 149//3 152//3 148//3
f 146//4 151//4 150//4
f 146//4 147//4 151//4
f 148//5 151//5 147//5
f 148//5 152//5 151//5
f 149//6 146//6 150//6
f 149//6 145//6 146//6
f 153//1 155//1 154//1
f 153//1 156//1 155//1
f 158//2 160//2 157//2
f 158//2 159//2 160//2
f 157//3 156//3 153//3
f 157//3 160//3 156//3
f 154//4 159//4 158//4
f 154//4 155//4 159//4
f 156//5 159//5 155//5
f 156//5 160//5 159//5
f 157//6 154//6 158//6
f 157//6 153//6 154//6
usemtl tower
f 161//1 163//1 162//1
f 161//1 164//1 163//1
f 166//2 168//2 165//2
f 166//2 167//2 168//2
f 165//3 164//3 161//3
f 165//3 168//3 164//3
f 162//4 167//4 166//4
f 162//4 163//4 167//4
f 164//5 167//5 163//5
f 164//5 168//5 167//5
f 165//6 162//6 166//6
f 165//6 161//6 162//6
usemtl clock
f 169//1 171//1 170//1
f 169//1 172//1 171//1
f 174//2 176//2 173//2
f 174//2 175//2 176//2
f 173//3 172//3 169//3
f 173//3 176//3 172//3
f 170//4 175//4 174//4
f 170//4 171//4 175//4
f 172//5 175//5 171//5
f 172//5 176//5 175//5
f 173//6 170//6 174//6
f 173//6 169//6 170//6
usemtl clock_hand
f 177//1 179//1 178//1
f 177//1 180//1 179//1
f 182//2 184//2 181//2
f 182//2 183//2 184//2
f 181//3 180//3 177//3
f 181//3 184//3 180//3
f 178//4 183//4 182//4
f 178//4 179//4 183//4
f 180//5 183//5 179//5
f 180//5 184//5 183//5
f 181//6 178//6 182//6
f 181//6 177//6 178//6
usemtl net_post
f 185//1 187//1 186//1
f 185//1 188//1 187//1
f 190//2 192//2 189//2
f 190//2 191//2 192//2
f 189//3 188//3 185//3
f 189//3 192//3 188//3
f 186//4 191//4 190//4
f 186//4 187//4 191//4
f 188//5 191//5 187//5
f 188//5 192//5 191//5
f 189//6 186//6 190//6
f 189//6 185//6 186//6
f 193//1 195//1 194//1
f 193//1 196//1 195//1
f 198//2 200//2 197//2
f 198//2 199//2 200//2
f 197//3 196//3 193//3
f 197//3 200//3 196//3
f 194//4 199//4 198//4
f 194//4 195//4 199//4
f 196//5 199//5 195//5
f 196//5 200//5 199//5
f 197//6 194//6 198//6
f 197//6 193//6 194//6
f 201//1 203//1 202//1
f 201//1 204//1 203//1
f 206//2 208//2 205//2
f 206//2 207//2 208//2
f 205//3 204//3 201//3
f 205//3 208//3 204//3
f 202//4 207//4 206//4
f 202//4 203//4 207//4
f 204//5 207//5 203//5
f 204//5 208//5 207//5
f 205//6 202//6 206//6
f 205//6 201//6 202//6
f 209//1 211//1 210//1
f 209//1 212//1 211//1
f 214//2 216//2 213//2
f 214//2 215//2 216//2
f 213//3 212//3 209//3
f 213//3 216//3 212//3
f 210//4 215//4 214//4
f 210//4 211//4 215//4
f 212//5 215//5 211//5
f 212//5 216//5 215//5
f 213//6 210//6 214//6
f 213//6 209//6 210//6
f 217//1 219//1 218//1
f 217//1 220//1 219//1
f 222//2 224//2 221//2
f 222//2 223//2 224//2
f 221//3 220//3 217//3
f 221//3 224//3 220//3
f 218//4 223//4 222//4
f 218//4 219//4 223//4
f 220//5 223//5 219//5
f 220//5 224//5 223//5
f 221//6 218//6 222//6
f 221//6 217//6 218//6
f 225//1 227//1 226//1
f 225//1 228//1 227//1
f 230//2 232//2 229//2
f 230//2 231//2 232//2
f 229//3 228//3 225//3
f 229//3 232//3 228//3
f 226//4 231//4 230//4
f 226//4 227//4 231//4
f 228//5 231//5 227//5
f 228//5 232//5 231//5
f 229//6 226//6 230//6
f 229//6 225//6 226//6
f 233//1 235//1 234//1
f 233//1 236//1 235//1
f 238//2 240//2 237//2
f 238//2 239//2 240//2
f 237//3 236//3 233//3
f 237//3 240//3 236//3
f 234//4 239//4 238//4
f 234//4 235//4 239//4
f 236//5 239//5 235//5
f 236//5 240//5 239//5
f 237//6 234//6 238//6
f 237//6 233//6 234//6
f 241//1 243//1 242//1
f 241//1 244//1 243//1
f 246//2 248//2 245//2
f 246//2 247//2 248//2
f 245//3 244//3 241//3
f 245//3 248//3 244//3
f 242//4 247//4 246//4
f 242//4 243//4 247//4
f 244//5 247//5 243//5
f 244//5 248//5 247//5
f 245//6 242//6 246//6
f 245//6 241//6 242//6
f 249//1 251//1 250//1
f 249//1 252//1 251//1
f 254//2 256//2 253//2
f 254//2 255//2 256//2
f 253//3 252//3 249//3
f 253//3 256//3 252//3
f 250//4 255//4 254//4
f 250//4 251//4 255//4
f 252//5 255//5 251//5
f 252//5 256//5 255//5
f 253//6 250//6 254//6
f 253//6 249//6 250//6
f 257//1 259//1 258//1
f 257//1 260//1 259//1
f 262//2 264//2 261//2
f 262//2 263//2 264//2
f 261//3 260//3 257//3
f 261//3 264//3 260//3
f 258//4 263//4 262//4
f 258//4 259//4 263//4
f 260//5 263//5 259//5
f 260//5 264//5 263//5
f 261//6 258//6 262//6
f 261//6 257//6 258//6
f 265//1 267//1 266//1
f 265//1 268//1 267//1
f 270//2 272//2 269//2
f 270//2 271//2 272//2
f 269//3 268//3 265//3
f 269//3 272//3 268//3
f 266//4 271//4 270//4
f 266//4 267//4 271//4
f 268//5 271//5 267//5
f 268//5 272//5 271//5
f 269//6 266//6 270//6
f 269//6 265//6 266//6
f 273//1 275//1 274//1
f 273//1 276//1 275//1
f 278//2 280//2 277//2
f 278//2 279//2 280//2
f 277//3 276//3 273//3
f 277//3 280//3 276//3
f 274//4 279//4 278//4
f 274//4 275//4 279//4
f 276//5 279//5 275//5
f 276//5 280//5 279//5
f 277//6 274//6 278//6
f 277//6 273//6 274//6
f 281//1 283//1 282//1
f 281//1 284//1 283//1
f 286//2 288//2 285//2
f 286//2 287//2 288//2
f 285//3 284//3 281//3
f 285//3 288//3 284//3
f 282//4 287//4 286//4
f 282//4 283//4 287//4
f 284//5 287//5 283//5
f 284//5 288//5 287//5
f 285//6 282//6 286//6
f 285//6 281//6 282//6
usemtl net
f 289//1 291//1 290//1
f 289//1 292//1 291//1
f 294//2 296//2 293//2
f 294//2 295//2 296//2
f 293//3 292//3 289//3
f 293//3 296//3 292//3
f 290//4 295//4 294//4
f 290//4 291//4 295//4
f 292//5 295//5 291//5
f 292//5 296//5 295//5
f 293//6 290//6 294//6
f 293//6 289//6 290//6
usemtl tower
f 297//1 299//1 298//1
f 297//1 300//1 299//1
f 302//2 304//2 301//2
f 302//2 303//2 304//2
f 301//3 300//3 297//3
f 301//3 304//3 300//3
f 298//4 303//4 302//4
f 298//4 299//4 303//4
f 300//5 303//5 299//5
f 300//5 304//5 303//5
f 301//6 298//6 302//6
f 301//6 297//6 298//6
usemtl light
f 305//1 307//1 306//1
f 305//1 308//1 307//1
f 310//2 312//2 309//2
f 310//2 311//2 312//2
f 309//3 308//3 305//3
f 309//3 312//3 308//3
f 306//4 311//4 310//4
f 306//4 307//4 311//4
f 308//5 311//5 307//5
f 308//5 312//5 311//5
f 309//6 306//6 310//6
f 309//6 305//6 306//6
usemtl tower
f 313//1 315//1 314//1
f 313//1 316//1 315//1
f 318//2 320//2 317//2
f 318//2 319//2 320//2
f 317//3 316//3 313//3
f 317//3 320//3 316//3
f 314//4 319//4 318//4
f 314//4 315//4 319//4
f 316//5 319//5 315//5
f 316//5 320//5 319//5
f 317//6 314//6 318//6
f 317//6 313//6 314//6
usemtl light
f 321//1 323//1 322//1
f 321//1 324//1 323//1
f 326//2 328//2 325//2
f 326//2 327//2 328//2
f 325//3 324//3 321//3
f 325//3 328//3 324//3
f 322//4 327//4 326//4
f 322//4 323//4 327//4
f 324//5 327//5 323//5
f 324//5 328//5 327//5
f 325//6 322//6 326//6
f 325//6 321//6 322//6
usemtl tower
f 329//1 331//1 330//1
f 329//1 332//1 331//1
f 334//2 336//2 333//2
f 334//2 335//2 336//2
f 333//3 332//3 329//3
f 333//3 336//3 332//3
f 330//4 335//4 334//4
f 330//4 331//4 335//4
f 332//5 335//5 331//5
f 332//5 336//5 335//5
f 333//6 330//6 334//6
f 333//6 329//6 330//6
usemtl light
f 337//1 339//1 338//1
f 337//1 340//1 339//1
f 342//2 344//2 341//2
f 342//2 343//2 344//2
f 341//3 340//3 337//3
f 341//3 344//3 340//3
f 338//4 343//4 342//4
f 338//4 339//4 343//4
f 340//5 343//5 339//5
f 340//5 344//5 343//5
f 341//6 338//6 342//6
f 341//6 337//6 338//6
usemtl tower
f 345//1 347//1 346//1
f 345//1 348//1 347//1
f 350//2 352//2 349//2
f 350//2 351//2 352//2
f 349//3 348//3 345//3
f 349//3 352//3 348//3
f 346//4 351//4 350//4
f 346//4 347//4 351//4
f 348//5 351//5 347//5
f 348//5 352//5 351//5
f 349//6 346//6 350//6
f 349//6 345//6 346//6
usemtl light
f 353//1 355//1 354//1
f 353//1 356//1 355//1
f 358//2 360//2 357//2
f 358//2 359//2 360//2
f 357//3 356//3 353//3
f 357//3 360//3 356//3
f 354//4 359//4 358//4
f 354//4 355//4 359//4
f 356//5 359//5 355//5
f 356//5 360//5 359//5
f 357//6 354//6 358//6
f 357//6 353//6 354//6
usemtl buoy_orange
f 361//1 363//1 362//1
f 361//1 364//1 363//1
f 366//2 368//2 365//2
f 366//2 367//2 368//2
f 365//3 364//3 361//3
f 365//3 368//3 364//3
f 362//4 367//4 366//4
f 362//4 363//4 367//4
f 364//5 367//5 363//5
f 364//5 368//5 367//5
f 365//6 362//6 366//6
f 365//6 361//6 362//6
f 369//1 371//1 370//1
f 369//1 372//1 371//1
f 374//2 376//2 373//2
f 374//2 375//2 376//2
f 373//3 372//3 369//3
f 373//3 376//3 372//3
f 370//4 375//4 374//4
f 370//4 371//4 375//4
f 372//5 375//5 371//5
f 372//5 376//5 375//5
f 373//6 370//6 374//6
f 373//6 369//6 370//6
