# BOATRACE venue 16 kojima W=140 pit2M=False night=False
mtllib venue_16.mtl
v 20.000 0.000 -69.000
v 90.000 0.000 -69.000
v 90.000 1.000 -69.000
v 20.000 1.000 -69.000
v 20.000 0.000 -41.000
v 90.000 0.000 -41.000
v 90.000 1.000 -41.000
v 20.000 1.000 -41.000
v 20.000 1.000 -69.000
v 90.000 1.000 -69.000
v 90.000 7.500 -69.000
v 20.000 7.500 -69.000
v 20.000 1.000 -57.000
v 90.000 1.000 -57.000
v 90.000 7.500 -57.000
v 20.000 7.500 -57.000
v 19.750 0.000 -57.000
v 20.250 0.000 -57.000
v 20.250 0.600 -57.000
v 19.750 0.600 -57.000
v 19.750 0.000 -42.000
v 20.250 0.000 -42.000
v 20.250 0.600 -42.000
v 19.750 0.600 -42.000
v 31.417 0.000 -57.000
v 31.917 0.000 -57.000
v 31.917 0.600 -57.000
v 31.417 0.600 -57.000
v 31.417 0.000 -42.000
v 31.917 0.000 -42.000
v 31.917 0.600 -42.000
v 31.417 0.600 -42.000
v 43.083 0.000 -57.000
v 43.583 0.000 -57.000
v 43.583 0.600 -57.000
v 43.083 0.600 -57.000
v 43.083 0.000 -42.000
v 43.583 0.000 -42.000
v 43.583 0.600 -42.000
v 43.083 0.600 -42.000
v 54.750 0.000 -57.000
v 55.250 0.000 -57.000
v 55.250 0.600 -57.000
v 54.750 0.600 -57.000
v 54.750 0.000 -42.000
v 55.250 0.000 -42.000
v 55.250 0.600 -42.000
v 54.750 0.600 -42.000
v 66.417 0.000 -57.000
v 66.917 0.000 -57.000
v 66.917 0.600 -57.000
v 66.417 0.600 -57.000
v 66.417 0.000 -42.000
v 66.917 0.000 -42.000
v 66.917 0.600 -42.000
v 66.417 0.600 -42.000
v 78.083 0.000 -57.000
v 78.583 0.000 -57.000
v 78.583 0.600 -57.000
v 78.083 0.600 -57.000
v 78.083 0.000 -42.000
v 78.583 0.000 -42.000
v 78.583 0.600 -42.000
v 78.083 0.600 -42.000
v 89.750 0.000 -57.000
v 90.250 0.000 -57.000
v 90.250 0.600 -57.000
v 89.750 0.600 -57.000
v 89.750 0.000 -42.000
v 90.250 0.000 -42.000
v 90.250 0.600 -42.000
v 89.750 0.600 -42.000
v 60.000 0.000 -62.000
v 390.000 0.000 -62.000
v 390.000 4.000 -62.000
v 60.000 4.000 -62.000
v 60.000 0.000 -57.000
v 390.000 0.000 -57.000
v 390.000 4.000 -57.000
v 60.000 4.000 -57.000
v 60.000 0.000 -70.000
v 390.000 0.000 -70.000
v 390.000 10.000 -70.000
v 60.000 10.000 -70.000
v 60.000 0.000 -62.000
v 390.000 0.000 -62.000
v 390.000 10.000 -62.000
v 60.000 10.000 -62.000
v 60.000 0.000 -85.000
v 390.000 0.000 -85.000
v 390.000 16.000 -85.000
v 60.000 16.000 -85.000
v 60.000 0.000 -70.000
v 390.000 0.000 -70.000
v 390.000 16.000 -70.000
v 60.000 16.000 -70.000
v 62.000 4.000 -62.400
v 388.000 4.000 -62.400
v 388.000 14.000 -62.400
v 62.000 14.000 -62.400
v 62.000 4.000 -62.000
v 388.000 4.000 -62.000
v 388.000 14.000 -62.000
v 62.000 14.000 -62.000
v 40.000 20.000 -86.000
v 400.000 20.000 -86.000
v 400.000 22.000 -86.000
v 40.000 22.000 -86.000
v 40.000 20.000 -60.000
v 400.000 20.000 -60.000
v 400.000 22.000 -60.000
v 40.000 22.000 -60.000
v 69.400 16.000 -68.000
v 70.600 16.000 -68.000
v 70.600 20.000 -68.000
v 69.400 20.000 -68.000
v 69.400 16.000 -66.800
v 70.600 16.000 -66.800
v 70.600 20.000 -66.800
v 69.400 20.000 -66.800
v 124.400 16.000 -68.000
v 125.600 16.000 -68.000
v 125.600 20.000 -68.000
v 124.400 20.000 -68.000
v 124.400 16.000 -66.800
v 125.600 16.000 -66.800
v 125.600 20.000 -66.800
v 124.400 20.000 -66.800
v 179.400 16.000 -68.000
v 180.600 16.000 -68.000
v 180.600 20.000 -68.000
v 179.400 20.000 -68.000
v 179.400 16.000 -66.800
v 180.600 16.000 -66.800
v 180.600 20.000 -66.800
v 179.400 20.000 -66.800
v 234.400 16.000 -68.000
v 235.600 16.000 -68.000
v 235.600 20.000 -68.000
v 234.400 20.000 -68.000
v 234.400 16.000 -66.800
v 235.600 16.000 -66.800
v 235.600 20.000 -66.800
v 234.400 20.000 -66.800
v 289.400 16.000 -68.000
v 290.600 16.000 -68.000
v 290.600 20.000 -68.000
v 289.400 20.000 -68.000
v 289.400 16.000 -66.800
v 290.600 16.000 -66.800
v 290.600 20.000 -66.800
v 289.400 20.000 -66.800
v 344.400 16.000 -68.000
v 345.600 16.000 -68.000
v 345.600 20.000 -68.000
v 344.400 20.000 -68.000
v 344.400 16.000 -66.800
v 345.600 16.000 -66.800
v 345.600 20.000 -66.800
v 344.400 20.000 -66.800
v -5.000 0.000 -64.000
v 5.000 0.000 -64.000
v 5.000 26.000 -64.000
v -5.000 26.000 -64.000
v -5.000 0.000 -56.000
v 5.000 0.000 -56.000
v 5.000 26.000 -56.000
v -5.000 26.000 -56.000
v -4.500 19.500 -59.200
v 4.500 19.500 -59.200
v 4.500 28.500 -59.200
v -4.500 28.500 -59.200
v -4.500 19.500 -58.200
v 4.500 19.500 -58.200
v 4.500 28.500 -58.200
v -4.500 28.500 -58.200
v -0.300 24.000 -58.100
v 0.300 24.000 -58.100
v 0.300 28.000 -58.100
v -0.300 28.000 -58.100
v -0.300 24.000 -57.900
v 0.300 24.000 -57.900
v 0.300 28.000 -57.900
v -0.300 28.000 -57.900
v -100.400 0.000 83.600
v -99.600 0.000 83.600
v -99.600 15.000 83.600
v -100.400 15.000 83.600
v -100.400 0.000 84.400
v -99.600 0.000 84.400
v -99.600 15.000 84.400
v -100.400 15.000 84.400
v -60.400 0.000 83.600
v -59.600 0.000 83.600
v -59.600 15.000 83.600
v -60.400 15.000 83.600
v -60.400 0.000 84.400
v -59.600 0.000 84.400
v -59.600 15.000 84.400
v -60.400 15.000 84.400
v -20.400 0.000 83.600
v -19.600 0.000 83.600
v -19.600 15.000 83.600
v -20.400 15.000 83.600
v -20.400 0.000 84.400
v -19.600 0.000 84.400
v -19.600 15.000 84.400
v -20.400 15.000 84.400
v 19.600 0.000 83.600
v 20.400 0.000 83.600
v 20.400 15.000 83.600
v 19.600 15.000 83.600
v 19.600 0.000 84.400
v 20.400 0.000 84.400
v 20.400 15.000 84.400
v 19.600 15.000 84.400
v 59.600 0.000 83.600
v 60.400 0.000 83.600
v 60.400 15.000 83.600
v 59.600 15.000 83.600
v 59.600 0.000 84.400
v 60.400 0.000 84.400
v 60.400 15.000 84.400
v 59.600 15.000 84.400
v 99.600 0.000 83.600
v 100.400 0.000 83.600
v 100.400 15.000 83.600
v 99.600 15.000 83.600
v 99.600 0.000 84.400
v 100.400 0.000 84.400
v 100.400 15.000 84.400
v 99.600 15.000 84.400
v 139.600 0.000 83.600
v 140.400 0.000 83.600
v 140.400 15.000 83.600
v 139.600 15.000 83.600
v 139.600 0.000 84.400
v 140.400 0.000 84.400
v 140.400 15.000 84.400
v 139.600 15.000 84.400
v 179.600 0.000 83.600
v 180.400 0.000 83.600
v 180.400 15.000 83.600
v 179.600 15.000 83.600
v 179.600 0.000 84.400
v 180.400 0.000 84.400
v 180.400 15.000 84.400
v 179.600 15.000 84.400
v 219.600 0.000 83.600
v 220.400 0.000 83.600
v 220.400 15.000 83.600
v 219.600 15.000 83.600
v 219.600 0.000 84.400
v 220.400 0.000 84.400
v 220.400 15.000 84.400
v 219.600 15.000 84.400
v 259.600 0.000 83.600
v 260.400 0.000 83.600
v 260.400 15.000 83.600
v 259.600 15.000 83.600
v 259.600 0.000 84.400
v 260.400 0.000 84.400
v 260.400 15.000 84.400
v 259.600 15.000 84.400
v 299.600 0.000 83.600
v 300.400 0.000 83.600
v 300.400 15.000 83.600
v 299.600 15.000 83.600
v 299.600 0.000 84.400
v 300.400 0.000 84.400
v 300.400 15.000 84.400
v 299.600 15.000 84.400
v 339.600 0.000 83.600
v 340.400 0.000 83.600
v 340.400 15.000 83.600
v 339.600 15.000 83.600
v 339.600 0.000 84.400
v 340.400 0.000 84.400
v 340.400 15.000 84.400
v 339.600 15.000 84.400
v 379.600 0.000 83.600
v 380.400 0.000 83.600
v 380.400 15.000 83.600
v 379.600 15.000 83.600
v 379.600 0.000 84.400
v 380.400 0.000 84.400
v 380.400 15.000 84.400
v 379.600 15.000 84.400
v -110.000 3.000 83.800
v 410.000 3.000 83.800
v 410.000 14.000 83.800
v -110.000 14.000 83.800
v -110.000 3.000 84.200
v 410.000 3.000 84.200
v 410.000 14.000 84.200
v -110.000 14.000 84.200
v -96.700 0.000 -61.700
v -95.300 0.000 -61.700
v -95.300 30.000 -61.700
v -96.700 30.000 -61.700
v -96.700 0.000 -60.300
v -95.300 0.000 -60.300
v -95.300 30.000 -60.300
v -96.700 30.000 -60.300
v -98.200 30.000 -62.000
v -93.800 30.000 -62.000
v -93.800 32.000 -62.000
v -98.200 32.000 -62.000
v -98.200 30.000 -60.000
v -93.800 30.000 -60.000
v -93.800 32.000 -60.000
v -98.200 32.000 -60.000
v 395.300 0.000 -61.700
v 396.700 0.000 -61.700
v 396.700 30.000 -61.700
v 395.300 30.000 -61.700
v 395.300 0.000 -60.300
v 396.700 0.000 -60.300
v 396.700 30.000 -60.300
v 395.300 30.000 -60.300
v 393.800 30.000 -62.000
v 398.200 30.000 -62.000
v 398.200 32.000 -62.000
v 393.800 32.000 -62.000
v 393.800 30.000 -60.000
v 398.200 30.000 -60.000
v 398.200 32.000 -60.000
v 393.800 32.000 -60.000
v 259.000 0.000 -24.000
v 261.000 0.000 -24.000
v 261.000 1.600 -24.000
v 259.000 1.600 -24.000
v 259.000 0.000 -22.000
v 261.000 0.000 -22.000
v 261.000 1.600 -22.000
v 259.000 1.600 -22.000
v 39.000 0.000 -24.000
v 41.000 0.000 -24.000
v 41.000 1.600 -24.000
v 39.000 1.600 -24.000
v 39.000 0.000 -22.000
v 41.000 0.000 -22.000
v 41.000 1.600 -22.000
v 39.000 1.600 -22.000
usemtl pit
f 1 2 3
f 1 3 4
f 6 5 8
f 6 8 7
f 5 1 4
f 5 4 8
f 2 6 7
f 2 7 3
f 4 3 7
f 4 7 8
f 5 6 2
f 5 2 1
f 9 10 11
f 9 11 12
f 14 13 16
f 14 16 15
f 13 9 12
f 13 12 16
f 10 14 15
f 10 15 11
f 12 11 15
f 12 15 16
f 13 14 10
f 13 10 9
f 17 18 19
f 17 19 20
f 22 21 24
f 22 24 23
f 21 17 20
f 21 20 24
f 18 22 23
f 18 23 19
f 20 19 23
f 20 23 24
f 21 22 18
f 21 18 17
f 25 26 27
f 25 27 28
f 30 29 32
f 30 32 31
f 29 25 28
f 29 28 32
f 26 30 31
f 26 31 27
f 28 27 31
f 28 31 32
f 29 30 26
f 29 26 25
f 33 34 35
f 33 35 36
f 38 37 40
f 38 40 39
f 37 33 36
f 37 36 40
f 34 38 39
f 34 39 35
f 36 35 39
f 36 39 40
f 37 38 34
f 37 34 33
f 41 42 43
f 41 43 44
f 46 45 48
f 46 48 47
f 45 41 44
f 45 44 48
f 42 46 47
f 42 47 43
f 44 43 47
f 44 47 48
f 45 46 42
f 45 42 41
f 49 50 51
f 49 51 52
f 54 53 56
f 54 56 55
f 53 49 52
f 53 52 56
f 50 54 55
f 50 55 51
f 52 51 55
f 52 55 56
f 53 54 50
f 53 50 49
f 57 58 59
f 57 59 60
f 62 61 64
f 62 64 63
f 61 57 60
f 61 60 64
f 58 62 63
f 58 63 59
f 60 59 63
f 60 63 64
f 61 62 58
f 61 58 57
f 65 66 67
f 65 67 68
f 70 69 72
f 70 72 71
f 69 65 68
f 69 68 72
f 66 70 71
f 66 71 67
f 68 67 71
f 68 71 72
f 69 70 66
f 69 66 65
usemtl stand
f 73 74 75
f 73 75 76
f 78 77 80
f 78 80 79
f 77 73 76
f 77 76 80
f 74 78 79
f 74 79 75
f 76 75 79
f 76 79 80
f 77 78 74
f 77 74 73
f 81 82 83
f 81 83 84
f 86 85 88
f 86 88 87
f 85 81 84
f 85 84 88
f 82 86 87
f 82 87 83
f 84 83 87
f 84 87 88
f 85 86 82
f 85 82 81
f 89 90 91
f 89 91 92
f 94 93 96
f 94 96 95
f 93 89 92
f 93 92 96
f 90 94 95
f 90 95 91
f 92 91 95
f 92 95 96
f 93 94 90
f 93 90 89
usemtl glass
f 97 98 99
f 97 99 100
f 102 101 104
f 102 104 103
f 101 97 100
f 101 100 104
f 98 102 103
f 98 103 99
f 100 99 103
f 100 103 104
f 101 102 98
f 101 98 97
usemtl roof
f 105 106 107
f 105 107 108
f 110 109 112
f 110 112 111
f 109 105 108
f 109 108 112
f 106 110 111
f 106 111 107
f 108 107 111
f 108 111 112
f 109 110 106
f 109 106 105
usemtl stand
f 113 114 115
f 113 115 116
f 118 117 120
f 118 120 119
f 117 113 116
f 117 116 120
f 114 118 119
f 114 119 115
f 116 115 119
f 116 119 120
f 117 118 114
f 117 114 113
f 121 122 123
f 121 123 124
f 126 125 128
f 126 128 127
f 125 121 124
f 125 124 128
f 122 126 127
f 122 127 123
f 124 123 127
f 124 127 128
f 125 126 122
f 125 122 121
f 129 130 131
f 129 131 132
f 134 133 136
f 134 136 135
f 133 129 132
f 133 132 136
f 130 134 135
f 130 135 131
f 132 131 135
f 132 135 136
f 133 134 130
f 133 130 129
f 137 138 139
f 137 139 140
f 142 141 144
f 142 144 143
f 141 137 140
f 141 140 144
f 138 142 143
f 138 143 139
f 140 139 143
f 140 143 144
f 141 142 138
f 141 138 137
f 145 146 147
f 145 147 148
f 150 149 152
f 150 152 151
f 149 145 148
f 149 148 152
f 146 150 151
f 146 151 147
f 148 147 151
f 148 151 152
f 149 150 146
f 149 146 145
f 153 154 155
f 153 155 156
f 158 157 160
f 158 160 159
f 157 153 156
f 157 156 160
f 154 158 159
f 154 159 155
f 156 155 159
f 156 159 160
f 157 158 154
f 157 154 153
usemtl tower
f 161 162 163
f 161 163 164
f 166 165 168
f 166 168 167
f 165 161 164
f 165 164 168
f 162 166 167
f 162 167 163
f 164 163 167
f 164 167 168
f 165 166 162
f 165 162 161
usemtl clock
f 169 170 171
f 169 171 172
f 174 173 176
f 174 176 175
f 173 169 172
f 173 172 176
f 170 174 175
f 170 175 171
f 172 171 175
f 172 175 176
f 173 174 170
f 173 170 169
usemtl clock_hand
f 177 178 179
f 177 179 180
f 182 181 184
f 182 184 183
f 181 177 180
f 181 180 184
f 178 182 183
f 178 183 179
f 180 179 183
f 180 183 184
f 181 182 178
f 181 178 177
usemtl net_post
f 185 186 187
f 185 187 188
f 190 189 192
f 190 192 191
f 189 185 188
f 189 188 192
f 186 190 191
f 186 191 187
f 188 187 191
f 188 191 192
f 189 190 186
f 189 186 185
f 193 194 195
f 193 195 196
f 198 197 200
f 198 200 199
f 197 193 196
f 197 196 200
f 194 198 199
f 194 199 195
f 196 195 199
f 196 199 200
f 197 198 194
f 197 194 193
f 201 202 203
f 201 203 204
f 206 205 208
f 206 208 207
f 205 201 204
f 205 204 208
f 202 206 207
f 202 207 203
f 204 203 207
f 204 207 208
f 205 206 202
f 205 202 201
f 209 210 211
f 209 211 212
f 214 213 216
f 214 216 215
f 213 209 212
f 213 212 216
f 210 214 215
f 210 215 211
f 212 211 215
f 212 215 216
f 213 214 210
f 213 210 209
f 217 218 219
f 217 219 220
f 222 221 224
f 222 224 223
f 221 217 220
f 221 220 224
f 218 222 223
f 218 223 219
f 220 219 223
f 220 223 224
f 221 222 218
f 221 218 217
f 225 226 227
f 225 227 228
f 230 229 232
f 230 232 231
f 229 225 228
f 229 228 232
f 226 230 231
f 226 231 227
f 228 227 231
f 228 231 232
f 229 230 226
f 229 226 225
f 233 234 235
f 233 235 236
f 238 237 240
f 238 240 239
f 237 233 236
f 237 236 240
f 234 238 239
f 234 239 235
f 236 235 239
f 236 239 240
f 237 238 234
f 237 234 233
f 241 242 243
f 241 243 244
f 246 245 248
f 246 248 247
f 245 241 244
f 245 244 248
f 242 246 247
f 242 247 243
f 244 243 247
f 244 247 248
f 245 246 242
f 245 242 241
f 249 250 251
f 249 251 252
f 254 253 256
f 254 256 255
f 253 249 252
f 253 252 256
f 250 254 255
f 250 255 251
f 252 251 255
f 252 255 256
f 253 254 250
f 253 250 249
f 257 258 259
f 257 259 260
f 262 261 264
f 262 264 263
f 261 257 260
f 261 260 264
f 258 262 263
f 258 263 259
f 260 259 263
f 260 263 264
f 261 262 258
f 261 258 257
f 265 266 267
f 265 267 268
f 270 269 272
f 270 272 271
f 269 265 268
f 269 268 272
f 266 270 271
f 266 271 267
f 268 267 271
f 268 271 272
f 269 270 266
f 269 266 265
f 273 274 275
f 273 275 276
f 278 277 280
f 278 280 279
f 277 273 276
f 277 276 280
f 274 278 279
f 274 279 275
f 276 275 279
f 276 279 280
f 277 278 274
f 277 274 273
f 281 282 283
f 281 283 284
f 286 285 288
f 286 288 287
f 285 281 284
f 285 284 288
f 282 286 287
f 282 287 283
f 284 283 287
f 284 287 288
f 285 286 282
f 285 282 281
usemtl net
f 289 290 291
f 289 291 292
f 294 293 296
f 294 296 295
f 293 289 292
f 293 292 296
f 290 294 295
f 290 295 291
f 292 291 295
f 292 295 296
f 293 294 290
f 293 290 289
usemtl tower
f 297 298 299
f 297 299 300
f 302 301 304
f 302 304 303
f 301 297 300
f 301 300 304
f 298 302 303
f 298 303 299
f 300 299 303
f 300 303 304
f 301 302 298
f 301 298 297
usemtl light
f 305 306 307
f 305 307 308
f 310 309 312
f 310 312 311
f 309 305 308
f 309 308 312
f 306 310 311
f 306 311 307
f 308 307 311
f 308 311 312
f 309 310 306
f 309 306 305
usemtl tower
f 313 314 315
f 313 315 316
f 318 317 320
f 318 320 319
f 317 313 316
f 317 316 320
f 314 318 319
f 314 319 315
f 316 315 319
f 316 319 320
f 317 318 314
f 317 314 313
usemtl light
f 321 322 323
f 321 323 324
f 326 325 328
f 326 328 327
f 325 321 324
f 325 324 328
f 322 326 327
f 322 327 323
f 324 323 327
f 324 327 328
f 325 326 322
f 325 322 321
usemtl buoy_orange
f 329 330 331
f 329 331 332
f 334 333 336
f 334 336 335
f 333 329 332
f 333 332 336
f 330 334 335
f 330 335 331
f 332 331 335
f 332 335 336
f 333 334 330
f 333 330 329
f 337 338 339
f 337 339 340
f 342 341 344
f 342 344 343
f 341 337 340
f 341 340 344
f 338 342 343
f 338 343 339
f 340 339 343
f 340 343 344
f 341 342 338
f 341 338 337
