# BOATRACE venue 11 biwako W=160 pit2M=False night=False
mtllib venue_11.mtl
v 20.000 0.000 -69.000
v 90.000 0.000 -69.000
v 90.000 1.000 -69.000
v 20.000 1.000 -69.000
v 20.000 0.000 -41.000
v 90.000 0.000 -41.000
v 90.000 1.000 -41.000
v 20.000 1.000 -41.000
v 20.000 1.000 -69.000
v 90.000 1.000 -69.000
v 90.000 7.500 -69.000
v 20.000 7.500 -69.000
v 20.000 1.000 -57.000
v 90.000 1.000 -57.000
v 90.000 7.500 -57.000
v 20.000 7.500 -57.000
v 19.750 0.000 -57.000
v 20.250 0.000 -57.000
v 20.250 0.600 -57.000
v 19.750 0.600 -57.000
v 19.750 0.000 -42.000
v 20.250 0.000 -42.000
v 20.250 0.600 -42.000
v 19.750 0.600 -42.000
v 31.417 0.000 -57.000
v 31.917 0.000 -57.000
v 31.917 0.600 -57.000
v 31.417 0.600 -57.000
v 31.417 0.000 -42.000
v 31.917 0.000 -42.000
v 31.917 0.600 -42.000
v 31.417 0.600 -42.000
v 43.083 0.000 -57.000
v 43.583 0.000 -57.000
v 43.583 0.600 -57.000
v 43.083 0.600 -57.000
v 43.083 0.000 -42.000
v 43.583 0.000 -42.000
v 43.583 0.600 -42.000
v 43.083 0.600 -42.000
v 54.750 0.000 -57.000
v 55.250 0.000 -57.000
v 55.250 0.600 -57.000
v 54.750 0.600 -57.000
v 54.750 0.000 -42.000
v 55.250 0.000 -42.000
v 55.250 0.600 -42.000
v 54.750 0.600 -42.000
v 66.417 0.000 -57.000
v 66.917 0.000 -57.000
v 66.917 0.600 -57.000
v 66.417 0.600 -57.000
v 66.417 0.000 -42.000
v 66.917 0.000 -42.000
v 66.917 0.600 -42.000
v 66.417 0.600 -42.000
v 78.083 0.000 -57.000
v 78.583 0.000 -57.000
v 78.583 0.600 -57.000
v 78.083 0.600 -57.000
v 78.083 0.000 -42.000
v 78.583 0.000 -42.000
v 78.583 0.600 -42.000
v 78.083 0.600 -42.000
v 89.750 0.000 -57.000
v 90.250 0.000 -57.000
v 90.250 0.600 -57.000
v 89.750 0.600 -57.000
v 89.750 0.000 -42.000
v 90.250 0.000 -42.000
v 90.250 0.600 -42.000
v 89.750 0.600 -42.000
v 60.000 0.000 -62.000
v 390.000 0.000 -62.000
v 390.000 4.000 -62.000
v 60.000 4.000 -62.000
v 60.000 0.000 -57.000
v 390.000 0.000 -57.000
v 390.000 4.000 -57.000
v 60.000 4.000 -57.000
v 60.000 0.000 -70.000
v 390.000 0.000 -70.000
v 390.000 10.000 -70.000
v 60.000 10.000 -70.000
v 60.000 0.000 -62.000
v 390.000 0.000 -62.000
v 390.000 10.000 -62.000
v 60.000 10.000 -62.000
v 60.000 0.000 -85.000
v 390.000 0.000 -85.000
v 390.000 16.000 -85.000
v 60.000 16.000 -85.000
v 60.000 0.000 -70.000
v 390.000 0.000 -70.000
v 390.000 16.000 -70.000
v 60.000 16.000 -70.000
v 62.000 4.000 -62.400
v 388.000 4.000 -62.400
v 388.000 14.000 -62.400
v 62.000 14.000 -62.400
v 62.000 4.000 -62.000
v 388.000 4.000 -62.000
v 388.000 14.000 -62.000
v 62.000 14.000 -62.000
v 40.000 20.000 -86.000
v 400.000 20.000 -86.000
v 400.000 22.000 -86.000
v 40.000 22.000 -86.000
v 40.000 20.000 -60.000
v 400.000 20.000 -60.000
v 400.000 22.000 -60.000
v 40.000 22.000 -60.000
v 69.400 16.000 -68.000
v 70.600 16.000 -68.000
v 70.600 20.000 -68.000
v 69.400 20.000 -68.000
v 69.400 16.000 -66.800
v 70.600 16.000 -66.800
v 70.600 20.000 -66.800
v 69.400 20.000 -66.800
v 124.400 16.000 -68.000
v 125.600 16.000 -68.000
v 125.600 20.000 -68.000
v 124.400 20.000 -68.000
v 124.400 16.000 -66.800
v 125.600 16.000 -66.800
v 125.600 20.000 -66.800
v 124.400 20.000 -66.800
v 179.400 16.000 -68.000
v 180.600 16.000 -68.000
v 180.600 20.000 -68.000
v 179.400 20.000 -68.000
v 179.400 16.000 -66.800
v 180.600 16.000 -66.800
v 180.600 20.000 -66.800
v 179.400 20.000 -66.800
v 234.400 16.000 -68.000
v 235.600 16.000 -68.000
v 235.600 20.000 -68.000
v 234.400 20.000 -68.000
v 234.400 16.000 -66.800
v 235.600 16.000 -66.800
v 235.600 20.000 -66.800
v 234.400 20.000 -66.800
v 289.400 16.000 -68.000
v 290.600 16.000 -68.000
v 290.600 20.000 -68.000
v 289.400 20.000 -68.000
v 289.400 16.000 -66.800
v 290.600 16.000 -66.800
v 290.600 20.000 -66.800
v 289.400 20.000 -66.800
v 344.400 16.000 -68.000
v 345.600 16.000 -68.000
v 345.600 20.000 -68.000
v 344.400 20.000 -68.000
v 344.400 16.000 -66.800
v 345.600 16.000 -66.800
v 345.600 20.000 -66.800
v 344.400 20.000 -66.800
v -5.000 0.000 -64.000
v 5.000 0.000 -64.000
v 5.000 26.000 -64.000
v -5.000 26.000 -64.000
v -5.000 0.000 -56.000
v 5.000 0.000 -56.000
v 5.000 26.000 -56.000
v -5.000 26.000 -56.000
v -4.500 19.500 -59.200
v 4.500 19.500 -59.200
v 4.500 28.500 -59.200
v -4.500 28.500 -59.200
v -4.500 19.500 -58.200
v 4.500 19.500 -58.200
v 4.500 28.500 -58.200
v -4.500 28.500 -58.200
v -0.300 24.000 -58.100
v 0.300 24.000 -58.100
v 0.300 28.000 -58.100
v -0.300 28.000 -58.100
v -0.300 24.000 -57.900
v 0.300 24.000 -57.900
v 0.300 28.000 -57.900
v -0.300 28.000 -57.900
v -100.400 0.000 103.600
v -99.600 0.000 103.600
v -99.600 15.000 103.600
v -100.400 15.000 103.600
v -100.400 0.000 104.400
v -99.600 0.000 104.400
v -99.600 15.000 104.400
v -100.400 15.000 104.400
v -60.400 0.000 103.600
v -59.600 0.000 103.600
v -59.600 15.000 103.600
v -60.400 15.000 103.600
v -60.400 0.000 104.400
v -59.600 0.000 104.400
v -59.600 15.000 104.400
v -60.400 15.000 104.400
v -20.400 0.000 103.600
v -19.600 0.000 103.600
v -19.600 15.000 103.600
v -20.400 15.000 103.600
v -20.400 0.000 104.400
v -19.600 0.000 104.400
v -19.600 15.000 104.400
v -20.400 15.000 104.400
v 19.600 0.000 103.600
v 20.400 0.000 103.600
v 20.400 15.000 103.600
v 19.600 15.000 103.600
v 19.600 0.000 104.400
v 20.400 0.000 104.400
v 20.400 15.000 104.400
v 19.600 15.000 104.400
v 59.600 0.000 103.600
v 60.400 0.000 103.600
v 60.400 15.000 103.600
v 59.600 15.000 103.600
v 59.600 0.000 104.400
v 60.400 0.000 104.400
v 60.400 15.000 104.400
v 59.600 15.000 104.400
v 99.600 0.000 103.600
v 100.400 0.000 103.600
v 100.400 15.000 103.600
v 99.600 15.000 103.600
v 99.600 0.000 104.400
v 100.400 0.000 104.400
v 100.400 15.000 104.400
v 99.600 15.000 104.400
v 139.600 0.000 103.600
v 140.400 0.000 103.600
v 140.400 15.000 103.600
v 139.600 15.000 103.600
v 139.600 0.000 104.400
v 140.400 0.000 104.400
v 140.400 15.000 104.400
v 139.600 15.000 104.400
v 179.600 0.000 103.600
v 180.400 0.000 103.600
v 180.400 15.000 103.600
v 179.600 15.000 103.600
v 179.600 0.000 104.400
v 180.400 0.000 104.400
v 180.400 15.000 104.400
v 179.600 15.000 104.400
v 219.600 0.000 103.600
v 220.400 0.000 103.600
v 220.400 15.000 103.600
v 219.600 15.000 103.600
v 219.600 0.000 104.400
v 220.400 0.000 104.400
v 220.400 15.000 104.400
v 219.600 15.000 104.400
v 259.600 0.000 103.600
v 260.400 0.000 103.600
v 260.400 15.000 103.600
v 259.600 15.000 103.600
v 259.600 0.000 104.400
v 260.400 0.000 104.400
v 260.400 15.000 104.400
v 259.600 15.000 104.400
v 299.600 0.000 103.600
v 300.400 0.000 103.600
v 300.400 15.000 103.600
v 299.600 15.000 103.600
v 299.600 0.000 104.400
v 300.400 0.000 104.400
v 300.400 15.000 104.400
v 299.600 15.000 104.400
v 339.600 0.000 103.600
v 340.400 0.000 103.600
v 340.400 15.000 103.600
v 339.600 15.000 103.600
v 339.600 0.000 104.400
v 340.400 0.000 104.400
v 340.400 15.000 104.400
v 339.600 15.000 104.400
v 379.600 0.000 103.600
v 380.400 0.000 103.600
v 380.400 15.000 103.600
v 379.600 15.000 103.600
v 379.600 0.000 104.400
v 380.400 0.000 104.400
v 380.400 15.000 104.400
v 379.600 15.000 104.400
v -110.000 3.000 103.800
v 410.000 3.000 103.800
v 410.000 14.000 103.800
v -110.000 14.000 103.800
v -110.000 3.000 104.200
v 410.000 3.000 104.200
v 410.000 14.000 104.200
v -110.000 14.000 104.200
v -96.700 0.000 -61.700
v -95.300 0.000 -61.700
v -95.300 30.000 -61.700
v -96.700 30.000 -61.700
v -96.700 0.000 -60.300
v -95.300 0.000 -60.300
v -95.300 30.000 -60.300
v -96.700 30.000 -60.300
v -98.200 30.000 -62.000
v -93.800 30.000 -62.000
v -93.800 32.000 -62.000
v -98.200 32.000 -62.000
v -98.200 30.000 -60.000
v -93.800 30.000 -60.000
v -93.800 32.000 -60.000
v -98.200 32.000 -60.000
v 395.300 0.000 -61.700
v 396.700 0.000 -61.700
v 396.700 30.000 -61.700
v 395.300 30.000 -61.700
v 395.300 0.000 -60.300
v 396.700 0.000 -60.300
v 396.700 30.000 -60.300
v 395.300 30.000 -60.300
v 393.800 30.000 -62.000
v 398.200 30.000 -62.000
v 398.200 32.000 -62.000
v 393.800 32.000 -62.000
v 393.800 30.000 -60.000
v 398.200 30.000 -60.000
v 398.200 32.000 -60.000
v 393.800 32.000 -60.000
v 259.000 0.000 -24.000
v 261.000 0.000 -24.000
v 261.000 1.600 -24.000
v 259.000 1.600 -24.000
v 259.000 0.000 -22.000
v 261.000 0.000 -22.000
v 261.000 1.600 -22.000
v 259.000 1.600 -22.000
v 39.000 0.000 -24.000
v 41.000 0.000 -24.000
v 41.000 1.600 -24.000
v 39.000 1.600 -24.000
v 39.000 0.000 -22.000
v 41.000 0.000 -22.000
v 41.000 1.600 -22.000
v 39.000 1.600 -22.000
usemtl pit
f 1 3 2
f 1 4 3
f 6 8 5
f 6 7 8
f 5 4 1
f 5 8 4
f 2 7 6
f 2 3 7
f 4 7 3
f 4 8 7
f 5 2 6
f 5 1 2
f 9 11 10
f 9 12 11
f 14 16 13
f 14 15 16
f 13 12 9
f 13 16 12
f 10 15 14
f 10 11 15
f 12 15 11
f 12 16 15
f 13 10 14
f 13 9 10
f 17 19 18
f 17 20 19
f 22 24 21
f 22 23 24
f 21 20 17
f 21 24 20
f 18 23 22
f 18 19 23
f 20 23 19
f 20 24 23
f 21 18 22
f 21 17 18
f 25 27 26
f 25 28 27
f 30 32 29
f 30 31 32
f 29 28 25
f 29 32 28
f 26 31 30
f 26 27 31
f 28 31 27
f 28 32 31
f 29 26 30
f 29 25 26
f 33 35 34
f 33 36 35
f 38 40 37
f 38 39 40
f 37 36 33
f 37 40 36
f 34 39 38
f 34 35 39
f 36 39 35
f 36 40 39
f 37 34 38
f 37 33 34
f 41 43 42
f 41 44 43
f 46 48 45
f 46 47 48
f 45 44 41
f 45 48 44
f 42 47 46
f 42 43 47
f 44 47 43
f 44 48 47
f 45 42 46
f 45 41 42
f 49 51 50
f 49 52 51
f 54 56 53
f 54 55 56
f 53 52 49
f 53 56 52
f 50 55 54
f 50 51 55
f 52 55 51
f 52 56 55
f 53 50 54
f 53 49 50
f 57 59 58
f 57 60 59
f 62 64 61
f 62 63 64
f 61 60 57
f 61 64 60
f 58 63 62
f 58 59 63
f 60 63 59
f 60 64 63
f 61 58 62
f 61 57 58
f 65 67 66
f 65 68 67
f 70 72 69
f 70 71 72
f 69 68 65
f 69 72 68
f 66 71 70
f 66 67 71
f 68 71 67
f 68 72 71
f 69 66 70
f 69 65 66
usemtl stand
f 73 75 74
f 73 76 75
f 78 80 77
f 78 79 80
f 77 76 73
f 77 80 76
f 74 79 78
f 74 75 79
f 76 79 75
f 76 80 79
f 77 74 78
f 77 73 74
f 81 83 82
f 81 84 83
f 86 88 85
f 86 87 88
f 85 84 81
f 85 88 84
f 82 87 86
f 82 83 87
f 84 87 83
f 84 88 87
f 85 82 86
f 85 81 82
f 89 91 90
f 89 92 91
f 94 96 93
f 94 95 96
f 93 92 89
f 93 96 92
f 90 95 94
f 90 91 95
f 92 95 91
f 92 96 95
f 93 90 94
f 93 89 90
usemtl glass
f 97 99 98
f 97 100 99
f 102 104 101
f 102 103 104
f 101 100 97
f 101 104 100
f 98 103 102
f 98 99 103
f 100 103 99
f 100 104 103
f 101 98 102
f 101 97 98
usemtl roof
f 105 107 106
f 105 108 107
f 110 112 109
f 110 111 112
f 109 108 105
f 109 112 108
f 106 111 110
f 106 107 111
f 108 111 107
f 108 112 111
f 109 106 110
f 109 105 106
usemtl stand
f 113 115 114
f 113 116 115
f 118 120 117
f 118 119 120
f 117 116 113
f 117 120 116
f 114 119 118
f 114 115 119
f 116 119 115
f 116 120 119
f 117 114 118
f 117 113 114
f 121 123 122
f 121 124 123
f 126 128 125
f 126 127 128
f 125 124 121
f 125 128 124
f 122 127 126
f 122 123 127
f 124 127 123
f 124 128 127
f 125 122 126
f 125 121 122
f 129 131 130
f 129 132 131
f 134 136 133
f 134 135 136
f 133 132 129
f 133 136 132
f 130 135 134
f 130 131 135
f 132 135 131
f 132 136 135
f 133 130 134
f 133 129 130
f 137 139 138
f 137 140 139
f 142 144 141
f 142 143 144
f 141 140 137
f 141 144 140
f 138 143 142
f 138 139 143
f 140 143 139
f 140 144 143
f 141 138 142
f 141 137 138
f 145 147 146
f 145 148 147
f 150 152 149
f 150 151 152
f 149 148 145
f 149 152 148
f 146 151 150
f 146 147 151
f 148 151 147
f 148 152 151
f 149 146 150
f 149 145 146
f 153 155 154
f 153 156 155
f 158 160 157
f 158 159 160
f 157 156 153
f 157 160 156
f 154 159 158
f 154 155 159
f 156 159 155
f 156 160 159
f 157 154 158
f 157 153 154
usemtl tower
f 161 163 162
f 161 164 163
f 166 168 165
f 166 167 168
f 165 164 161
f 165 168 164
f 162 167 166
f 162 163 167
f 164 167 163
f 164 168 167
f 165 162 166
f 165 161 162
usemtl clock
f 169 171 170
f 169 172 171
f 174 176 173
f 174 175 176
f 173 172 169
f 173 176 172
f 170 175 174
f 170 171 175
f 172 175 171
f 172 176 175
f 173 170 174
f 173 169 170
usemtl clock_hand
f 177 179 178
f 177 180 179
f 182 184 181
f 182 183 184
f 181 180 177
f 181 184 180
f 178 183 182
f 178 179 183
f 180 183 179
f 180 184 183
f 181 178 182
f 181 177 178
usemtl net_post
f 185 187 186
f 185 188 187
f 190 192 189
f 190 191 192
f 189 188 185
f 189 192 188
f 186 191 190
f 186 187 191
f 188 191 187
f 188 192 191
f 189 186 190
f 189 185 186
f 193 195 194
f 193 196 195
f 198 200 197
f 198 199 200
f 197 196 193
f 197 200 196
f 194 199 198
f 194 195 199
f 196 199 195
f 196 200 199
f 197 194 198
f 197 193 194
f 201 203 202
f 201 204 203
f 206 208 205
f 206 207 208
f 205 204 201
f 205 208 204
f 202 207 206
f 202 203 207
f 204 207 203
f 204 208 207
f 205 202 206
f 205 201 202
f 209 211 210
f 209 212 211
f 214 216 213
f 214 215 216
f 213 212 209
f 213 216 212
f 210 215 214
f 210 211 215
f 212 215 211
f 212 216 215
f 213 210 214
f 213 209 210
f 217 219 218
f 217 220 219
f 222 224 221
f 222 223 224
f 221 220 217
f 221 224 220
f 218 223 222
f 218 219 223
f 220 223 219
f 220 224 223
f 221 218 222
f 221 217 218
f 225 227 226
f 225 228 227
f 230 232 229
f 230 231 232
f 229 228 225
f 229 232 228
f 226 231 230
f 226 227 231
f 228 231 227
f 228 232 231
f 229 226 230
f 229 225 226
f 233 235 234
f 233 236 235
f 238 240 237
f 238 239 240
f 237 236 233
f 237 240 236
f 234 239 238
f 234 235 239
f 236 239 235
f 236 240 239
f 237 234 238
f 237 233 234
f 241 243 242
f 241 244 243
f 246 248 245
f 246 247 248
f 245 244 241
f 245 248 244
f 242 247 246
f 242 243 247
f 244 247 243
f 244 248 247
f 245 242 246
f 245 241 242
f 249 251 250
f 249 252 251
f 254 256 253
f 254 255 256
f 253 252 249
f 253 256 252
f 250 255 254
f 250 251 255
f 252 255 251
f 252 256 255
f 253 250 254
f 253 249 250
f 257 259 258
f 257 260 259
f 262 264 261
f 262 263 264
f 261 260 257
f 261 264 260
f 258 263 262
f 258 259 263
f 260 263 259
f 260 264 263
f 261 258 262
f 261 257 258
f 265 267 266
f 265 268 267
f 270 272 269
f 270 271 272
f 269 268 265
f 269 272 268
f 266 271 270
f 266 267 271
f 268 271 267
f 268 272 271
f 269 266 270
f 269 265 266
f 273 275 274
f 273 276 275
f 278 280 277
f 278 279 280
f 277 276 273
f 277 280 276
f 274 279 278
f 274 275 279
f 276 279 275
f 276 280 279
f 277 274 278
f 277 273 274
f 281 283 282
f 281 284 283
f 286 288 285
f 286 287 288
f 285 284 281
f 285 288 284
f 282 287 286
f 282 283 287
f 284 287 283
f 284 288 287
f 285 282 286
f 285 281 282
usemtl net
f 289 291 290
f 289 292 291
f 294 296 293
f 294 295 296
f 293 292 289
f 293 296 292
f 290 295 294
f 290 291 295
f 292 295 291
f 292 296 295
f 293 290 294
f 293 289 290
usemtl tower
f 297 299 298
f 297 300 299
f 302 304 301
f 302 303 304
f 301 300 297
f 301 304 300
f 298 303 302
f 298 299 303
f 300 303 299
f 300 304 303
f 301 298 302
f 301 297 298
usemtl light
f 305 307 306
f 305 308 307
f 310 312 309
f 310 311 312
f 309 308 305
f 309 312 308
f 306 311 310
f 306 307 311
f 308 311 307
f 308 312 311
f 309 306 310
f 309 305 306
usemtl tower
f 313 315 314
f 313 316 315
f 318 320 317
f 318 319 320
f 317 316 313
f 317 320 316
f 314 319 318
f 314 315 319
f 316 319 315
f 316 320 319
f 317 314 318
f 317 313 314
usemtl light
f 321 323 322
f 321 324 323
f 326 328 325
f 326 327 328
f 325 324 321
f 325 328 324
f 322 327 326
f 322 323 327
f 324 327 323
f 324 328 327
f 325 322 326
f 325 321 322
usemtl buoy_orange
f 329 331 330
f 329 332 331
f 334 336 333
f 334 335 336
f 333 332 329
f 333 336 332
f 330 335 334
f 330 331 335
f 332 335 331
f 332 336 335
f 333 330 334
f 333 329 330
f 337 339 338
f 337 340 339
f 342 344 341
f 342 343 344
f 341 340 337
f 341 344 340
f 338 343 342
f 338 339 343
f 340 343 339
f 340 344 343
f 341 338 342
f 341 337 338
